<svg xmlns="http://www.w3.org/2000/svg" width="34" height="35" viewBox="0 0 34 35">
  <path fill="#FFFFFF" fill-rule="evenodd" d="M17,0.225915572 L17,0.225915572 C26.3888407,0.225915572 34,7.83707483 34,17.2259156 L34,17.2259156 C34,26.6147563 26.3888407,34.2259156 17,34.2259156 C7.61115925,34.2259156 1.14980138e-15,26.6147563 0,17.2259156 L0,17.2259156 L0,17.2259156 C-1.14980138e-15,7.83707483 7.61115925,0.225915572 17,0.225915572 L17,0.225915572 Z M8,22.25 L8,26 L11.75,26 L22.81,14.94 L19.06,11.19 L8,22.25 Z M25.71,12.04 C26.1,11.65 26.1,11.02 25.71,10.63 L23.37,8.29 C22.98,7.9 22.35,7.9 21.96,8.29 L20.13,10.12 L23.88,13.87 L25.71,12.04 Z"/>
</svg>
