<svg xmlns="http://www.w3.org/2000/svg" width="56" height="32" viewBox="0 0 56 32">
  <g fill="none" fill-rule="evenodd" transform="translate(8 4)">
    <rect width="10.769" height="19.387" x="14.578" y="2.682" fill="#858585"/>
    <path fill="#C3C3C3" d="M15.2615385,12.3767123 C15.257512,8.5929768 16.9910577,5.01765214 19.9623932,2.68150685 C14.9161676,-1.29107816 7.6695854,-0.712436797 3.31534971,4.01077733 C-1.03888599,8.73399146 -1.03888599,16.0160085 3.31534971,20.7392227 C7.6695854,25.4624368 14.9161676,26.0410782 19.9623932,22.0684932 C16.992003,19.7330895 15.2585632,16.1592461 15.2615385,12.3767123 L15.2615385,12.3767123 Z"/>
    <path fill="#767676" d="M39.8735043,12.3767123 C39.8723661,17.0957767 37.182175,21.4001767 32.9449373,23.4626623 C28.7076996,25.5251478 23.666899,24.9838265 19.9623932,22.0684932 C22.9314873,19.7311068 24.6650575,16.1577385 24.6650575,12.375 C24.6650575,8.59226147 22.9314873,5.01889321 19.9623932,2.68150685 C23.6668683,-0.235922885 28.7090905,-0.77847172 32.9476087,1.28428292 C37.1861268,3.34703755 39.8768132,7.65295192 39.8769231,12.3732877 L39.8735043,12.3767123 Z"/>
  </g>
</svg>
