<svg xmlns="http://www.w3.org/2000/svg" width="56" height="32" viewBox="0 0 56 32">
  <g fill="none" fill-rule="evenodd" transform="translate(8 4)">
    <rect width="10.678" height="19.384" x="14.678" y="2.945" fill="#FF5F00"/>
    <path fill="#EB001B" d="M15.3220339,12.6369863 C15.3220339,8.69863014 17.1525424,5.20547945 19.9661017,2.94520548 C17.8983051,1.30136986 15.2881356,0.308219178 12.440678,0.308219178 C5.69491525,0.308219178 0.237288136,5.82191781 0.237288136,12.6369863 C0.237288136,19.4520548 5.69491525,24.9657534 12.440678,24.9657534 C15.2881356,24.9657534 17.8983051,23.9726027 19.9661017,22.3287671 C17.1525424,20.1027397 15.3220339,16.5753425 15.3220339,12.6369863 Z"/>
    <path fill="#F79E1B" d="M39.7288136,12.6369863 C39.7288136,19.4520548 34.2711864,24.9657534 27.5254237,24.9657534 C24.6779661,24.9657534 22.0677966,23.9726027 20,22.3287671 C22.8474576,20.0684932 24.6440678,16.5753425 24.6440678,12.6369863 C24.6440678,8.69863014 22.8135593,5.20547945 20,2.94520548 C22.0677966,1.30136986 24.6779661,0.308219178 27.5254237,0.308219178 C34.2711864,0.308219178 39.7288136,5.85616438 39.7288136,12.6369863 Z"/>
  </g>
</svg>
