<svg xmlns="http://www.w3.org/2000/svg" width="56" height="32" viewBox="0 0 56 32">
  <g fill="none" fill-rule="evenodd" transform="translate(5 9)">
    <path fill="#868686" d="M4.11898925,13.2951853 L0.0329906553,13.2951853 L0.0329906553,0.072098389 L4.11898925,0.072098389 C5.94754929,0.072098389 6.35032281,1.45204035 6.55825474,2.14068599 L8.24418316,7.8513025 C8.27535782,7.9626309 8.31046714,8.03594102 8.40928777,8.04124238 C8.50810841,8.03594102 8.54321773,7.9626309 8.57439238,7.8513025 L10.2603208,2.14068599 C10.4682527,1.45204035 10.8710263,0.072098389 12.6995863,0.072098389 L16.7855849,0.072098389 L16.7855849,13.2951853 L12.6995863,13.2951853 L12.6995863,5.51302755 C12.6271733,5.30884976 12.3380511,5.34618642 12.2909864,5.51363341 L9.83938728,13.2951853 L6.97918827,13.2951853 L4.52758911,5.51363341 C4.48044879,5.34618642 4.19140222,5.30884976 4.11898925,5.51302755 L4.11898925,13.2951853 L4.11898925,13.2951853 Z M22.7419872,0.072098389 L18.6559886,0.072098389 L18.6559886,13.2951853 L22.7419872,13.2951853 C23.4440979,13.2951853 23.8576918,12.9610486 24.5456529,11.4765186 L27.2750999,5.44623051 C27.3221646,5.27885925 27.6180968,5.24144685 27.6905098,5.44562464 L27.6905098,13.2951853 L31.7765084,13.2951853 L31.7765084,0.072098389 L27.6905098,0.072098389 C26.7712358,0.120492161 26.3220029,1.1747039 25.9902047,1.8907651 L23.150587,7.85365024 C23.1034467,8.0210215 22.8144001,8.0584339 22.7419872,7.85425611 L22.7419872,0.072098389 L22.7419872,0.072098389 Z M33.7660114,6.10443124 L46.6049,6.10443124 C46.1728434,7.38682832 44.685994,9.05796598 42.3863334,9.05796598 L37.85201,9.05796598 L37.85201,13.2951853 L33.7660114,13.2951853 L33.7660114,6.10443124 L33.7660114,6.10443124 Z"/>
    <path fill="#848484" d="M46.7891482,5.44562464 L40.0197836,5.44562464 C36.7457637,5.44562464 33.7519374,3.63445555 33.2324859,0.072098389 L42.3863334,0.072098389 C45.1758598,0.072098389 47.3270624,2.62628984 46.7891482,5.44562464 L46.7891482,5.44562464 Z"/>
  </g>
</svg>
