<!DOCTYPE svg PUBLIC "-//W3C//DTD SVG 20010904//EN" "http://www.w3.org/TR/2001/REC-SVG-20010904/DTD/svg10.dtd">
<svg version="1.0" xmlns="http://www.w3.org/2000/svg" width="250px" height="250px" viewBox="0 0 2500 2500" preserveAspectRatio="xMidYMid meet">
<g id="layer1" fill="#ffe100" stroke="none">
 <path d="M480 2270 c-8 -5 -12 -12 -8 -15 9 -9 48 4 48 16 0 12 -21 11 -40 -1z"/>
 <path d="M1120 1185 c0 -8 7 -15 15 -15 8 0 15 7 15 15 0 8 -7 15 -15 15 -8 0 -15 -7 -15 -15z"/>
 <path d="M1170 1176 c0 -16 37 -32 48 -21 7 7 -25 35 -40 35 -4 0 -8 -6 -8 -14z"/>
 <path d="M1270 1097 c0 -2 7 -18 16 -36 9 -18 16 -55 16 -82 -1 -43 1 -49 14 -39 20 17 12 100 -12 133 -16 23 -34 35 -34 24z"/>
 <path d="M1120 931 c0 -12 40 -41 57 -41 7 0 13 4 13 8 0 8 -14 16 -62 40 -5 2 -8 -1 -8 -7z"/>
 </g>
<g id="layer2" fill="#d6ab05" stroke="none">
 <path d="M621 2126 c2 -9 204 -153 449 -319 l445 -303 5 -259 5 -260 125 0 125 0 0 390 0 390 -265 87 c-146 47 -400 130 -565 184 -165 53 -306 99 -314 102 -8 3 -12 -1 -10 -12z"/>
 <path d="M1075 1157 c-41 -41 -45 -79 -16 -142 28 -61 77 -100 145 -115 l59 -14 29 34 c27 29 30 38 26 80 -8 83 -92 174 -171 187 -32 5 -41 1 -72 -30z"/>
 </g>
<g id="layer3" fill="#ffcc00" stroke="none">
 <path d="M489 2270 c-48 -26 -97 -82 -104 -122 -3 -18 -5 -269 -3 -558 3 -517 3 -526 25 -566 32 -60 107 -138 197 -207 166 -125 404 -311 655 -512 62 -50 128 -100 147 -113 19 -12 53 -41 75 -63 40 -40 78 -48 65 -13 -3 9 -6 325 -6 704 l0 687 -430 293 c-237 161 -429 294 -427 296 3 4 261 -79 817 -261 l255 -84 5 -383 5 -383 140 0 140 0 3 639 c1 463 -1 643 -9 652 -10 12 -141 14 -763 14 -718 -1 -753 -2 -787 -20z m683 -1100 c20 -6 39 -17 42 -25 3 -8 12 -15 21 -15 8 0 15 -7 15 -15 0 -9 7 -18 15 -21 8 -4 15 -12 15 -19 0 -7 4 -15 10 -17 5 -1 13 -24 16 -49 5 -39 3 -49 -19 -74 -24 -29 -25 -29 -74 -17 -28 7 -54 12 -59 10 -15 -5 -60 48 -77 91 -26 64 -22 98 14 132 35 33 32 32 81 19z"/>
 </g>

</svg>