<svg xmlns="http://www.w3.org/2000/svg" width="50" height="50" viewBox="0 0 50 50">
  <g fill="none">
    <path fill="#DB352A" d="M0,25 C0,11.1928813 11.1929235,3.55271368e-15 24.9954462,3.55271368e-15 L25,3.55271368e-15 L25.0045538,3.55271368e-15 C38.8091576,3.55271368e-15 50,11.1898454 50,25 L50,25 C50,38.8071188 38.8101546,50 25,50 L25,50 C11.1928813,50 0,38.8101546 0,25 L0,25 Z" transform="rotate(90 25 25)"/>
    <path fill="#FFFFFF" d="M19.0752264,30.9676868 L14.9224806,29.4526877 L21.5216565,11.2793373 C21.5216565,11.2793373 22.2286822,8.33333333 25,8.33333333 C27.7713178,8.33333333 28.4925984,11.3720173 28.4925984,11.3720173 L35.05812,29.4526877 L30.9053742,30.9676868 L29.2843814,26.5036644 L20.6962192,26.5036644 L19.0752264,30.9676868 Z M24.9903003,14.6782726 L22.1592148,22.4747475 L27.8213858,22.4747475 L24.9903003,14.6782726 Z M14.1666667,37.1212121 L35.8333333,37.1212121 L35.8333333,41.6666667 L14.1666667,41.6666667 L14.1666667,37.1212121 Z"/>
  </g>
</svg>
