<svg xmlns="http://www.w3.org/2000/svg" width="225" height="68" viewBox="0 0 225 68">
  <path fill="#FFFFFF" d="M22.1665262,0.892397108 C26.6610605,0.892397108 28.1092993,4.13844967 29.3078418,7.38450223 C29.8072345,8.73286252 41.542963,40.8438132 41.8925379,41.8425986 C41.9924164,42.092295 41.9424772,42.5417484 41.4930237,42.6915662 C41.0935096,42.841384 35.0009186,45.238469 34.6513437,45.3383475 C34.3017688,45.4881654 33.952194,45.2884083 33.8023761,44.9388334 C33.7024976,44.5892585 31.1555948,37.5977607 30.8559592,36.7987324 C30.0069916,36.7987324 14.3260608,36.7987324 13.4770932,36.7987324 C13.1774576,37.5977607 10.6305548,44.5892585 10.5306762,44.9388334 C10.4307977,45.238469 10.0312835,45.4881654 9.68170866,45.3383475 C9.33213376,45.1885297 3.18960354,42.841384 2.84002864,42.6915662 C2.49045375,42.5417484 2.34063594,42.1422343 2.44051448,41.8425986 C2.88996791,40.6440562 14.4259393,9.03249814 15.0252106,7.38450223 C16.223753,4.18838894 17.6719919,0.892397108 22.1665262,0.892397108 Z M1.54160762,58.3225578 C1.19203273,58.3225578 0.892397108,58.6221934 0.892397108,59.0217076 L0.892397108,66.5125981 C0.892397108,66.862173 1.19203273,67.1618086 1.54160762,67.1618086 L42.7914448,67.1618086 C43.1410197,67.1618086 43.4406553,66.862173 43.4406553,66.5125981 L43.4406553,59.0217076 C43.4406553,58.6721327 43.1410197,58.3225578 42.7914448,58.3225578 L1.54160762,58.3225578 L1.54160762,58.3225578 Z M22.1665262,11.3796438 L16.2736923,29.0082062 L28.1092993,29.0082062 L22.2164655,11.3796438 L22.1665262,11.3796438 Z M175.629903,37.2481858 C175.629903,39.2457566 174.531239,40.5441776 172.483729,40.5441776 C171.684701,40.5441776 171.035491,40.5441776 169.986766,40.244542 L169.986766,34.2518296 C170.436219,34.151951 171.385065,34.0021332 172.483729,34.0520725 C174.581179,34.151951 175.629903,35.1007972 175.629903,37.2481858 Z M179.824802,36.9485502 C179.824802,33.2530442 177.677413,30.7061414 173.083001,30.7061414 C171.984337,30.7061414 171.185308,30.8060199 169.986766,31.1056556 L169.986766,25.7621536 C170.735855,25.6622751 172.034276,25.5623966 173.432576,25.5623966 C174.780936,25.5623966 176.478871,25.6123358 177.977049,25.8120929 L178.076928,22.7158582 C176.378992,22.316344 173.931968,22.1165869 172.034276,22.1165869 C170.136584,22.1165869 167.240106,22.5660404 165.841806,22.9655545 L165.841806,42.641627 C167.989195,43.4406553 170.136584,43.7902302 172.283972,43.7902302 C177.22796,43.8401694 179.824802,41.1933881 179.824802,36.9485502 L179.824802,36.9485502 Z M132.432435,35.8998255 C132.432435,38.6464853 131.333771,40.3943598 129.535957,40.3943598 C128.786868,40.3943598 128.387354,40.3444205 127.538386,40.0947242 L127.538386,31.8547446 C128.487232,31.4052912 128.986625,31.4052912 129.735714,31.4052912 C131.533528,31.4052912 132.432435,32.9034693 132.432435,35.8998255 L132.432435,35.8998255 Z M118.699135,35.999704 C118.699135,33.0033478 119.598042,31.4052912 121.395856,31.4052912 C122.144945,31.4052912 122.644338,31.4052912 123.593184,31.8547446 L123.593184,40.0947242 C122.744216,40.3943598 122.344702,40.3943598 121.595613,40.3943598 C119.548103,40.3943598 118.699135,38.7463639 118.699135,35.999704 L118.699135,35.999704 Z M127.538386,48.3347038 L127.538386,42.9912019 C128.037779,43.2908375 129.036564,43.7402909 130.68456,43.7402909 C134.030491,43.7402909 136.477516,40.993631 136.477516,35.9497648 C136.477516,30.5063843 134.030491,28.1592386 130.03535,28.1592386 C129.036564,28.1592386 128.337415,28.2591172 127.538386,28.6586313 L127.538386,22.2164655 L123.643123,22.2164655 L123.643123,28.608692 C122.844095,28.2091779 122.144945,28.1092993 121.14616,28.1092993 C117.151018,28.1092993 114.703994,30.5563236 114.703994,35.9497648 C114.703994,40.993631 116.901322,43.6903516 120.496949,43.6903516 C122.194884,43.6903516 123.14373,43.2408982 123.643123,42.9412626 L123.643123,48.2847645 L127.538386,48.2847645 L127.538386,48.3347038 Z M97.8245205,43.4406553 L97.8245205,29.0581455 C95.6771319,28.408935 94.029136,28.1592386 91.8318081,28.1592386 C89.6844194,28.1592386 88.0364235,28.4588742 85.8890349,29.0581455 L85.8890349,36.4491575 C85.8890349,38.4467283 85.8390956,39.0459995 85.6393386,39.69521 C85.4395815,40.244542 85.1399459,40.9436918 84.3409175,41.4930237 L85.3896422,43.7902302 C88.5358162,42.8913233 89.7343587,41.542963 89.7343587,37.1483072 L89.7343587,31.7049268 C90.7830834,31.555109 90.9828405,31.5051697 91.8318081,31.5051697 C92.6807757,31.5051697 92.8305935,31.555109 93.8793181,31.7049268 L93.8793181,43.4406553 L97.8245205,43.4406553 L97.8245205,43.4406553 Z M146.165734,40.2944813 C145.316766,40.5941169 144.717495,40.6440562 144.068285,40.6440562 C142.669985,40.6440562 141.870957,40.0947242 141.870957,38.6464853 C141.870957,37.1483072 142.869742,36.6489145 144.817374,36.6489145 C145.266827,36.6489145 145.76622,36.6988538 145.965977,36.7987324 L145.965977,37.8973963 C145.965977,39.0459995 146.015916,39.7950886 146.165734,40.2944813 Z M151.159661,41.9924164 C150.110936,40.3943598 149.86124,39.4954529 149.86124,37.4978821 L149.86124,33.4528013 C149.86124,31.2554734 149.611544,30.456445 149.012272,29.707356 C148.213244,28.608692 146.864884,28.1092993 144.41786,28.1092993 C142.669985,28.1092993 140.97205,28.3090564 139.373993,28.7085706 L139.973264,31.6050483 C141.071928,31.4552304 142.220532,31.3054126 143.069499,31.3054126 C145.666341,31.3054126 145.965977,31.7049268 145.965977,33.6525583 L145.965977,34.4016474 C145.366706,34.2518296 144.717495,34.151951 143.968406,34.151951 C140.023204,34.151951 137.975694,36.0496433 137.975694,39.2457566 C137.975694,42.1921735 140.173022,43.8401694 142.869742,43.8401694 C143.868528,43.8401694 144.917252,43.6404124 145.76622,43.3407767 C146.265613,43.1410197 146.46537,42.9912019 147.11458,42.5916877 C147.514094,43.1909589 148.263183,43.7402909 148.612758,43.8401694 L151.159661,41.9924164 Z M189.51302,40.2944813 C188.664053,40.5941169 188.064782,40.6440562 187.415571,40.6440562 C186.017272,40.6440562 185.218243,40.0947242 185.218243,38.6464853 C185.218243,37.1483072 186.217029,36.6489145 188.16466,36.6489145 C188.614114,36.6489145 189.113506,36.6988538 189.313263,36.7987324 L189.313263,37.8973963 C189.313263,39.0459995 189.363203,39.7950886 189.51302,40.2944813 Z M194.506948,41.9924164 C193.458223,40.3943598 193.208526,39.4954529 193.208526,37.4978821 L193.208526,33.4528013 C193.208526,31.2554734 192.95883,30.456445 192.409498,29.707356 C191.61047,28.608692 190.26211,28.1092993 187.815085,28.1092993 C186.067211,28.1092993 184.369276,28.3090564 182.771219,28.7085706 L183.37049,31.6050483 C184.469154,31.4552304 185.617757,31.3054126 186.466725,31.3054126 C189.063567,31.3054126 189.363203,31.7049268 189.363203,33.6525583 L189.363203,34.4016474 C188.763931,34.2518296 188.114721,34.151951 187.365632,34.151951 C183.42043,34.151951 181.372919,36.0496433 181.372919,39.2457566 C181.372919,42.1921735 183.570247,43.8401694 186.266968,43.8401694 C187.265753,43.8401694 188.314478,43.6404124 189.163446,43.3407767 C189.662838,43.1410197 189.862595,42.9912019 190.511806,42.5916877 C190.91132,43.1909589 191.710348,43.7402909 192.009984,43.8401694 L194.506948,41.9924164 L194.506948,41.9924164 Z M108.960978,38.2969105 C108.960978,39.7950886 108.461585,40.793874 106.563893,40.793874 C105.914682,40.793874 105.664986,40.793874 104.865958,40.5441776 L104.865958,36.1994611 C105.864743,35.999704 105.964622,35.9497648 106.563893,35.9497648 C108.361706,35.999704 108.960978,36.8486716 108.960978,38.2969105 Z M100.920755,28.3589957 L100.920755,42.641627 C102.768508,43.4406553 104.816018,43.7902302 106.663771,43.7902302 C110.808731,43.7902302 113.055998,41.6428416 113.055998,38.0971534 C113.055998,34.9010401 111.058427,32.9034693 107.41286,32.9034693 C106.464014,32.9034693 105.914682,33.0033478 104.915897,33.2530442 L104.915897,28.3589957 L100.920755,28.3589957 L100.920755,28.3589957 Z M208.839518,43.4406553 L208.839518,28.5088135 L204.894316,28.5088135 L204.894316,34.151951 L200.449721,34.151951 L200.449721,28.5088135 L196.504518,28.5088135 L196.504518,43.4406553 L200.449721,43.4406553 L200.449721,37.3480643 L204.894316,37.3480643 L204.894316,43.4406553 L208.839518,43.4406553 L208.839518,43.4406553 Z M224.969902,43.4406553 C224.969902,43.4406553 222.822514,38.8462424 222.323121,37.847457 C221.72385,36.6988538 221.174518,35.8498862 219.975975,35.6001899 L219.975975,35.5502506 C220.775004,35.4004328 221.424214,34.9010401 222.123364,33.402862 C222.772574,31.9546231 222.972332,31.6050483 223.371846,31.3054126 C223.77136,30.9558377 224.270753,31.1056556 224.270753,31.1056556 L224.47051,28.408935 C223.921178,28.3589957 223.271967,28.3090564 222.622757,28.3589957 C221.574032,28.408935 221.0247,28.7085706 220.475368,29.2579026 C220.075854,29.6574167 219.776218,30.256688 219.426643,30.9558377 C219.077068,31.7049268 218.777433,32.304198 218.377919,33.1032264 C217.978404,33.9022547 217.828587,34.2518296 216.779862,34.2518296 L216.130651,34.2518296 L216.130651,28.5088135 L212.185449,28.5088135 L212.185449,43.4406553 L216.130651,43.4406553 L216.130651,37.3480643 L216.679983,37.3480643 C217.778647,37.3480643 217.978404,37.6476999 218.577676,38.7963032 C219.276826,40.1946027 220.625186,43.4406553 220.625186,43.4406553 L224.969902,43.4406553 L224.969902,43.4406553 Z M78.5979015,43.4406553 L83.1423751,43.4406553 L76.300695,22.5660404 C75.6015453,22.316344 74.7026384,22.1665262 73.7537923,22.1665262 C72.7050676,22.1665262 72.3554927,22.316344 71.5564644,22.5660404 L64.3152702,43.4406553 L68.6599867,43.4406553 C68.6599867,43.4406553 69.259258,41.5929023 69.9584077,39.3456351 L77.4492983,39.3456351 C78.0485695,41.6428416 78.5979015,43.4406553 78.5979015,43.4406553 L78.5979015,43.4406553 Z M71.0071324,35.8498862 C71.0071324,35.8498862 72.2556142,31.6549875 72.4553712,31.005777 C72.9547639,29.3078418 73.703853,26.6111212 73.703853,26.6111212 L73.8037315,26.6111212 C73.8037315,26.6111212 74.5028813,29.4077204 74.9523348,30.9558377 C75.1520918,31.555109 76.300695,35.7999469 76.300695,35.7999469 L71.0071324,35.7999469 L71.0071324,35.8498862 Z M157.851523,33.4528013 C156.453224,33.4528013 155.35456,34.6014045 155.35456,35.9497648 C155.35456,37.3480643 156.453224,38.4467283 157.851523,38.4467283 C159.249823,38.4467283 160.348487,37.3480643 160.348487,35.9497648 C160.348487,34.6014045 159.249823,33.4528013 157.851523,33.4528013 Z"/>
</svg>
