<svg xmlns="http://www.w3.org/2000/svg" width="268" height="51" viewBox="0 0 268 51">
  <g fill="#FFFFFF" transform="translate(.081)">
    <path d="M196.12853 14.4370875L215.598916 14.4370875 215.598916 18.5402598 214.174254 18.5402598C214.174254 18.5402598 214.015958 16.412689 211.641521 16.412689L208.317308 16.412689 208.317308 35.7127955 203.410138 35.7127955 203.410138 16.412689 199.92763 16.412689C198.02808 16.412689 197.553192 17.9323824 197.394896 18.5402598L195.970234 18.5402598M236.968853 14.4370875L240.451361 14.4370875 240.451361 35.7127955 235.702486 35.7127955 235.702486 20.6678306 224.146891 35.7127955 220.664383 35.7127955 220.664383 18.3882904C220.664383 15.9567809 218.448241 15.6528423 218.448241 15.6528423L218.448241 14.4370875 225.413258 14.4370875 225.413258 29.4820524M134.868045 35.7127955L128.852803 35.7127955 124.578816 27.8103897C124.578816 27.8103897 123.154153 25.3788802 121.887787 25.3788802L120.146533 25.3788802 120.146533 35.7127955 115.239362 35.7127955 115.239362 18.3882904C115.239362 15.9567809 112.864925 15.8048116 112.864925 15.8048116L112.864925 14.4370875 120.146533 14.4370875 120.146533 23.4032787 122.362674 23.4032787C122.362674 23.4032787 123.787337 23.2513094 124.895408 21.5796466 128.536212 15.8048116 128.21962 14.5890569 129.802578 14.5890569L134.551453 14.5890569 134.551453 16.1087503C131.227241 16.1087503 130.277466 22.4914627 127.111549 24.4670641 128.694507 25.0749415 129.327691 26.2906962 132.651903 32.3694699 132.651903 32.3694699 133.443382 34.4970407 135.184636 34.4970407M266.411877 31.3056845C264.195735 34.3450714 260.871523 36.3206728 256.43924 36.3206728 250.582294 36.3206728 244.883644 31.7615926 244.883644 26.1387269L244.883644 24.7710028C244.883644 18.5402598 250.107407 14.1331488 256.43924 14.1331488 262.929369 14.1331488 267.836539 19.1481371 267.836539 25.2269108L250.582294 25.2269108 250.582294 28.7222057C250.582294 31.7615926 253.115027 34.3450714 257.072423 34.3450714 260.396635 34.3450714 262.612777 32.9773473 264.354031 31.1537152L266.411877 31.3056845zM250.582294 22.7954014L262.13789 22.7954014 262.13789 21.731616C262.13789 18.6922291 259.605156 16.1087503 256.280944 16.1087503 253.115027 16.1087503 250.423998 18.5402598 250.423998 21.731616L250.423998 22.7954014 250.582294 22.7954014 250.582294 22.7954014zM155.92139 28.418267C155.92139 31.1537152 154.02184 33.737194 150.855923 33.8891634L150.539331 33.8891634C147.848302 33.8891634 145.473865 32.0655312 144.998978 29.9379604L144.998978 20.8197999C145.157273 18.6922291 147.531711 16.2607196 150.539331 16.2607196L151.489106 16.2607196C151.489106 16.2607196 155.92139 16.412689 156.237981 21.731616M151.489106 13.9811795C148.798077 13.9811795 146.265344 15.0449649 144.998978 16.5646583L144.998978 14.1331488 137.71737 14.1331488 137.71737 15.6528423C137.71737 15.6528423 139.933511 15.9567809 139.933511 18.3882904L139.933511 45.5908027 144.840682 45.5908027 144.840682 33.5852247C147.056823 36.0167341 150.064444 36.1687035 150.855923 36.1687035 157.02946 36.0167341 161.461744 31.4576539 161.461744 25.6828189L161.461744 24.3150948C161.620039 18.0843517 157.504348 13.9811795 151.489106 13.9811795M84.21338 28.2662977C84.21338 31.3056845 81.6806467 34.0411327 78.1981385 34.0411327 74.5573345 34.0411327 72.1828971 31.4576539 72.1828971 28.2662977L72.1828971 21.5796466C72.1828971 18.5402598 74.8739262 16.1087503 78.1981385 16.1087503 81.8389426 16.1087503 84.21338 18.5402598 84.21338 21.731616M78.0398427 13.9811795C69.6501639 13.9811795 66.3259515 20.2119225 66.3259515 24.3150948L66.3259515 26.1387269C66.3259515 30.8497765 71.2331222 36.0167341 78.0398427 36.0167341 84.5299716 36.0167341 89.9120297 31.3056845 89.9120297 25.8347882L89.9120297 24.3150948C90.0703256 19.3001065 85.4797466 13.9811795 78.0398427 13.9811795M192.804317 14.4370875L185.839301 14.4370875 185.839301 15.8048116C185.839301 15.8048116 188.213738 16.1087503 188.213738 18.5402598L188.213738 35.7127955 192.962613 35.7127955M172.22586 33.737194L172.22586 24.7710028 176.341551 24.7710028C178.557693 24.7710028 180.457243 26.4426656 180.457243 28.8741751L180.457243 29.7859911C180.457243 31.9135619 178.557693 33.737194 176.341551 33.737194L172.22586 33.737194zM172.22586 22.643432L172.22586 14.5890569 165.260843 14.5890569 165.260843 15.6528423C165.260843 15.6528423 167.476985 15.8048116 167.476985 18.2363211L167.476985 35.7127955 178.399397 35.7127955C182.673384 35.7127955 185.681005 33.281286 185.681005 29.7859911L185.681005 28.8741751C185.681005 24.9229721 182.83168 22.643432 178.082805 22.643432L172.22586 22.643432 172.22586 22.643432zM90.7035089 14.4370875L110.173896 14.4370875 110.173896 18.5402598 108.749233 18.5402598C108.749233 18.5402598 108.590937 16.412689 106.2165 16.412689L102.733992 16.412689 102.733992 35.7127955 97.8268211 35.7127955 97.8268211 16.412689 94.3443129 16.412689C92.444763 16.412689 91.9698755 17.9323824 91.8115797 18.5402598L90.3869172 18.5402598M43.8479441 26.4426656C43.8479441 32.6734086 40.5237317 37.9923356 35.2999694 40.7277838L34.1918986 41.1836918C33.875307 41.3356611 33.4004195 41.4876305 32.7672362 41.4876305 31.9757571 41.4876305 31.1842779 41.1836918 30.8676863 40.5758144 30.5510946 39.967937 30.5510946 39.512029 30.5510946 38.7521823 30.7093904 37.8403663 31.5008696 37.3844582 31.6591654 37.2324889 34.8250819 35.8647648 36.7246319 32.6734086 36.7246319 29.3300831L36.7246319 20.5158612C36.7246319 17.1725357 34.8250819 13.9811795 31.6591654 12.6134554 31.6591654 12.6134554 30.7093904 12.3095167 30.5510946 11.093762 30.3927988 10.4858846 30.5510946 10.0299766 30.7093904 9.42209923 31.0259821 8.81422186 31.6591654 8.51028317 32.6089404 8.51028317 32.925532 8.51028317 33.4004195 8.51028317 34.0336028 8.66225252L35.1416736 9.27012989C40.3654359 12.005578 43.6896483 17.4764744 43.6896483 23.5552481M20.7367533 37.3844582C20.8950492 37.5364276 21.6865283 37.9923356 21.8448241 38.9041516 22.00312 39.512029 21.8448241 39.967937 21.6865283 40.5758144 21.3699366 41.1836918 20.7367533 41.4876305 19.7869784 41.4876305 19.4703867 41.4876305 18.9954992 41.3356611 18.3623159 41.1836918L17.2542451 40.5758144C12.0304829 37.9923356 8.70627049 32.3694699 8.70627049 26.2906962L8.70627049 23.8591868C8.70627049 17.6284437 12.0304829 12.3095167 17.2542451 9.57406857L18.3623159 8.9661912C18.6789076 8.81422186 19.1537951 8.81422186 19.7869784 8.81422186 20.5784575 8.81422186 21.3699366 9.11816054 21.6865283 9.72603791 22.00312 10.3339153 22.00312 10.7898233 21.8448241 11.3977007 21.6865283 12.3095167 20.7367533 12.9173941 20.7367533 12.9173941 17.5708368 14.2851182 15.6712869 17.4764744 15.6712869 20.8197999L15.6712869 29.6340218C15.3546952 32.9773473 17.5708368 36.0167341 20.7367533 37.3844582M26.1188115 0C11.7138912 0 0 11.2457313 0 25.0749415 0 38.9041516 11.7138912 50.149883 26.1188115 50.149883 40.5237317 50.149883 52.3959187 38.9041516 52.3959187 25.0749415 52.3959187 11.2457313 40.6820275 0 26.1188115 0"/>
  </g>
</svg>
