<svg xmlns="http://www.w3.org/2000/svg" width="60" height="60" viewBox="0 0 60 60">
  <g fill="none" transform="translate(.648)">
    <path fill="#00B2D2" d="M29.9999999,60 C46.5685425,60 60,46.5685425 60,29.9999999 C60,13.4314575 46.5685425,0 29.9999999,0 C13.4314575,0 0,13.4314575 0,29.9999999 C0,46.5685425 13.4314575,60 29.9999999,60 Z"/>
    <path fill="#FFFFFF" d="M44.723925,31.5434457 C44.723925,36.6197748 42.015613,40.9532265 37.7596941,43.1818588 L36.8569234,43.5532976 C36.598989,43.6771105 36.2120873,43.8009234 35.6962183,43.8009234 C35.0513821,43.8009234 34.4065459,43.5532976 34.1486114,43.0580459 C33.890677,42.5627943 33.890677,42.1913556 33.890677,41.5722911 C34.0196442,40.8294136 34.6644804,40.4579749 34.7934476,40.334162 C37.3727924,39.2198459 38.9203993,36.6197748 38.9203993,33.8958909 L38.9203993,26.7147423 C38.9203993,23.9908584 37.3727924,21.3907874 34.7934476,20.2764712 C34.7934476,20.2764712 34.0196442,20.0288454 33.890677,19.0383421 C33.7617097,18.5430905 33.890677,18.1716518 34.0196442,17.6764002 C34.2775787,17.1811486 34.7934476,16.9335227 35.5672511,16.9335227 C35.8251855,16.9335227 36.2120873,16.9335227 36.7279562,17.0573357 L37.6307269,17.5525873 C41.8866457,19.7812196 44.5949577,24.2384842 44.5949577,29.1910005 M25.8947082,40.4579749 C26.0236754,40.5817878 26.6685116,40.9532265 26.7974789,41.696104 C26.9264461,42.1913556 26.7974789,42.5627943 26.6685116,43.0580459 C26.4105772,43.5532976 25.8947082,43.8009234 25.1209048,43.8009234 C24.8629703,43.8009234 24.4760686,43.6771105 23.9601996,43.5532976 L23.057429,43.0580459 C18.8015101,40.9532265 16.0931981,36.372149 16.0931981,31.4196328 L16.0931981,29.4386263 C16.0931981,24.3622971 18.8015101,20.0288454 23.057429,17.8002131 L23.9601996,17.3049615 C24.2181341,17.1811486 24.6050358,17.1811486 25.1209048,17.1811486 C25.765741,17.1811486 26.4105772,17.4287744 26.6685116,17.924026 C26.9264461,18.4192776 26.9264461,18.7907163 26.7974789,19.285968 C26.6685116,20.0288454 25.8947082,20.524097 25.8947082,20.524097 C23.3153634,21.6384132 21.7677566,24.2384842 21.7677566,26.9623681 L21.7677566,34.1435167 C21.5098221,36.8674006 23.3153634,39.3436588 25.8947082,40.4579749 M30.2795943,10 C18.5435756,10 9,19.1621551 9,30.4291295 C9,41.696104 18.5435756,50.858259 30.2795943,50.858259 C42.015613,50.858259 51.6881558,41.696104 51.6881558,30.4291295 C51.6881558,19.1621551 42.1445802,10 30.2795943,10"/>
  </g>
</svg>
