<svg xmlns="http://www.w3.org/2000/svg" width="269" height="50" viewBox="0 0 269 50">
  <g fill="none" transform="matrix(1 0 0 -1 0 50.716)">
    <polygon fill="#DD3B41" points="0 24.815 49.096 24.815 49.096 49.85 0 49.85"/>
    <polygon fill="#000000" points=".107 .762 49.206 .762 49.206 25.306 .107 25.306"/>
    <polygon fill="#FFFFFF" points="8.67 23.812 40.614 23.812 40.614 26.8 8.67 26.8"/>
    <path fill="#FFFFFF" d="M80.5290351 37.5925454C85.8715925 37.5925454 89.2259155 34.1011863 89.2259155 29.2767567 89.2259155 24.2529494 85.8715925 21.3600695 80.5290351 21.3600695L69.9019903 21.3600695 69.9019903 13.1479525 65.3743758 13.1479525 65.3743758 37.5925454 80.5290351 37.5925454zM80.7883299 25.400727C83.1334121 25.400727 84.6021333 27.0255332 84.6021333 29.211298 84.6021333 31.6217234 83.1334121 33.5473854 80.5290351 33.5473854L69.9019903 33.5473854 69.9019903 25.400727 80.7883299 25.400727 80.7883299 25.400727zM106.011846 12.4647351C98.2249217 12.4647351 91.7716452 17.6426645 91.7716452 25.400727 91.7716452 33.0581194 98.2249217 38.3389125 106.011846 38.3389125 113.835136 38.3389125 120.185318 33.0581194 120.185318 25.400727 120.185318 17.6426645 113.835136 12.4647351 106.011846 12.4647351M106.011846 34.1652596C100.337724 34.1652596 96.4593852 30.322017 96.4593852 25.400727 96.4593852 20.3475962 100.17679 16.6045619 106.011846 16.6045619 111.813422 16.6045619 115.491229 20.3791133 115.491229 25.400727 115.491229 30.322017 111.813422 34.1652596 106.011846 34.1652596M138.958213 12.4940587C130.776459 12.4940587 124.616188 17.6764906 124.616188 25.4308588 124.616188 33.0581194 130.869971 38.3389125 138.958213 38.3389125 143.783913 38.3389125 147.23348 36.9665898 150.334396 34.6914687L147.914619 31.1009404C145.669168 32.8334589 142.834936 34.1011863 139.089823 34.1011863 133.121195 34.1011863 129.407253 30.322017 129.407253 25.4308588 129.407253 20.3791133 133.156983 16.7353638 139.152165 16.7353638 142.898432 16.7353638 145.86312 17.9407496 148.113189 19.6620697L150.52373 16.079161C147.430895 13.7995374 143.783913 12.4940587 138.958213 12.4940587M189.668465 19.0803305L186.867713 13.1456436 181.976208 13.1456436 193.869595 37.5925454 198.624872 37.5925454 210.556356 13.1456436 205.666006 13.1456436 202.866408 19.0803305 189.668465 19.0803305 189.668465 19.0803305zM191.557184 23.0542595L200.979998 23.0542595 196.283599 32.9633372 191.557184 23.0542595 191.557184 23.0542595z"/>
    <polyline fill="#FFFFFF" points="234.538 13.148 234.538 23.606 218.538 23.606 218.538 13.148 214.007 13.148 214.007 37.593 218.538 37.593 218.538 27.615 234.538 27.615 234.538 37.593 239.071 37.593 239.071 13.148 234.538 13.148"/>
    <polyline fill="#FFFFFF" points="245.777 13.148 245.777 37.593 250.313 37.593 250.313 26.185 262.595 37.593 268.16 37.593 255.524 25.822 268.684 13.148 262.595 13.148 250.313 25.011 250.313 13.148 245.777 13.148"/>
    <path fill="#FFFFFF" d="M170.783587,28.6304823 L160.169356,28.6304823 L160.169356,33.7841679 L177.655013,33.7841679 L177.655013,37.6128641 L155.638048,37.6128641 L155.638048,13.1884746 L170.783587,13.1884746 C176.119563,13.1884746 179.797716,16.0904748 179.797716,20.9090167 C179.797716,25.9228954 176.119563,28.6304823 170.783587,28.6304823 M171.044498,17.2291321 L160.169356,17.2291321 L160.169356,24.5867077 L171.044498,24.5867077 C173.883348,24.5867077 175.497302,23.0894709 175.497302,20.9090167 C175.497302,18.5009002 174.214682,17.2291321 171.044498,17.2291321"/>
  </g>
</svg>
