<svg xmlns="http://www.w3.org/2000/svg" width="60" height="60" viewBox="0 0 60 60">
  <g fill="none" transform="translate(.612)">
    <path fill="#007346" d="M30,60 C46.5685425,60 60,46.5685425 60,30 C60,13.4314575 46.5685425,0 30,0 C13.4314575,0 0,13.4314575 0,30 C0,46.5685425 13.4314575,60 30,60 Z"/>
    <g fill="#FFFFFF" transform="translate(13 14)">
      <path d="M31.2896879,6.28205498 C31.0835957,5.97328472 30.8680333,5.67166917 30.642775,5.37653757 C30.5437877,5.24775287 30.4425454,5.12030968 30.3397249,4.99487875 C30.2844814,4.92668546 30.2290123,4.85893934 30.172416,4.7916404 L10.3623164,16.0891438 L0.752650296,10.609981 C0.622095209,11.0294257 0.508225921,11.4555778 0.410365978,11.8862016 C0.366622131,12.0804966 0.325809574,12.2756858 0.288830241,12.4724403 L10.3623164,18.2187867 L31.2896879,6.28205498 L31.2896879,6.28205498 Z"/>
      <path d="M33.9039464 13.0378856C33.6243465 11.2389243 33.0595098 9.49228189 32.2256708 7.8746477L10.3623164 20.3439578.0389942556 14.456306C.0191516865 14.7509904.00607362945 15.0483579.00133847089 15.3481847-.012641521 16.4533631.0829635852 17.5598831.284771534 18.6500813.651182613 20.6270159 1.35153511 22.458844 2.32201713 24.1019669 3.55000159 26.1929295 5.21204224 27.9773577 7.16563338 29.3573216 8.48065455 30.2858682 9.93434824 31.0301812 11.4629025 31.5576171 12.1296579 31.7883564 12.821442 31.9784032 13.5208926 32.1282048 14.5082859 32.3345734 15.5281488 32.4553091 16.5703347 32.484375L17.5198467 32.484375C18.0767916 32.4685005 18.6380207 32.4253487 19.2015045 32.3538017 21.5812599 32.0521861 23.8926938 31.2551072 25.9416645 30.013095 27.9207353 28.812446 29.6161475 27.2301382 30.9392862 25.3866836 32.3314227 23.4488764 33.3106986 21.2230922 33.7819597 18.8497423 33.8428403 18.5438787 33.8956035 18.2355555 33.9395727 17.9249966 34.0457757 17.1605611 34.1012446 16.3789095 34.1012446 15.5847372 34.1012446 15.4367242 34.0994407 15.2887112 34.0956076 15.1411454 34.0766669 14.4451268 34.012855 13.7428477 33.9039464 13.0378856L33.9039464 13.0378856zM25.6528199.990255952C25.0126715.618211268 24.3468181.287082557 23.6606709 0L10.3623164 7.58465854 4.43976043 4.20674322C4.01810583 4.66710381 3.62147994 5.15071717 3.25281402 5.65400599L10.3623164 9.71117115 25.6528199.990255952 25.6528199.990255952z"/>
      <path d="M28.8740806,3.40608697 C28.3998882,2.95444619 27.8990889,2.52918837 27.3755157,2.13433807 L10.3623164,11.8390253 L2.24197041,7.2061299 C1.93373413,7.74094414 1.65503623,8.29252721 1.40768056,8.85730178 L10.3623164,13.9635256 L28.8740806,3.40608697 L28.8740806,3.40608697 Z"/>
    </g>
  </g>
</svg>
