<svg xmlns="http://www.w3.org/2000/svg" width="259" height="49" viewBox="0 0 259 49">
  <g fill="#FFFFFF" transform="translate(.12)">
    <path d="M66.9879162 29.4807937C68.0563643 30.6091883 69.3385042 31.4298405 70.9411764 32.0453303 72.5438486 32.6608176 74.36021 32.9685624 76.6039522 32.9685624 77.6724003 32.9685624 78.7408485 32.8659825 79.5956075 32.7634 80.5572098 32.6608176 81.305123 32.4556551 82.0530362 32.1479102 82.800952 31.9427478 83.4420193 31.6350029 84.0830892 31.4298405 84.6173133 31.1220956 85.1515374 30.9169332 85.5789156 30.7117707L84.8310024 29.1730488C84.4036242 29.3782112 83.9762434 29.5833736 83.5488652 29.7885386 83.1214843 29.993701 82.6941061 30.096281 82.159882 30.3014459 81.625658 30.4040259 81.0914339 30.6091883 80.450364 30.6091883 79.8092966 30.7117707 79.0613834 30.7117707 78.2066244 30.7117707 76.6039522 30.7117707 75.214969 30.4040259 74.2533641 29.7885386 73.184916 29.1730488 72.4370028 28.3523966 71.7959329 27.4291644 71.2617088 26.4033498 70.8343306 25.1723702 70.6206415 23.8388132 70.4069523 22.4026712 70.3001065 20.9665317 70.3001065 19.3252273 70.3001065 18.0942502 70.4069523 16.7606907 70.5137956 15.4271312 70.6206415 14.0935716 70.9411764 12.965177 71.4754005 11.9393599 72.0096246 10.9135453 72.6506919 10.0928948 73.6122968 9.37482431 74.5738991 8.75933552 75.8560364 8.34900967 77.4587086 8.34900967 78.9545376 8.34900967 80.2366748 8.75933552 81.305123 9.47740577 82.3735712 10.1954755 83.0146411 11.4264526 83.335176 12.965177L85.0446915 12.965177 85.0446915 7.93868381C84.5104675 7.73352089 83.9762434 7.52835796 83.335176 7.32319503 82.6941061 7.1180321 82.0530362 7.01545064 81.305123 6.91286918 80.5572098 6.81028771 79.9161399 6.81028771 79.1682267 6.70770625 78.5271568 6.70770625 77.8860894 6.60512454 77.3518653 6.60512454 75.0012799 6.60512454 73.0780727 6.91286918 71.3685546 7.52835796 69.7658824 8.14384674 68.3768993 9.06707991 67.3084511 10.1954755 66.240003 11.3238726 65.4920898 12.7600121 64.9578657 14.4013165 64.4236416 16.0426209 64.2099525 17.9916678 64.2099525 20.043297 64.2099525 21.9923463 64.4236416 23.8388132 64.9578657 25.3775351 65.2784007 27.1214195 66.0263139 28.454979 66.9879162 29.4807937L66.9879162 29.4807937zM170.255663 31.7375841C171.5378 31.6350042 172.819937 31.2246768 173.781542 30.7117695 174.849991 30.0962822 175.704747 29.27563 176.238971 28.1472329 176.880041 27.0188383 177.200576 25.4801163 177.200576 23.531067 177.200576 22.0949275 176.986887 20.9665304 176.559506 19.9407158 176.132128 18.9149012 175.491058 18.1968314 174.529456 17.4787617 173.567851 16.8632719 172.392559 16.452947 170.89673 16.1452021 169.400904 15.8374573 167.584543 15.7348748 165.447644 15.7348748L163.203904 15.7348748 163.203904 9.6825687C163.203904 9.06707967 163.310747 8.65675381 163.631282 8.45159088 163.951817 8.24642796 164.486041 8.24642796 165.3408 8.24642796L168.546145 8.24642796C169.507747 8.24642796 170.362506 8.24642796 171.003576 8.34900942 171.644646 8.45159088 172.17887 8.55417235 172.499403 8.86191674 172.926783 9.16966138 173.247318 9.57998723 173.461007 10.0928943 173.674697 10.6058016 173.995231 11.3238714 174.208921 12.247106L175.597904 12.247106 175.597904 6.60512454 157.434283 6.60512454 155.938456 6.60512454 155.938456 7.42577625C156.045299 7.42577625 156.152145 7.52835771 156.47268 7.52835771 156.793215 7.63093917 157.006904 7.73352064 157.113748 7.8361021 157.220593 7.93868357 157.327439 8.14384649 157.434283 8.45159088 157.434283 8.75933527 157.541128 9.06707967 157.541128 9.47740577L157.541128 14.6064802 157.541128 23.9413944 157.541128 29.0704676C157.541128 29.4807924 157.541128 29.8911198 157.434283 30.0962822 157.434283 30.4040271 157.327439 30.6091895 157.113748 30.7117695 157.006904 30.814352 156.793215 31.0195144 156.47268 31.0195144 156.152145 31.1220968 156.045299 31.1220968 155.938456 31.1220968L155.938456 31.942749 165.875024 31.942749C167.477697 31.942749 168.86668 31.942749 170.255663 31.7375841L170.255663 31.7375841zM163.738128 29.8911198C163.524439 29.6859549 163.417593 29.4807924 163.417593 29.1730475 163.417593 28.8653051 163.310747 28.4549778 163.310747 27.9420705L163.310747 17.2735968 165.55449 17.2735968C167.584543 17.2735968 169.080369 17.7865041 169.935128 18.8123187 170.789887 19.8381334 171.217265 21.4794378 171.217265 23.7362295 171.217265 25.2749514 171.110419 26.4033485 170.789887 27.3265807 170.469352 28.2498154 170.148817 28.8653051 169.614593 29.3782125 169.080369 29.7885373 168.546145 30.0962822 168.011921 30.3014446 167.370851 30.4040271 166.729784 30.5066071 166.088714 30.5066071 165.447644 30.4040271 164.91342 30.4040271 164.592887 30.3014446 164.272352 30.1988622 163.951817 30.0962822 163.738128 29.8911198L163.738128 29.8911198zM141.660761 31.1220968C141.553915 31.1220968 141.447072 31.0195144 141.126537 31.0195144 140.806002 30.9169344 140.592313 30.814352 140.485467 30.7117695 140.378624 30.6091895 140.271778 30.4040271 140.164932 30.0962822 140.164932 29.7885373 140.058089 29.4807924 140.058089 29.0704676L140.058089 21.9923451 142.729209 21.9923451C144.118193 21.9923451 145.40033 21.8897651 146.682467 21.6846002 147.964607 21.4794378 149.033055 21.0691129 149.994657 20.5562056 150.95626 19.9407158 151.704176 19.2226461 152.2384 18.094249 152.772624 17.0684343 153.093156 15.6322948 153.093156 13.888408 153.093156 12.247106 152.772624 10.9135465 152.345243 9.99031433 151.811019 9.06707967 151.063106 8.24642796 150.208347 7.73352064 149.353588 7.22061332 148.285139 6.91286893 147.109848 6.81028746 145.934554 6.707706 144.75926 6.60512454 143.477123 6.60512454L134.502157 6.60512454 133.00633 6.60512454 133.00633 7.42577625C133.113176 7.42577625 133.220019 7.52835771 133.540554 7.52835771 133.861089 7.63093917 134.074778 7.73352064 134.181624 7.8361021 134.288468 7.93868357 134.395313 8.14384649 134.502157 8.45159088 134.502157 8.75933527 134.609002 9.06707967 134.609002 9.47740577L134.609002 28.9678851C134.609002 29.3782125 134.609002 29.7885373 134.502157 29.9936997 134.502157 30.3014446 134.395313 30.5066071 134.181624 30.6091895 134.074778 30.7117695 133.861089 30.9169344 133.540554 30.9169344 133.220019 31.0195144 133.113176 31.0195144 133.00633 31.0195144L133.00633 31.8401666 141.660761 31.8401666 141.660761 31.1220968 141.660761 31.1220968 141.660761 31.1220968zM140.164932 9.47740577C140.164932 9.27224284 140.164932 9.06707967 140.271778 8.86191674 140.271778 8.65675381 140.378624 8.55417235 140.485467 8.45159088 140.592313 8.34900942 140.806002 8.24642796 141.126537 8.24642796 141.447072 8.24642796 141.767607 8.14384649 142.301831 8.14384649 142.942899 8.14384649 143.583969 8.24642796 144.225036 8.34900942 144.866106 8.55417235 145.293484 8.86191674 145.827708 9.27224284 146.255089 9.6825687 146.575624 10.2980567 146.896156 11.016129 147.109848 11.7341987 147.216691 12.6574309 147.216691 13.6832455 147.216691 15.8374573 146.896156 17.4787617 146.255089 18.6071563 145.614019 19.7355534 144.438728 20.3510407 142.836055 20.3510407L140.164932 20.3510407 140.164932 9.47740577 140.164932 9.47740577 140.164932 9.47740577zM131.385795 26.0956036L129.676277 26.0956036C129.462587 27.1214183 129.248898 27.8394905 129.035209 28.4549778 128.82152 29.0704676 128.607828 29.4807924 128.18045 29.7885373 127.859915 30.0962822 127.325691 30.3014446 126.684624 30.3014446 126.043554 30.4040271 125.188795 30.4040271 124.013501 30.4040271 122.945053 30.4040271 122.090296 30.4040271 121.556072 30.3014446 120.915002 30.1988622 120.487624 30.0962822 120.167089 29.8911198 119.846554 29.6859549 119.632865 29.3782125 119.632865 29.0704676 119.526019 28.6601402 119.526019 28.2498154 119.526019 27.6343256L119.526019 19.6329709 123.051898 19.6329709C123.372433 19.6329709 123.692968 19.6329709 124.120347 19.6329709 124.547725 19.6329709 124.975106 19.7355534 125.402484 19.7355534 125.829865 19.7355534 126.257243 19.8381334 126.684624 19.9407158 127.112002 20.0432983 127.432537 20.1458782 127.753072 20.3510407L127.753072 17.0684343C127.432537 17.2735968 127.112002 17.3761792 126.684624 17.4787617 126.257243 17.5813416 125.829865 17.6839241 125.402484 17.6839241 124.975106 17.7865041 124.547725 17.7865041 124.120347 17.7865041 123.692968 17.7865041 123.372433 17.7865041 123.051898 17.7865041L119.526019 17.7865041 119.526019 9.37482431C119.526019 8.86191674 119.632865 8.45159088 119.739708 8.24642796 119.953397 8.04126503 120.273932 8.04126503 120.808156 8.04126503L123.692968 8.04126503C124.654571 8.04126503 125.50933 8.04126503 126.1504 8.14384649 126.791467 8.24642796 127.325691 8.34900942 127.646226 8.65675381 128.073604 8.9644982 128.394139 9.37482431 128.607828 9.88773187 128.82152 10.4006392 129.142052 11.1187089 129.355744 12.0419436L130.744725 12.0419436 130.744725 6.60512454 113.863243 6.60512454 112.367417 6.60512454 112.367417 7.42577625C112.47426 7.42577625 112.581106 7.52835771 112.901641 7.52835771 113.222173 7.63093917 113.435865 7.73352064 113.542708 7.8361021 113.649554 7.93868357 113.756397 8.14384649 113.863243 8.45159088 113.863243 8.75933527 113.970089 9.06707967 113.970089 9.47740577L113.970089 28.9678851C113.970089 29.3782125 113.970089 29.7885373 113.863243 29.9936997 113.863243 30.3014446 113.756397 30.5066071 113.542708 30.6091895 113.435865 30.7117695 113.222173 30.9169344 112.901641 30.9169344 112.581106 31.0195144 112.47426 31.0195144 112.367417 31.0195144L112.367417 31.8401666 131.385795 31.8401666 131.385795 26.0956036zM101.352439 31.7375841C102.634577 31.6350042 103.916714 31.2246768 104.878319 30.7117695 105.946767 30.0962822 106.801526 29.27563 107.442593 28.1472329 108.083663 27.0188383 108.404198 25.4801163 108.404198 23.531067 108.404198 22.0949275 108.190509 20.9665304 107.763128 19.9407158 107.33575 18.9149012 106.69468 18.1968314 105.733078 17.4787617 104.771473 16.8632719 103.596182 16.452947 102.100353 16.1452021 100.604526 15.8374573 98.7881623 15.7348748 96.651266 15.7348748L94.4075264 15.7348748 94.4075264 9.6825687C94.4075264 9.06707967 94.5143697 8.65675381 94.8349046 8.45159088 95.1554396 8.24642796 95.6896637 8.24642796 96.5444227 8.24642796L99.7497672 8.24642796C100.711369 8.24642796 101.566129 8.24642796 102.207198 8.34900942 102.848266 8.45159088 103.38249 8.55417235 103.703025 8.86191674 104.130406 9.16966138 104.450938 9.57998723 104.66463 10.0928943 104.878319 10.6058016 105.198854 11.3238714 105.412543 12.247106L106.801526 12.247106 106.801526 6.60512454 88.6379048 6.60512454 87.1420784 6.60512454 87.1420784 7.42577625C87.2489217 7.42577625 87.3557675 7.52835771 87.6763025 7.52835771 87.9968349 7.63093917 88.2105266 7.73352064 88.3173699 7.8361021 88.4242157 7.93868357 88.531059 8.14384649 88.6379048 8.45159088 88.6379048 8.75933527 88.7447507 9.06707967 88.7447507 9.47740577L88.7447507 9.99031185 88.7447507 14.5038977 88.7447507 23.7362295 88.7447507 27.5317456C88.7447507 27.5317456 88.7447507 27.5317456 88.7447507 27.6343256L88.7447507 28.9678851C88.7447507 29.3782125 88.7447507 29.6859549 88.6379048 29.9936997 88.6379048 30.3014446 88.531059 30.5066071 88.3173699 30.6091895 88.2105266 30.7117695 87.9968349 30.9169344 87.6763025 30.9169344 87.3557675 31.0195144 87.2489217 31.0195144 87.1420784 31.0195144L87.1420784 31.942749 97.0786468 31.942749C98.681319 31.942749 99.9634563 31.942749 101.352439 31.7375841L101.352439 31.7375841zM94.8349046 29.8911198C94.6212155 29.6859549 94.5143697 29.4807924 94.5143697 29.1730475 94.5143697 28.8653051 94.4075264 28.4549778 94.4075264 27.9420705L94.4075264 17.2735968 96.651266 17.2735968C98.681319 17.2735968 100.177145 17.7865041 101.031904 18.8123187 101.886663 19.8381334 102.314042 21.4794378 102.314042 23.7362295 102.314042 25.2749514 102.207198 26.4033485 101.886663 27.3265807 101.566129 28.2498154 101.245594 28.8653051 100.711369 29.3782125 100.177145 29.7885373 99.6429213 30.0962822 99.1086972 30.3014446 98.4676299 30.4040271 97.82656 30.5066071 97.1854901 30.5066071 96.5444227 30.4040271 96.1170419 30.4040271 95.6896637 30.3014446 95.3691287 30.1988622 95.0485937 30.0962822 94.8349046 29.8911198z"/>
    <rect width="193.71" height="2.462" x="64.21" y="39.631"/>
    <path d="M242.389994 22.1975095C242.924218 22.9155792 243.351599 23.5310665 243.885823 24.1465563 244.313201 24.7620461 244.847425 25.3775334 245.274806 25.9930232 245.702185 26.6085105 246.129563 27.2240002 246.663787 27.83949 247.198011 28.5575598 247.625392 29.1730495 248.05277 29.8911193 248.480151 30.5066066 248.800683 31.2246788 249.121218 31.8401661L258.096184 31.9427486C257.134582 31.0195139 256.279823 30.0962817 255.318218 29.1730495 254.463459 28.2498149 253.715546 27.4291627 253.181322 26.9162553 252.326563 25.9930232 251.578649 25.172371 250.937582 24.4543012 250.189666 23.633649 249.548599 22.9155792 248.907529 22.1975095 248.266459 21.4794373 247.625392 20.6587851 247.091168 19.9407153 246.556944 19.2226456 245.915874 18.2994134 245.38165 17.4787612L245.80903 16.9658539C246.450098 16.1452017 247.198011 15.3245494 248.05277 14.2987348 248.907529 13.2729202 249.762288 12.2471055 250.72389 11.3238709 251.685495 10.2980562 252.540254 9.37482431 253.501857 8.55417235 254.463459 7.73352064 255.211375 7.11803186 255.959288 6.60512454L249.762288 6.60512454C249.548599 7.11803186 249.228064 7.73352064 248.800683 8.45159088 248.373305 9.16966138 247.945927 9.99031383 247.304857 10.8109636 246.770633 11.6316158 246.129563 12.5548504 245.595339 13.4780826 244.954271 14.4013173 244.420047 15.221967 243.778977 16.0426192 243.137907 16.8632714 242.603683 17.6839236 242.069459 18.2994134 241.535235 19.0174831 241.107857 19.5303905 240.787322 20.0432978 241.321546 20.7613675 241.85577 21.4794373 242.389994 22.1975095L242.389994 22.1975095zM240.268903 31.1220968C240.162057 31.1220968 240.055214 31.0195144 239.734679 31.0195144 239.414144 30.9169344 239.200455 30.814352 239.093609 30.7117695 238.986765 30.6091895 238.87992 30.4040271 238.773076 30.0962822 238.773076 29.7885373 238.66623 29.4807924 238.66623 29.0704676L238.66623 9.57998723C238.66623 9.16966138 238.66623 8.75933527 238.773076 8.55417235 238.773076 8.24642796 238.87992 8.04126503 239.093609 7.93868357 239.200455 7.8361021 239.414144 7.73352064 239.734679 7.63093917 240.055214 7.52835771 240.162057 7.52835771 240.268903 7.52835771L240.268903 6.60512454 233.110301 6.60512454 231.614472 6.60512454 231.614472 7.42577625C231.721317 7.42577625 231.828161 7.52835771 232.148696 7.52835771 232.469231 7.63093917 232.68292 7.73352064 232.789766 7.8361021 232.896609 7.93868357 233.003455 8.14384649 233.110301 8.45159088 233.110301 8.75933527 233.217144 9.06707967 233.217144 9.47740577L233.217144 28.9678851C233.217144 29.3782125 233.217144 29.7885373 233.110301 29.9936997 233.110301 30.3014446 233.003455 30.5066071 232.789766 30.6091895 232.68292 30.7117695 232.469231 30.9169344 232.148696 30.9169344 231.828161 31.0195144 231.721317 31.0195144 231.614472 31.0195144L231.614472 31.8401666 240.268903 31.8401666 240.268903 31.1220968 240.268903 31.1220968zM184.319669 28.7627237C184.640204 27.3265817 185.281274 25.2749524 186.136033 22.7104158L194.576772 22.7104158 195.752066 25.9930222C196.28629 27.4291641 196.713668 28.6601412 196.92736 29.6859559 197.247892 30.7117705 197.461584 31.4298402 197.461584 31.9427476L204.192808 31.9427476C203.872273 31.4298402 203.551738 30.7117705 203.12436 29.8911183 202.696979 29.0704661 202.162755 27.839489 201.628531 26.3007671L195.538377 9.68256795C195.217842 8.9644982 195.110996 8.34900942 195.004153 7.8361021 194.897307 7.32319478 194.897307 6.91286893 194.790461 6.60512454L187.204481 6.60512454 187.204481 7.42577625C187.311324 7.42577625 187.41817 7.52835771 187.738705 7.52835771 188.059237 7.63093917 188.272929 7.73352064 188.379772 7.8361021 188.486618 7.93868357 188.593461 8.14384649 188.700307 8.45159088 188.700307 8.65675381 188.700307 8.75933527 188.700307 8.9644982 188.700307 9.57998723 188.593461 10.1954753 188.379772 10.6058026L184.10598 20.6587866C183.358066 22.5052534 182.610153 24.1465553 182.075929 25.3775349 181.541705 26.6085119 181.007481 27.736909 180.686946 28.5575588 180.259565 29.378211 179.939033 30.0962807 179.618498 30.609188 179.297963 31.1220954 179.084274 31.5324227 178.870582 31.9427476L183.678601 31.9427476C183.785445 31.2246778 183.999134 30.1988632 184.319669 28.7627237L184.319669 28.7627237zM190.409825 10.7083826L193.935705 20.9665314 186.670257 20.9665314 190.409825 10.7083826z"/>
    <path d="M212.750352 31.1220968L212.536663 31.1220968C212.429817 31.1220968 212.322971 31.0195144 212.002438 31.0195144 211.681903 30.9169344 211.468214 30.814352 211.361369 30.7117695 211.254523 30.6091895 211.147679 30.4040271 211.040834 30.0962822 211.040834 29.7885373 210.93399 29.4807924 210.93399 29.0704676L210.93399 19.325226 221.191094 19.325226 221.191094 28.9678851C221.191094 29.3782125 221.191094 29.7885373 221.084248 29.9936997 221.084248 30.3014446 220.977402 30.5066071 220.763713 30.6091895 220.65687 30.7117695 220.443178 30.9169344 220.122645 30.9169344 219.80211 31.0195144 219.695265 31.0195144 219.588421 31.0195144L219.588421 31.8401666 228.24285 31.8401666 228.24285 31.0195144C228.136007 31.0195144 228.029161 30.9169344 227.708626 30.9169344 227.388093 30.814352 227.174402 30.7117695 227.067558 30.6091895 226.960713 30.5066071 226.853869 30.3014446 226.747023 29.9936997 226.747023 29.6859549 226.640178 29.3782125 226.640178 28.9678851L226.640178 23.9413944 226.640178 23.7362295 226.640178 14.5038977 226.640178 14.4013153 226.640178 9.37482431C226.640178 8.9644982 226.640178 8.55417235 226.747023 8.34900942 226.747023 8.04126503 226.853869 7.8361021 227.067558 7.73352064 227.174402 7.63093917 227.388093 7.52835771 227.708626 7.42577625 228.029161 7.32319478 228.136007 7.32319478 228.24285 7.32319478L228.24285 6.60512454 221.084248 6.60512454 219.80211 6.60512454 219.80211 7.42577625C219.908954 7.42577625 220.0158 7.52835771 220.336335 7.52835771 220.65687 7.63093917 220.870559 7.73352064 220.977402 7.8361021 221.084248 7.93868357 221.191094 8.14384649 221.297937 8.45159088 221.297937 8.75933527 221.404783 9.06707967 221.404783 9.47740577L221.404783 17.5813416 211.147679 17.5813416 211.147679 9.47740577C211.147679 9.06707967 211.147679 8.65675381 211.254523 8.45159088 211.254523 8.14384649 211.361369 7.93868357 211.575058 7.8361021 211.681903 7.73352064 211.895593 7.63093917 212.216128 7.52835771 212.536663 7.42577625 212.643506 7.42577625 212.750352 7.42577625L212.750352 6.60512454 205.591747 6.60512454 204.095921 6.60512454 204.095921 7.42577625C204.202766 7.42577625 204.30961 7.52835771 204.630145 7.52835771 204.95068 7.63093917 205.164369 7.73352064 205.271215 7.8361021 205.378058 7.93868357 205.484904 8.14384649 205.591747 8.45159088 205.591747 8.75933527 205.698593 9.06707967 205.698593 9.47740577L205.698593 10.0928943 205.698593 27.6343256 205.698593 27.736908 205.698593 29.0704676C205.698593 29.4807924 205.698593 29.7885373 205.591747 30.0962822 205.591747 30.4040271 205.484904 30.6091895 205.271215 30.7117695 205.164369 30.814352 204.95068 31.0195144 204.630145 31.0195144 204.30961 31.1220968 204.202766 31.1220968 204.095921 31.1220968L204.095921 31.942749 212.750352 31.942749 212.750352 31.1220968zM46.1569649 10.9610437C45.6227408 10.2429732 45.0885167 9.52490296 44.5542926 8.80683272L14.9582754 25.1172879.641068944 17.2185132C.320534472 18.1417479.106844815 18.9623976 0 19.8856323L15.0651202 28.1947318 46.1569649 10.9610437z"/>
    <path d="M15.4924995,31.1620077 L0.106844826,22.6477457 C0,23.160653 0,23.7761403 0,24.2890477 C0,37.7272204 11.3255515,48.703439 25.4290684,48.703439 C39.425741,48.703439 50.8581358,37.8298028 50.8581358,24.2890477 C50.8581358,20.2883716 49.8965335,16.4928554 48.0801721,13.2102491 L15.4924995,31.1620077 Z"/>
    <path d="M41.0284121,6.24988295 C40.2804989,5.53181271 39.5325857,5.01890539 38.7846725,4.40341636 L13.4624479,18.4570774 L1.28213786,11.7892822 C0.854758601,12.507352 0.427379288,13.3280042 0,14.1486564 L13.355603,21.5345213 L41.0284121,6.24988295 Z"/>
    <path d="M38.028855,1.43614074 C37.0672527,0.923233421 36.1056478,0.410325855 35.0371997,0 L15.2709075,10.9762174 L6.40278704,6.15488857 C5.76171815,6.77037735 5.22749407,7.48844759 4.58642518,8.20651784 L15.1640627,14.0536613 L38.028855,1.43614074 Z"/>
  </g>
</svg>
