<svg xmlns="http://www.w3.org/2000/svg" width="60" height="60" viewBox="0 0 60 60" xmlns:xlink="http://www.w3.org/1999/xlink">
  <defs>
    <path id="a" d="M30,60 C46.5685425,60 60,46.5685425 60,30 C60,13.4314575 46.5685425,0 30,0 C13.4314575,0 0,13.4314575 0,30 C0,46.5685425 13.4314575,60 30,60 Z"/>
  </defs>
  <g fill="none" fill-rule="evenodd">
    <mask id="b" fill="white">
      <use xlink:href="#a"/>
    </mask>
    <use fill="#272725" fill-rule="nonzero" xlink:href="#a"/>
    <g fill-rule="nonzero" transform="translate(10 12)" mask="url(#b)">
      <path fill="#FFFFFF" d="M16.4556619,5.40621718 L16.4381389,5.41029798 L16.4531587,5.39040404 L16.4556619,5.40621718 L16.4556619,5.40621718 L16.4556619,5.40621718 Z M40.0336997,17.3145252 L40.558891,15.601096 L38.8206028,15.657207 C38.6739096,15.657207 37.6065045,15.6255808 36.570641,14.8609394 C36.6482431,14.8675708 36.7248439,14.879303 36.8044488,14.879303 C37.8703519,14.879303 38.9027109,14.2253535 39.3157545,13.2893182 L40.0632386,11.5993535 C39.1250035,11.612106 38.2678752,11.4912122 38.2678752,11.4912122 C38.260866,11.490702 37.5849763,11.4014343 36.8039481,10.5878232 C36.2437106,10.0052879 35.5502978,9.69667677 34.7993092,9.69667677 C34.4703762,9.69667677 34.1764893,9.75737879 33.9236565,9.83899495 C33.9632086,9.70177778 33.9997567,9.5630303 34.0222864,9.41969192 C34.2606001,7.83786869 33.2622859,6.6319899 33.2622859,6.6330101 L31.9540638,4.98334343 L31.1434967,6.92121718 C31.1409935,6.92733838 30.9357232,7.38183838 30.5702421,7.60322222 C30.4600972,7.03343939 30.1882393,6.39326263 29.6084761,5.78114141 C28.514536,4.62780303 27.1832836,4.45487879 26.4868669,4.45487879 C26.1639418,4.45487879 25.9331379,4.49109596 25.8775648,4.50027778 L24.2994875,4.8165404 C24.391108,4.4574293 24.5848631,3.83102526 24.9393297,3.26838384 L25.8099758,1.8865202 L23.6190917,2.1400404 L22.9206724,0.630141414 L21.5693936,1.34020202 L20.3192479,0.0822929295 L19.0736082,1.34020202 L17.7183241,0.630141414 L17.0219074,2.1400404 L14.8315239,1.8855 L15.7036721,3.26889394 C16.0586393,3.83102526 16.2518937,4.45589899 16.3420124,4.8139899 L14.8360299,4.5115 L14.784462,4.50333838 C14.7088625,4.49109596 14.4800613,4.45487879 14.1556342,4.45487879 C13.4597181,4.45487879 12.1284657,4.62780303 11.037029,5.78063131 C10.4562644,6.39224242 10.1839059,7.03343939 10.0727596,7.60322222 C9.70928113,7.38387878 9.50601356,6.93652021 9.50601356,6.93652021 L8.69394456,4.98742425 L7.36619674,6.64729293 C7.20348255,6.86102526 6.40342937,7.99497979 6.62071539,9.42173232 C6.64324505,9.56405051 6.67979316,9.70177778 6.71884457,9.83899495 C6.46701307,9.75686868 6.17312619,9.69667677 5.84469386,9.69667677 C5.0932046,9.69667677 4.39979181,10.0052879 3.838553,10.5878232 C3.05952751,11.3978636 2.38814371,11.4896818 2.39365096,11.4896818 C2.39365096,11.4896818 1.68271509,11.6202677 0.583267804,11.5993535 L1.3267465,13.2893182 C1.74079155,14.2253535 2.77365119,14.879303 3.83755168,14.879303 C3.91765713,14.879303 3.99425797,14.8675708 4.07286145,14.8609394 C3.03950114,15.6255808 1.97209603,15.657207 1.84292599,15.6577172 L0.0730962227,15.601096 L0.609802734,17.3140151 C0.879657967,18.197 1.78084428,19.6594596 3.50711671,19.8170808 C3.31987022,20.6189596 2.90332188,21.5182677 1.98911844,21.9049242 L0.66988182,22.4583839 L1.38932889,23.7346565 C1.79486273,24.4227828 2.74811757,25.2277222 4.10440297,25.2277222 C4.39778918,25.226702 4.6811622,25.1966061 4.95452205,25.1374343 C5.02411366,25.4516566 5.11122834,25.766899 5.2143641,26.0795909 C5.61789531,27.3048535 5.26993725,28.1587626 5.26643264,28.1684545 L4.61507521,29.5579697 L6.06848846,29.9481969 C6.08651218,29.953808 6.52559017,30.0772525 7.07531382,30.0772525 C7.32464203,30.0772525 7.56345641,30.0507273 7.78624969,29.9961465 C7.95497179,29.9558485 8.11768598,29.9027979 8.27389161,29.8380152 C8.46213941,30.1818233 8.69043995,30.4955353 8.95679057,30.776601 C9.88801642,31.7503838 11.2082544,32.2436515 12.8799549,32.2436515 L12.8849616,32.2436515 L14.0785327,32.2278383 L11.6127869,33.2725253 L13.4847511,34.1942778 C14.1651467,34.5319647 14.9712079,34.9313737 15.7927894,35.2369242 L15.5589816,35.8883232 L16.2038304,36.1882626 C16.2614062,36.2147879 17.50254,36.7799798 19.5647547,36.9003637 C19.5647547,36.9003637 20.0624098,36.9238282 20.336771,36.9238282 C20.6106314,36.9238282 21.1027793,36.8988334 21.1027793,36.8988334 C23.1514763,36.7753889 24.3825969,36.2147879 24.4401726,36.1882626 L25.0870241,35.8878131 L24.8512137,35.2353939 C25.6953249,34.9206616 26.5319262,34.5054394 27.1837843,34.1805051 L29.0212031,33.2715051 L26.5634677,32.2278383 L27.7620455,32.2436515 C29.4357487,32.2436515 30.7559866,31.7498738 31.6857105,30.7750707 C31.9510599,30.4965556 32.1788597,30.1833536 32.3681088,29.8380152 C32.5248151,29.9027979 32.6885306,29.9558485 32.8577534,29.9971666 C33.080046,30.0507273 33.3188603,30.0772525 33.567688,30.0772525 C34.107899,30.0772525 34.5519837,29.9553384 34.5634988,29.9512576 L36.0234206,29.5579697 L35.3875836,28.1939596 C35.3725638,28.1587626 35.0246058,27.3048535 35.428137,26.0785708 C35.5307721,25.7658788 35.6173862,25.4511465 35.6879791,25.1374343 C35.9618395,25.1966061 36.2477159,25.226702 36.5436054,25.2277222 C38.2718804,25.2277222 39.1004712,23.989197 39.2606821,23.7203737 L39.9726193,22.4573636 L38.654384,21.9059444 C37.7376772,21.5182677 37.3221302,20.6194697 37.1363857,19.8181011 C38.8401285,19.6671112 39.7538312,18.2031212 40.0336997,17.3145252 L40.0336997,17.3145252 L40.0336997,17.3145252 Z"/>
      <path fill="#FFFFFF" d="M20.3197485 5.32970202C18.9234104 5.33123232 17.8760317 5.79695454 17.6487324 6.34582323L20.3197485 7.42009596 22.9917659 6.34582323C22.765468 5.79695454 21.7180893 5.33123232 20.3197485 5.32970202M20.3477855 33.7617121L20.294215 33.7617121C19.4481011 33.7673233 18.2820662 33.5908282 17.7218287 33.4240253L17.045939 35.2853838C17.4910248 35.4470859 19.0000113 35.7567172 20.3227526 35.7567172 21.6419891 35.7567172 23.1514763 35.4470859 23.5960615 35.2853838L22.9216737 33.4240253C22.3584323 33.5908282 21.1938992 33.7673233 20.3477855 33.7617121M25.4590138 31.9090252C24.9563521 32.1987626 23.8338745 32.6343889 23.1815157 32.8363889L23.7292368 34.3743434C24.739066 34.0932778 25.5731641 33.7652828 26.2610697 33.4133131L25.1235722 33.0281868 25.4590138 31.9090252M15.1829866 31.9090252L15.5194295 33.0281868 14.3809308 33.4133131C15.0683357 33.7652828 15.9054377 34.0932778 16.9117623 34.3743434L17.4604847 32.8363889C16.8091272 32.6343889 15.6851476 32.1987626 15.1829866 31.9090252M20.3197485 3.5494495C21.3726346 3.5494495 22.4044928 3.8060303 23.1985382 4.2564495 23.2711337 4.0090505 23.3727675 3.70809091 23.5104487 3.39233838L23.2100534 3.42906565 22.8951388 3.46273232 22.7619635 3.17044445 22.3599342 2.30633333 21.6284714 2.69503031 21.3435964 2.84244949 21.1152958 2.61392424 20.3197485 1.81204546 19.5257033 2.61392424 19.2989047 2.84244949 19.0140297 2.69503031 18.2780609 2.30633333 17.8820396 3.17044445 17.7458604 3.46273232 17.4314465 3.42906565 17.1320523 3.39233838C17.2697336 3.70809091 17.3703661 4.0090505 17.4439629 4.2564495 18.2410122 3.8060303 19.2718692 3.5494495 20.3197485 3.5494495M36.391405 13.5367172C36.528085 13.5846666 36.6667675 13.6060909 36.8044488 13.6060909 37.400233 13.6060909 37.9754903 13.2133131 38.1732506 12.7649344 38.1732506 12.7649344 37.0823146 12.697601 35.9077683 11.4830505 35.533776 11.0897626 35.1382554 10.9719293 34.7988086 10.9719293 34.2716146 10.9719293 33.876094 11.2550354 33.876094 11.2550354 35.294461 12.0247778 35.583842 13.2587121 36.391405 13.5367172M3.83705103 13.6060909C3.97473227 13.6060909 4.11391549 13.5846666 4.24759146 13.5362071 5.05715716 13.2587121 5.34904138 12.0247778 6.76540586 11.2555454 6.76540586 11.2555454 6.36888389 10.9719293 5.84469386 10.9719293 5.50324437 10.9719293 5.10822438 11.0897626 4.73273009 11.4835607 3.56018657 12.697601 2.46925048 12.7654444 2.46925048 12.7654444 2.66500817 13.2133131 3.24176741 13.6060909 3.83705103 13.6060909"/>
      <path fill="#FFFFFF" d="M35.9633415 22.398192C34.8663975 21.8467728 34.1729848 20.383803 34.0057646 19.8568687 33.8235248 22.7583233 32.4336952 24.7711818 30.8090566 26.7095656 29.9659467 27.7144647 29.6715591 28.6913081 29.6715591 28.6913081 29.6715591 28.6913081 29.8342733 27.5843889 30.5632329 26.6835505 32.0792285 24.8283131 33.5201253 22.5175555 33.6272663 19.8466666 33.7008633 17.9817374 33.2307444 16.470308 32.4962776 15.2241313 32.9073186 16.5218283 32.8487415 18.1107929 31.454406 19.5941666 31.454406 19.5941666 34.2310611 16.2045454 30.3489509 12.7292273 28.7959064 11.4065353 27.0951676 10.5898636 26.2205163 10.0114091 29.3821781 11.0622172 30.9262108 9.90530808 30.9262108 9.90530808 29.916882 10.7969646 28.6096613 10.7816616 27.7985936 10.6531162 28.0188836 10.7622778 28.2476847 10.8765404 28.4935084 11.0112071 31.1595178 12.4864192 33.5551715 14.9139899 33.9637092 18.2755556L33.9637092 18.2500505C34.5835251 21.5509142 35.9633415 22.398192 35.9633415 22.398192M36.7754105 18.5520303C36.7999429 18.5535606 36.8209705 18.5535606 36.8460034 18.5535606 38.3319596 18.5535606 38.8356225 16.9319495 38.8356225 16.9319495L38.8065843 16.9319495C38.5337252 16.9319495 36.3243167 16.8666565 34.7627611 14.8441061 33.7349081 13.5142728 32.8917982 12.3451212 31.2286089 11.8850101L31.0643926 11.8554243 31.0288459 11.6855607C30.9827852 11.4269394 31.1575152 11.1836212 31.5525352 10.9219394 33.8490583 9.39010607 32.2890047 7.43590909 32.2890047 7.43590909 32.2890047 7.43590909 31.633642 8.99834848 30.1667109 8.99834848 30.1311642 8.99834848 30.0941153 8.99630808 30.0575672 8.99630808 29.8913485 8.98763636 29.7301363 8.98151515 29.5684234 8.94631818L29.2980675 8.89275758C29.2980675 8.89275758 29.7166184 7.73329798 28.7067892 6.66922728 27.946288 5.86581819 27.02107 5.72911111 26.4868669 5.72911111 26.2175123 5.72911111 26.0467875 5.76430808 26.0467875 5.76430808 26.5539552 6.43968182 26.9204376 7.56088383 26.3351671 8.25258081 25.8290009 8.84684849 24.5928736 8.87541415 24.5928736 9.7614596 24.5928736 10.1368939 24.9368264 10.5745606 25.5546397 10.9678485 27.4125854 12.1599545 29.2570134 13.7422879 30.0250244 15.8622677 30.9827852 18.5061212 29.9028636 20.2618888 28.3618351 21.2683182 28.3618351 21.2683182 28.8454716 21.721798 29.5458938 21.7799495 29.6890822 21.7937222 29.8282655 21.8003535 29.9579361 21.8003535 31.4378843 21.8003535 32.203392 21.0933535 32.203392 21.0933535 32.203392 21.0933535 32.0767253 22.0701969 31.3072122 22.9771566 30.5962764 23.8142323 29.6645499 24.3080101 28.2416768 24.3284142 28.2416768 24.3284142 28.1966176 25.0007273 28.8264466 25.5832626 29.2299778 25.9505353 30.1602024 26.069899 30.1602024 26.069899 30.1602024 26.069899 28.4174082 26.4300303 28.2251551 29.0529697 28.1205173 30.4741111 27.7640482 30.9678889 27.7640482 30.9678889L27.795089 30.9678889C31.8399135 30.9678889 31.7367777 27.433399 31.7367777 27.433399 31.7367777 27.433399 32.0176475 28.4801262 33.146133 28.7530303 33.2823122 28.7892474 33.428004 28.8035303 33.5666866 28.8035303 33.9296644 28.8035303 34.2455803 28.716303 34.2455803 28.716303 34.2455803 28.716303 33.654302 27.4466616 34.2405737 25.6704899 34.7267136 24.196298 34.6486108 23.1041718 34.6486108 23.1041718 34.6486108 23.1041718 35.1928272 23.943798 36.5446067 23.9514495L36.5581245 23.9514495C37.6831054 23.9514495 38.1732506 23.0827475 38.1732506 23.0827475 35.4767009 21.9416515 35.7430516 18.2607627 35.7430516 18.2607627 35.7430516 18.2607627 36.0930122 18.5270354 36.7754105 18.5520303M9.8319426 26.7095656C8.20730395 24.7711818 6.81797507 22.7583233 6.63423319 19.8568687 6.4665124 20.383803 5.7756029 21.8467728 4.67915956 22.398192 4.67915956 22.398192 6.05747395 21.5509142 6.67678921 18.2500505L6.67678921 18.2755556C7.08682898 14.9145 9.48198192 12.4864192 12.1484921 11.0117172 12.3928137 10.8760303 12.6236175 10.7622778 12.8424056 10.6536262 12.0318385 10.7816616 10.7246177 10.7969646 9.7157897 9.90530808 9.7157897 9.90530808 11.2598222 11.0622172 14.4204829 10.0114091 13.5458315 10.5903738 11.8465947 11.4065353 10.2935503 12.7292273 6.41043859 16.2045454 9.1875944 19.5946768 9.1875944 19.5946768 7.79125627 18.1107929 7.73518247 16.5223384 8.14572289 15.2241313 7.41025473 16.470308 6.94013587 17.9817374 7.01573539 19.8466666 7.12187511 22.5175555 8.56227123 24.827803 10.0752629 26.6840606 10.8077271 27.5843889 10.972444 28.690798 10.972444 28.690798 10.972444 28.690798 10.6745518 27.7144647 9.8319426 26.7095656M10.4817981 26.069899C10.4817981 26.069899 11.4125233 25.9510454 11.8165551 25.5832626 12.4458835 25.0007273 12.4008243 24.3284142 12.4008243 24.3284142 10.9774505 24.3080101 10.0462247 23.8142323 9.33128355 22.9776667 8.5662765 22.0701969 8.4391091 21.0933535 8.4391091 21.0933535 8.4391091 21.0933535 9.20411614 21.8003535 10.6820617 21.8003535 10.8147364 21.8003535 10.9529182 21.7937222 11.0956061 21.7799495 11.7970294 21.721798 12.282168 21.2688283 12.282168 21.2688283 10.7396374 20.2618888 9.65921523 18.5066313 10.6164753 15.8622677 11.3839857 13.742798 13.227913 12.1599545 15.0868601 10.9673384 15.7041727 10.5745606 16.0476248 10.1368939 16.0476248 9.7614596 16.0476248 8.87541415 14.8129996 8.84684849 14.307334 8.25258081 13.7220634 7.56088383 14.0885459 6.43968182 14.5947122 5.76430808 14.5947122 5.76430808 14.4259901 5.72911111 14.1551336 5.72911111 13.6214311 5.72911111 12.6967137 5.86581819 11.9362126 6.66922728 10.9243807 7.73329798 11.343933 8.89275758 11.343933 8.89275758L11.0735771 8.94631818C10.9123648 8.98100505 10.7496506 8.98763636 10.5839325 8.99681818 10.5458824 8.99681818 10.5123383 8.99834848 10.4767915 8.99834848 9.00585515 8.99834848 8.35399705 7.43641919 8.35399705 7.43641919 8.35399705 7.43641919 6.79494475 9.39010607 9.09046653 10.9219394 9.48548653 11.1836212 9.65921523 11.4269394 9.6131546 11.6855607L9.57760779 11.8549142 9.41088833 11.8850101C7.74970158 12.3451212 6.90609106 13.5142728 5.8772367 14.8441061 4.31668241 16.8661465 2.10977728 16.9319495 1.83491546 16.9319495L1.80487591 16.9319495C1.80487591 16.9319495 2.30853892 18.5535606 3.79549633 18.5535606 3.81902731 18.5535606 3.8410563 18.5535606 3.86608926 18.5520303 4.54948887 18.5270354 4.89995022 18.2607627 4.89995022 18.2607627 4.89995022 18.2607627 5.1642982 21.9416515 2.46874982 23.0822374 2.46874982 23.0822374 2.95989636 23.9519596 4.08437661 23.9519596L4.0978944 23.9519596C5.45017451 23.943798 5.99389025 23.1041718 5.99389025 23.1041718 5.99389025 23.1041718 5.91528678 24.1968081 6.39992475 25.6704899 6.98619651 27.4471717 6.39792211 28.7168132 6.39792211 28.7168132 6.39792211 28.7168132 6.712336 28.8035303 7.07531382 28.8035303 7.21599902 28.8035303 7.36018882 28.7892474 7.49536677 28.7530303 8.62285098 28.4801262 8.90472203 27.433399 8.90472203 27.433399 8.90472203 27.433399 8.80158626 30.9678889 12.8469115 30.9678889L12.8759497 30.9678889C12.8759497 30.9678889 12.5219838 30.4741111 12.4178466 29.0529697 12.2260942 26.4300303 10.4817981 26.069899 10.4817981 26.069899M19.4075477 13.0454899L21.3140575 13.0454899 21.3140575 13.7121919C21.0897622 13.4321465 20.6531875 13.4892778 20.6531875 13.4892778L20.6531875 14.4503081C20.6531875 14.4503081 20.6697093 14.9231717 20.8324234 15.1277222L19.8886812 15.1277222C20.0538986 14.9231717 20.0684178 14.4503081 20.0684178 14.4503081L20.0684178 13.4892778C20.0684178 13.4892778 19.633345 13.4321465 19.4075477 13.7121919L19.4075477 13.0454899 19.4075477 13.0454899 19.4075477 13.0454899zM17.329312 13.1454697C17.3958996 13.2179041 17.4609853 13.2964596 17.5240684 13.3760354 17.5390881 13.394399 17.552606 13.4107222 17.5676257 13.4321465 17.6257022 13.5107021 17.6842793 13.5943586 17.7408537 13.6795454 17.7533702 13.6963788 17.765386 13.7167828 17.7789038 13.7361667 17.8464928 13.8407374 17.9105771 13.9483687 17.9741609 14.0595707 18.5579293 15.0858939 19.4911579 15.6990353 20.3197485 15.7005656 21.1493406 15.6990353 22.0815678 15.0858939 22.6668382 14.0595707 22.7314232 13.9453081 22.7970096 13.8351263 22.8650993 13.7315757 22.8746117 13.7167828 22.8856263 13.7014798 22.8946381 13.6861768 22.9527146 13.5979293 23.0127937 13.5122324 23.0758767 13.4290859 23.0893945 13.4107222 23.101911 13.394399 23.1139268 13.3790959 23.1790124 13.2964596 23.2461007 13.2168838 23.314691 13.1429192 23.3262062 13.1311869 23.3362194 13.1199647 23.3472339 13.1102728 23.6446254 12.8001313 23.9985913 12.5639545 24.4627022 12.4333687L24.2559301 12.3104343 24.2444149 12.3104343 23.423334 11.8248182 22.5797235 11.3325708 20.3257565 12.5828283 20.3197485 12.5777273 20.3157433 12.5828283 18.0612756 11.3325708 17.2181657 11.8248182 16.3955828 12.3104343 16.3860704 12.3104343 16.1777962 12.4333687C16.6419072 12.5639545 16.9948717 12.7975808 17.2932645 13.1082323 17.3062817 13.1199647 17.3152935 13.1337373 17.329312 13.1454697L17.329312 13.1454697 17.329312 13.1454697z"/>
      <path fill="#FFFFFF" d="M19.6018034 8.80859091L19.6018034 9.43601515 19.483648 9.38092424C19.4781407 9.37633334 19.304412 9.33654545 19.0020139 9.09220707 18.5028569 8.69789899 18.4928437 8.33368687 18.4928437 8.33368687L19.6018034 8.80859091 19.6018034 8.80859091 19.6018034 8.80859091zM20.1249922 11.7523838L20.1249922 7.84960101 17.6867825 7.00691415 18.3296288 10.7888031 20.1249922 11.7523838 20.1249922 11.7523838 20.1249922 11.7523838zM21.0401969 8.80859091L22.1491568 8.33368687C22.1491568 8.33368687 22.1396442 8.69789899 21.6384846 9.09220707 21.3370877 9.33654545 21.1633591 9.37633334 21.1573511 9.38092424L21.0401969 9.43601515 21.0401969 8.80859091 21.0401969 8.80859091 21.0401969 8.80859091zM22.3113703 10.7888031L22.9522139 7.00691415 20.5155062 7.84960101 20.5155062 11.7523838 22.3113703 10.7888031 22.3113703 10.7888031 22.3113703 10.7888031zM16.6769533 20.7995354C16.913765 20.8872727 17.2021446 20.9056363 17.349839 20.9056363 17.3553463 20.8872727 17.3633568 20.8643181 17.3703661 20.8362626 17.3833832 20.7918839 17.3958996 20.747505 17.4049116 20.6990455 17.4464662 20.4827626 17.4609853 20.2384243 17.4644899 20.080293 17.3648588 20.0165303 17.2231723 19.9043081 17.1440681 19.7359747 17.0539496 19.5421364 16.9242788 19.4513384 16.736031 19.4513384 16.4907081 19.4513384 16.227862 19.6018182 16.1142125 19.6722121 16.0245945 20.211899 16.4151086 20.7010859 16.6769533 20.7995354M22.0700527 18.7295454C21.6174568 19.2314848 20.730289 20.1047778 20.687733 20.1481364L20.6341625 20.2032273 17.8334757 20.1583383C17.831473 20.4409344 17.7864138 20.6811919 17.7428564 20.8576869 17.7358472 20.8867626 17.7278367 20.9173687 17.7203267 20.9479748L21.0517121 21.5585656C21.3981682 21.3116767 22.3519237 20.6016161 22.722912 20.3236111 22.4535575 19.9226717 22.4280239 19.4472576 22.4886036 19.1126313 22.3113703 18.9978586 22.1771937 18.8672727 22.0700527 18.7295454"/>
      <path fill="#FFFFFF" d="M22.4495522,15.2970758 C21.8042027,15.9489849 21.1853881,16.1912828 20.6326604,16.2468839 C20.5315273,16.2575959 20.4303942,16.2642273 20.3277591,16.2642273 L20.3137406,16.2642273 C20.2106049,16.2642273 20.1084705,16.2575959 20.0088393,16.2468839 C19.9117114,16.2382121 19.8105783,16.222399 19.7089446,16.1989343 C19.6728971,16.3458434 19.6268365,16.651904 19.7580091,16.9431717 C19.8751633,17.2063838 20.1129764,17.4022627 20.4599331,17.5333586 L20.5765866,17.5797778 L20.5785892,17.7078132 C20.5785892,17.7455606 20.6066262,18.5760051 21.4942947,18.8065708 C21.6389852,18.6545606 21.7706585,18.5168333 21.8682871,18.4015505 C21.6870485,17.9664344 21.7821737,17.5221364 22.0455203,17.3048333 C22.0340052,17.3507424 21.9183529,18.4403182 22.7754812,18.8453384 L22.9166671,18.9136919 L22.8746117,19.0667223 C22.8605932,19.1126313 22.574717,20.1675201 23.6130838,20.5597879 L23.7968257,20.6306919 L23.7157189,20.8122879 C23.6971946,20.8525859 23.2906595,21.8090253 24.2489208,22.352793 L26.3276573,22.352793 L26.3276573,20.6709899 C25.5886845,20.5791717 25.2757726,19.9736818 25.1946658,19.5451969 C24.8507131,19.485005 24.5853637,19.3340151 24.4026232,19.0876364 C23.9665492,18.5025505 24.3415428,17.9664344 24.3465494,17.9373586 C24.3460488,17.9419495 24.3465494,18.5122425 24.6920041,18.8647222 C24.8637302,19.0340758 25.0659964,19.1661919 25.3729004,19.1957777 L25.5240994,19.2095505 L25.5371166,19.3671718 C25.5396199,19.4003283 25.6227293,20.1731314 26.3276573,20.2940252 L26.3261553,16.858495 C26.3261553,16.3264596 26.4783556,15.7913636 26.6615969,15.2970758 L22.4495522,15.2970758"/>
      <polyline fill="#FFFFFF" points="16.854 16.871 16.798 19.059 17.042 19.097 17.639 16.998 17.336 16.352 16.854 16.871"/>
      <path fill="#FFFFFF" d="M18.1468882,24.9696111 C18.0772967,24.9675707 18.0262295,24.9073788 18.0307354,24.8364748 C18.0362426,24.7686314 18.0928171,24.7150707 18.1614074,24.7211919 C18.2314996,24.7237424 18.2805643,24.7864848 18.2785616,24.8533081 C18.272053,24.9226818 18.2134759,24.9757323 18.1468882,24.9696111 M23.4333472,26.9059545 C23.4518716,26.9059545 23.4723987,26.9085051 23.4924251,26.913606 C23.8639141,27.0217475 23.9575373,28.3852474 24.6088947,28.5066515 C24.6729791,28.5204243 24.7315562,28.5245051 24.7836247,28.5245051 C24.9718726,28.5245051 25.0840201,28.4428889 25.2051796,28.297 C25.2051796,28.297 24.877248,27.7726162 24.6324258,27.418096 C24.3064967,26.9549242 24.0541645,26.3953435 23.4478663,26.3953435 C23.4333472,26.3953435 23.4158242,26.3953435 23.4008044,26.3973839 C23.2015421,26.4075858 23.0783799,26.5070556 23.0783799,26.5070556 C22.8325564,26.3494343 22.6037552,26.2963838 22.3974837,26.2963838 C22.0179841,26.2963838 21.7225952,26.473899 21.5744002,26.473899 L21.5688929,26.473899 L20.2151108,26.337702 C20.0038327,26.3167878 19.836112,26.0994849 19.7760329,26.014808 C19.761013,25.9913435 19.7525018,25.9780808 19.7525018,25.9780808 C19.7525018,25.9403334 19.7525018,25.9020757 19.7504992,25.867899 C19.7049393,24.7400657 18.847811,24.2575101 18.5424089,24.2498586 C18.5424089,24.2498586 18.5784563,24.035106 18.4963483,23.9534899 L18.1974548,24.322803 L17.2181657,23.8218838 L17.9170857,24.6538585 L17.3253067,25.3307626 C17.2507085,25.4077879 17.2602211,25.5118485 17.2912619,25.5562272 L17.5465981,25.7862828 L17.8710251,25.5858132 C17.8870462,25.5735707 17.9170857,25.57 17.9526325,25.57 C18.0422506,25.57 18.1769278,25.5934647 18.2975866,25.5934647 C18.4302613,25.5934647 18.5439109,25.564899 18.5579293,25.438394 C18.517376,25.8566768 18.1363744,26.5830606 18.3862033,27.1543738 L18.5719478,27.5854091 L17.374872,27.4099343 L16.8146345,28.3735152 C16.6419072,28.6943687 16.6148715,29.0412374 16.7810903,29.2299748 L16.9903658,29.4972677 C16.9903658,29.4972677 17.2847533,29.1799848 17.3503397,28.9708434 L17.2552144,28.8642324 C17.175109,28.7744545 17.1791143,28.6943687 17.2281789,28.5979596 L17.5796415,28.004202 L18.9920007,28.3434192 L19.0670996,28.2138535 C19.1632261,28.0511313 19.3009074,28.0031818 19.4521064,28.0031818 C19.5146888,28.0031818 19.5782725,28.0108334 19.6448602,28.0215454 C19.9072055,28.0740858 20.3387737,28.1449899 20.7703418,28.1449899 C21.2434645,28.1449899 21.7135834,28.0587828 21.9644135,27.7726162 C22.4760871,28.5454192 23.5129521,28.6683535 23.4313446,29.0611313 L23.1579848,30.3853536 C23.3387227,30.3771919 23.5129521,30.3654596 23.6781696,30.341995 L23.9380115,28.9647222 C23.9665492,28.8142424 23.9935848,28.6127525 23.9935848,28.6127525 C23.8939536,28.509202 23.6516346,28.2908787 23.5149547,28.0251161 C23.3322141,27.6670253 23.4313446,27.4798182 23.2611205,27.014096 C23.2611205,27.014096 23.3136897,26.9059545 23.4333472,26.9059545"/>
      <path fill="#FFFFFF" d="M16.2178489 28.1587626C16.2178489 28.1587626 16.6864658 27.9623737 16.7280205 27.8226061L16.6654381 27.6634546C16.6208794 27.5593939 16.6268873 27.4471717 16.7130007 27.3864697L17.2181657 27.0299091 18.0622768 27.195692C18.0622768 27.195692 17.9095759 27.0003232 17.9245956 26.7401717L17.1185346 26.5662272 16.3585341 27.0380707C16.0326051 27.2859798 16.0090741 27.6920202 16.1167157 27.9327879L16.2178489 28.1587626M22.1912122 30.402697C22.3419105 30.3965758 22.5096312 30.3940252 22.6923718 30.3940252 22.6923718 30.3940252 23.1269439 29.0988788 23.1514763 29.0580707 22.9081559 28.948399 22.4019896 28.6749849 22.2067325 28.5500101 22.3364033 28.7469091 22.6493152 28.9708434 22.5872335 29.1442777L22.1912122 30.402697"/>
      <path fill="#FFE52B" d="M26.3276573 22.7236363L14.3148438 22.7236363 14.3148438 27.327298C14.3148438 29.2105909 15.6521042 30.3889243 17.6257022 30.3889243 19.2738718 30.3889243 19.7089446 30.4547273 20.3222518 31.0745 20.7448081 30.6449949 21.0942681 30.4848232 21.8122132 30.4251415L21.8292356 30.3537272 22.2077339 29.1611111C22.1867062 29.1345858 21.567391 28.4178939 21.567391 28.4178939 21.322068 28.5010404 21.1157965 28.5148132 20.769841 28.5148132 20.4138725 28.5148132 20.0133452 28.4724747 19.5772712 28.3893283 19.5337139 28.3791263 19.4926598 28.3745353 19.4521064 28.3745353 19.3985359 28.3745353 19.3950313 28.3791263 19.3810128 28.4061616L19.305914 28.5321566 19.1682328 28.7642526 18.9088913 28.7030404 17.7558736 28.4265657 17.5976652 28.6923283 17.6211963 28.720894 17.7613807 28.8785151 17.6992991 29.0835757C17.6146877 29.3518889 17.3393252 29.6650909 17.2552144 29.751808L16.9673355 30.0665404 16.7044896 29.7283435 16.5072299 29.4763535C16.299957 29.2396667 16.2518937 28.8785151 16.3685473 28.499 16.366044 28.5010404 16.3620387 28.5030808 16.3570321 28.5035909L16.0321044 28.6408081 15.885912 28.316894 15.7832768 28.0873485C15.6065441 27.6833484 15.6716299 27.0931616 16.1482573 26.7360909L17.0759786 26.2020151 17.9591411 26.3790202C17.9801688 26.2928131 18.0117103 25.9836919 18.0372439 25.9051363 18.0202216 25.903096 18.0042005 25.8990152 17.9866774 25.8990152L17.4780078 26.0928535 16.9868612 25.7475152C16.9868612 25.7475152 16.7951087 25.5592879 16.9693382 25.3710606L17.4439629 24.6375353 16.2398779 23.0975404 18.0903137 23.8718738 18.2139766 23.716803 18.4633048 23.4117627 18.7471785 23.6867071C18.827284 23.7652626 18.8733445 23.8621818 18.8958743 23.9591011 19.4055451 24.1616111 20.3197485 24.7584293 20.4003547 25.7291515L20.1144783 25.8454545 20.1144783 25.8525959C20.1800647 25.9316616 20.2341359 25.9643081 20.2511583 25.9673687L21.5718969 26.0994849C21.6059417 26.0938737 21.6469957 26.0785708 21.6940577 26.064798 21.8587745 26.0076666 22.1045981 25.9250303 22.396983 25.9250303 22.6352967 25.9250303 22.8650993 25.9806313 23.0868912 26.0862223 23.167998 26.0545959 23.2681297 26.0316414 23.3842827 26.02399L23.4478663 26.0224596C24.154797 26.0224596 24.5067603 26.5606161 24.7886313 26.9906313 24.8356933 27.0651061 24.8827553 27.1349899 24.9318198 27.2043636 25.1781441 27.5593939 25.5010692 28.0786768 25.5140863 28.1011212L25.6597781 28.332707 25.4815434 28.544399C25.3443628 28.706101 25.1375907 28.8963687 24.7836247 28.8963687 24.7105285 28.8963687 24.6304231 28.8882071 24.5443097 28.8713738 24.4692109 28.8570909 24.4001199 28.8341364 24.3340329 28.8055707 24.3245204 28.8769849 24.3095006 28.9616616 24.2969841 29.034606L24.0651789 30.2659899C25.4505026 29.9191212 26.3301606 28.8535202 26.3301606 27.327298L26.3276573 22.7236363M14.3148438 22.352793L23.6581432 22.352793C23.1915289 21.8615657 23.1985382 21.2397525 23.3171944 20.8357525 23.1810151 20.7694394 23.0688675 20.6898637 22.9692363 20.6021262 22.6037552 20.8765606 21.4892881 21.7034344 21.1979045 21.9105354L21.1353221 21.9533838 17.4684952 21.2780101 17.3943976 21.2780101C17.3062817 21.2780101 17.1776123 21.2744394 17.0364265 21.2570959 16.9968743 21.4259394 16.8541866 21.5412223 16.6909717 21.5412223 16.6719466 21.5412223 16.6514196 21.5396919 16.6323946 21.5356112 16.5367687 21.5187778 16.4531587 21.469298 16.3975855 21.3876818 16.3405104 21.3070859 16.3179807 21.2116969 16.3335012 21.1132474L16.3470189 21.0326515C15.969522 20.7612778 15.620062 20.1547677 15.7747657 19.5156111L15.7897854 19.4482778 15.8433559 19.409C15.8508658 19.4033889 15.9139489 19.3590101 16.0090741 19.3044293L15.7427235 19.262601C15.6430923 19.2447474 15.576004 19.1498687 15.5915244 19.0498889 15.6085468 18.9483787 15.7021701 18.8759445 15.8002992 18.8953283L16.4351349 18.9973484 16.4932114 16.7202576 17.4374544 15.7020959 18.0272307 16.9666363 17.4049116 19.1575202 17.9661504 19.247298C18.0647802 19.2631111 18.1323691 19.3574798 18.1173494 19.4610303 18.1028303 19.5528485 18.0257287 19.6145707 17.9376128 19.6145707 17.9281002 19.6145707 17.9180871 19.6145707 17.9085745 19.6135505L17.4524741 19.5385657C17.458482 19.5528485 17.4674939 19.5610101 17.4730011 19.5752929 17.521565 19.6778232 17.6292068 19.7502576 17.6922898 19.782394L20.4874693 19.8277929C20.6061255 19.7104697 20.8995118 19.4176717 21.2014092 19.1080404 20.5135036 18.8417677 20.2631741 18.2383182 20.2216194 17.8368686 19.8376139 17.6700657 19.571764 17.4201161 19.4245702 17.0951818 19.2453343 16.6927122 19.3089179 16.2892222 19.3569812 16.0933434 18.9839902 15.955106 18.5924748 15.7020959 18.1919476 15.2970758L13.9809042 15.2970758C14.1616421 15.7913636 14.3148438 16.3264596 14.3148438 16.858495L14.3148438 22.352793"/>
      <path fill="#1A1918" d="M18.1770301 24.7212563C18.1002567 24.7138511 18.0369327 24.7742312 18.0307684 24.8505606 18.0257249 24.9297382 18.0828846 24.9969537 18.1607787 24.9986625 18.2353106 25.0049284 18.3008762 24.9468269 18.3081614 24.8687886 18.3104029 24.7941679 18.2554846 24.7241043 18.1770301 24.7212563M23.7297374 34.3748535L23.1810151 32.836899C23.8338745 32.6343889 24.9563521 32.1987626 25.4595144 31.9095353L25.1240729 33.0281868 26.2605689 33.4133131C25.5731641 33.7647727 24.7395668 34.0927676 23.7297374 34.3748535M20.3227526 35.7572272C19.0005119 35.7572272 17.4910248 35.4470859 17.045939 35.2858939L17.7218287 33.4235152C18.2820662 33.5903182 19.4481011 33.7673233 20.294215 33.7617121L20.3477855 33.7617121C21.1938992 33.7673233 22.3584323 33.5903182 22.9216737 33.4235152L23.5960615 35.2858939C23.1514763 35.4470859 21.6419891 35.7572272 20.3227526 35.7572272M14.3814314 33.4133131L15.5199301 33.0281868 15.1829866 31.9095353C15.6851476 32.1987626 16.8096279 32.6343889 17.4609853 32.836899L16.9117623 34.3748535C15.9054377 34.0927676 15.0683357 33.7647727 14.3814314 33.4133131M26.3116362 33.0715454L25.6197254 32.801192 25.8109772 32.0722576 26.021254 31.2785404C26.021254 31.2785404 24.7951399 31.9564646 23.0668649 32.4650354 22.5767196 32.6078636 22.2057313 32.6736666 22.2057313 32.6736666L22.2057313 33.2143738C22.2057313 33.2143738 21.2815146 33.377606 20.3477855 33.377606L20.294215 33.377606C19.3594845 33.377606 18.4367698 33.2143738 18.4367698 33.2143738L18.4367698 32.6736666C18.4367698 32.6736666 18.0647802 32.6078636 17.5751356 32.4650354 15.8473612 31.9564646 14.6227492 31.2785404 14.6227492 31.2785404L14.8295213 32.0722576 15.0247784 32.801192 14.3303643 33.0715454 13.5603506 33.3643434C14.4425119 33.7989495 15.665622 34.4304545 16.7845949 34.7426364L16.5207476 35.477692C16.5207476 35.477692 17.9401161 36.1362324 20.3047288 36.1423535L20.3047288 36.1438839 20.336771 36.1438839 20.336771 36.1423535C22.703887 36.1362324 24.1222542 35.477692 24.1222542 35.477692L23.8569048 34.7426364C24.9763785 34.4304545 26.2014912 33.7989495 27.0801479 33.3643434L26.3116362 33.0715454M17.4314465 3.42906565L17.7458604 3.46273232 17.8820396 3.17044445 18.2780609 2.30684343 19.0140297 2.6945202 19.2989047 2.8429596 20.3197485 1.81153536 21.1152958 2.61392424 21.3435964 2.8429596 21.6284714 2.6945202 22.3599342 2.30684343 22.7619635 3.17044445 22.8951388 3.46273232 23.2100534 3.42906565 23.5104487 3.39233838C23.3727675 3.70809091 23.2711337 4.0085404 23.1985382 4.2569596 22.4044928 3.8060303 21.3726346 3.5494495 20.3197485 3.5494495 19.2718692 3.5494495 18.2410122 3.8060303 17.4439629 4.2569596 17.3703661 4.0085404 17.2697336 3.70809091 17.1320523 3.39233838L17.4314465 3.42906565 17.4314465 3.42906565 17.4314465 3.42906565zM20.3197485 3.99986869C21.7286031 3.99986869 22.8555867 4.47579292 23.4784066 4.98232324 23.4784066 4.98232324 23.6631497 3.84785858 24.2944808 2.8470404L23.1599874 2.97864647 22.5662058 1.69370202 21.4262051 2.29256061 20.3197485 1.1790101 19.2167967 2.29256061 18.0742926 1.69370202 17.4815124 2.97864647 16.3470189 2.8470404C16.9788507 3.84785858 17.1630932 4.98232324 17.1630932 4.98232324 17.7899183 4.47579292 18.9133972 3.99986869 20.3197485 3.99986869L20.3197485 3.99986869 20.3197485 3.99986869zM38.1737512 23.0822374C38.1737512 23.0822374 37.6836061 23.9519596 36.5581245 23.9519596L36.5441061 23.9519596C35.1933279 23.943798 34.6486108 23.1041718 34.6486108 23.1041718 34.6486108 23.1041718 34.7267136 24.196298 34.2405737 25.6704899 33.654302 27.4471717 34.2455803 28.716303 34.2455803 28.716303 34.2455803 28.716303 33.9296644 28.8035303 33.5666866 28.8035303 33.428004 28.8035303 33.282813 28.7892474 33.146133 28.7530303 32.0176475 28.4801262 31.7362771 27.433399 31.7362771 27.433399 31.7362771 27.433399 31.8399135 30.9678889 27.795089 30.9678889L27.7635474 30.9678889C27.7635474 30.9678889 28.1205173 30.4741111 28.2251551 29.0529697 28.4174082 26.4300303 30.1602024 26.069899 30.1602024 26.069899 30.1602024 26.069899 29.2299778 25.9510454 28.8269473 25.5832626 28.1966176 25.0007273 28.2411762 24.3284142 28.2411762 24.3284142 29.6640492 24.3080101 30.596777 23.8142323 31.3072122 22.9771566 32.0767253 22.0701969 32.203392 21.0933535 32.203392 21.0933535 32.203392 21.0933535 31.4378843 21.8003535 29.9584368 21.8003535 29.8282655 21.8003535 29.6890822 21.7937222 29.5463944 21.7799495 28.8459724 21.721798 28.3623357 21.2688283 28.3623357 21.2688283 29.9028636 20.2618888 30.9832859 18.5061212 30.0250244 15.8622677 29.2570134 13.742798 27.4125854 12.1599545 25.5551404 10.9673384 24.9373271 10.5745606 24.5928736 10.1368939 24.5928736 9.7609495 24.5928736 8.87541415 25.8290009 8.84684849 26.3351671 8.25258081 26.9204376 7.56088383 26.5534546 6.43968182 26.0467875 5.76430808 26.0467875 5.76430808 26.2175123 5.72911111 26.4868669 5.72911111 27.02107 5.72911111 27.946288 5.86581819 28.7067892 6.66922728 29.7166184 7.73329798 29.2980675 8.89275758 29.2980675 8.89275758L29.5684234 8.94631818C29.7296356 8.98100505 29.8908478 8.98763636 30.0580679 8.99630808 30.0941153 8.99630808 30.1311642 8.99834848 30.1667109 8.99834848 31.633642 8.99834848 32.2895053 7.43590909 32.2895053 7.43590909 32.2895053 7.43590909 33.8485577 9.39010607 31.5525352 10.9219394 31.1575152 11.1836212 30.9832859 11.4269394 31.0288459 11.6855607L31.0648933 11.8554243 31.2281081 11.8850101C32.8922989 12.3446111 33.7344074 13.5147828 34.7627611 14.8441061 36.3248174 16.8666565 38.5337252 16.9319495 38.8060837 16.9319495L38.8356225 16.9319495C38.8356225 16.9319495 38.3319596 18.5535606 36.8460034 18.5535606 36.8209705 18.5535606 36.7999429 18.5535606 36.7754105 18.5520303 36.0930122 18.5270354 35.7425509 18.2607627 35.7425509 18.2607627 35.7425509 18.2607627 35.4767009 21.9416515 38.1737512 23.0822374M36.8460034 19.0498889C38.6674011 19.0498889 39.2772038 17.1620051 39.3022368 17.080899L39.5060051 16.4152172 38.823106 16.4371515 38.8206028 16.4371515C38.5797858 16.4371515 36.5696396 16.3825707 35.1447639 14.5375353L35.0100867 14.3661414C34.0788608 13.1602626 33.1961989 12.0125353 31.6171202 11.4891718 31.6626802 11.4468333 31.7282665 11.3958232 31.8178846 11.3361414 32.6559878 10.7750303 33.143129 10.0930252 33.2652899 9.30134849 33.4445258 8.11077273 32.6985438 7.16096464 32.666001 7.12219697L32.1588334 6.4830404 31.8419161 7.2410505C31.8203878 7.289 31.2881872 8.5020202 30.1667109 8.5020202L30.0831009 8.5020202C30.0065001 8.4979394 29.9329031 8.49487879 29.8613089 8.48875757 29.9003603 7.94754041 29.8037331 7.10995455 29.0577512 6.32337879 28.1610707 5.37765151 27.0616234 5.23584343 26.4868669 5.23584343 26.1794622 5.23584343 25.9751933 5.27461111 25.9526637 5.27665151L25.1871559 5.43172223 25.6592774 6.06628787C26.0302658 6.55547474 26.366208 7.45835354 25.9676834 7.92968686 25.8400154 8.08016667 25.5781706 8.20157071 25.3273405 8.32399495 24.8116616 8.56527273 24.1067337 8.9034697 24.1067337 9.7609495 24.1067337 10.3159394 24.5297906 10.8969444 25.2962997 11.3907222 27.5642852 12.844 28.9636272 14.3605303 29.5684234 16.0346818 30.5031538 18.6096717 29.2830477 20.0782525 28.0984883 20.8525859L27.5667885 21.2004747 28.0324014 21.636101C28.0949838 21.6922122 28.6632318 22.2028232 29.504339 22.2762778 29.6635486 22.28699 29.8157489 22.2956616 29.9584368 22.2956616 30.4966453 22.2956616 30.9557496 22.2094546 31.3287406 22.0936616 31.2266062 22.2762778 31.0994387 22.4634848 30.9412305 22.6512021 30.2643395 23.4505303 29.4312428 23.8142323 28.2331657 23.8341263L27.7880797 23.8412677 27.754035 24.2962778C27.749529 24.3880959 27.7164855 25.231803 28.5000169 25.949005 28.6196745 26.060207 28.7643649 26.1515152 28.9165653 26.2259898 28.3848653 26.7136465 27.8451549 27.5629646 27.7405172 29.0172627 27.6519005 30.231303 27.3680268 30.680702 27.3645222 30.685293L26.872875 31.4504444 27.7620455 31.4626869C29.2309792 31.4626869 30.3559601 31.0500152 31.1354862 30.231303 31.5960926 29.7472172 31.8599398 29.2003889 32.0151442 28.716303 32.270981 28.9381969 32.6009153 29.1330555 33.0314821 29.236606 33.1946969 29.2753738 33.3729315 29.2967979 33.5666866 29.2967979 33.981733 29.2967979 34.3291903 29.2070202 34.3677411 29.1973283L34.9354885 29.0437879 34.6846583 28.504101C34.6661339 28.4607424 34.1925104 27.3767778 34.7021814 25.8316818 34.9214701 25.1629394 35.0341183 24.5645909 35.0881895 24.0983586 35.4461608 24.2881161 35.9247908 24.4447171 36.5436054 24.4467576 37.9489554 24.4467576 38.5687712 23.3770758 38.5963075 23.3321869L38.873172 22.8409596 38.3599965 22.625697C36.6852919 21.9171666 36.3143035 20.0144899 36.240206 18.9845959 36.391405 19.0146919 36.5646331 19.0417273 36.7598901 19.0473384L36.8460034 19.0498889"/>
      <path fill="#1A1918" d="M34.7988086 10.9719293C35.1382554 10.9719293 35.533776 11.0897626 35.9077683 11.4835607 37.0818138 12.697601 38.1737512 12.7654444 38.1737512 12.7654444 37.9754903 13.2133131 37.400233 13.6060909 36.8044488 13.6060909 36.6667675 13.6060909 36.5285856 13.5846666 36.391405 13.5362071 35.5833413 13.2587121 35.294461 12.0247778 33.876094 11.2555454 33.876094 11.2555454 34.2716146 10.9719293 34.7988086 10.9719293M33.6447894 11.6942323C34.3241838 12.0630354 34.7202051 12.5573233 35.0671618 12.9954999 35.4086113 13.4234748 35.7315364 13.8346162 36.238704 14.0060101 36.4184407 14.0687525 36.6096923 14.0988485 36.8044488 14.0988485 37.5639485 14.0988485 38.3279543 13.6249646 38.6173352 12.9684647L38.9087188 12.3109444 38.2037908 12.268096C38.1707473 12.2675858 37.2640538 12.1829091 36.2562271 11.1336313 35.8411807 10.7025959 35.3390197 10.4766212 34.7988086 10.4766212 34.1384393 10.4766212 33.6487947 10.8127778 33.5952241 10.8474647L32.9473713 11.3121666 33.6447894 11.6942323M33.9637092 18.2500505L33.9637092 18.2755556C33.5551715 14.9139899 31.1595178 12.4864192 28.4935084 11.0112071 28.2471841 10.8765404 28.0193842 10.7622778 27.7985936 10.6531162 28.6096613 10.7816616 29.916882 10.7969646 30.9262108 9.90530808 30.9262108 9.90530808 29.3821781 11.0622172 26.2205163 10.0114091 27.0951676 10.5898636 28.7959064 11.4065353 30.3494515 12.7292273 34.2310611 16.2045454 31.4539054 19.5941666 31.4539054 19.5941666 32.8487415 18.1107929 32.9068179 16.5218283 32.4962776 15.2241313 33.2307444 16.470308 33.7003625 17.9817374 33.6272663 19.8466666 33.5206259 22.5175555 32.0792285 24.827803 30.5632329 26.6835505 29.834774 27.5843889 29.6720598 28.6913081 29.6720598 28.6913081 29.6720598 28.6913081 29.9659467 27.7144647 30.8090566 26.7095656 32.4341958 24.7711818 33.8235248 22.7583233 34.0057646 19.8568687 34.1734854 20.383803 34.8658969 21.8467728 35.9638422 22.398192 35.9638422 22.398192 34.5840258 21.5509142 33.9637092 18.2500505M12.8469115 30.9678889C8.80158626 30.9678889 8.90472203 27.433399 8.90472203 27.433399 8.90472203 27.433399 8.62285098 28.4801262 7.49536677 28.7530303 7.36018882 28.7892474 7.21599902 28.8035303 7.07531382 28.8035303 6.712336 28.8035303 6.39792211 28.716303 6.39792211 28.716303 6.39792211 28.716303 6.98619651 27.4471717 6.39992475 25.6704899 5.91528678 24.1968081 5.99389025 23.1041718 5.99389025 23.1041718 5.99389025 23.1041718 5.45017451 23.943798 4.0978944 23.9519596L4.08437661 23.9519596C2.95989636 23.9519596 2.46874982 23.0822374 2.46874982 23.0822374 5.16379753 21.9416515 4.89995022 18.2607627 4.89995022 18.2607627 4.89995022 18.2607627 4.54948887 18.5270354 3.86608926 18.5520303 3.8410563 18.5535606 3.81902731 18.5535606 3.79549633 18.5535606 2.30853892 18.5535606 1.80487591 16.9319495 1.80487591 16.9319495L1.83491546 16.9319495C2.10977728 16.9319495 4.31668241 16.8661465 5.8772367 14.8441061 6.90609106 13.5142728 7.74920091 12.3451212 9.41088833 11.8850101L9.57760779 11.8549142 9.6131546 11.6855607C9.65921523 11.4269394 9.48548653 11.1836212 9.09046653 10.9219394 6.79494475 9.39010607 8.35399705 7.43641919 8.35399705 7.43641919 8.35399705 7.43641919 9.00585515 8.99834848 10.4767915 8.99834848 10.5123383 8.99834848 10.5458824 8.99681818 10.5839325 8.99681818 10.74915 8.98763636 10.9123648 8.98100505 11.0735771 8.94631818L11.343933 8.89275758C11.343933 8.89275758 10.92388 7.73329798 11.9362126 6.66922728 12.6967137 5.86581819 13.6209303 5.72911111 14.1551336 5.72911111 14.4259901 5.72911111 14.5942116 5.76430808 14.5942116 5.76430808 14.0885459 6.43968182 13.7220634 7.56088383 14.3068332 8.25258081 14.8129996 8.84684849 16.0476248 8.87541415 16.0476248 9.7609495 16.0476248 10.1368939 15.7041727 10.5745606 15.0868601 10.9673384 13.227913 12.1599545 11.3839857 13.742798 10.6164753 15.8622677 9.65921523 18.5066313 10.7396374 20.2618888 12.282168 21.2688283 12.282168 21.2688283 11.7970294 21.721798 11.0956061 21.7799495 10.9529182 21.7937222 10.8147364 21.8003535 10.6820617 21.8003535 9.20411614 21.8003535 8.4391091 21.0933535 8.4391091 21.0933535 8.4391091 21.0933535 8.5662765 22.0701969 9.33128355 22.9776667 10.0462247 23.8142323 10.9774505 24.3080101 12.4008243 24.3284142 12.4008243 24.3284142 12.4458835 25.0007273 11.8165551 25.5832626 11.4125233 25.9510454 10.4817981 26.069899 10.4817981 26.069899 10.4817981 26.069899 12.2260942 26.4300303 12.4178466 29.0529697 12.5219838 30.4741111 12.8759497 30.9678889 12.8759497 30.9678889L12.8469115 30.9678889 12.8469115 30.9678889 12.8469115 30.9678889zM13.2769776 30.685293C13.2754756 30.680702 12.9931039 30.231303 12.9024846 29.0172627 12.7968456 27.5624545 12.257135 26.7136465 11.7239332 26.2259898 11.8781362 26.1515152 12.020824 26.060207 12.1409822 25.949005 12.924013 25.231803 12.8909695 24.3880959 12.8854622 24.2962778L12.8554227 23.8412677 12.4068322 23.8341263C11.2122597 23.8142323 10.377661 23.4505303 9.70076993 22.6512021 9.54356299 22.4634848 9.41639558 22.2762778 9.31325981 22.0936616 9.68575015 22.2094546 10.1423512 22.2956616 10.6820617 22.2956616 10.8267522 22.2956616 10.9774505 22.28699 11.1366601 22.2762778 11.9777673 22.2028232 12.5470167 21.6927222 12.6100997 21.636101L13.0757126 21.2004747 12.5445134 20.8525859C11.3554482 20.0782525 10.1403486 18.6096717 11.0735771 16.0346818 11.6783732 14.3605303 13.0757126 12.844 15.3472028 11.3907222 16.1137118 10.8969444 16.5332641 10.3159394 16.5332641 9.7609495 16.5332641 8.9034697 15.8303388 8.56527273 15.31466 8.32399495 15.0633291 8.20157071 14.8014844 8.08016667 14.674317 7.92968686 14.274791 7.45835354 14.611234 6.55547474 14.9822223 6.06628787L15.4578485 5.43172223 14.6878348 5.27665151C14.6653052 5.27410101 14.4635396 5.23584343 14.1551336 5.23584343 13.5803769 5.23584343 12.4829323 5.37765151 11.5867526 6.32337879 10.8397693 7.11046465 10.7416401 7.94754041 10.7801909 8.48875757 10.708096 8.49487879 10.6355004 8.4979394 10.5588996 8.5020202L10.4767915 8.5020202C9.35231122 8.5020202 8.82111196 7.2884899 8.80058494 7.2410505L8.48466907 6.4830404 7.97299551 7.12219697C7.94395729 7.16096464 7.19597265 8.11077273 7.37821255 9.30134849 7.49887138 10.0930252 7.98701397 10.7750303 8.82461658 11.3361414 8.91573652 11.3958232 8.97932022 11.4468333 9.0248802 11.4891718 7.44379889 12.0125353 6.56213828 13.1602626 5.63091244 14.3661414L5.49673581 14.5375353C4.07386277 16.3825707 2.05921071 16.4371515 1.81839371 16.4371515L1.13199013 16.4152172 1.34076496 17.080899C1.36529725 17.1620051 1.97259669 19.0498889 3.79549633 19.0498889L3.88311166 19.0473384C4.07636606 19.0417273 4.24909343 19.0146919 4.40279577 18.9845959 4.32769691 20.0139798 3.95570723 21.9171666 2.28050201 22.625697L1.76882845 22.8409596 2.04569291 23.3321869C2.07222785 23.3770758 2.69404639 24.4467576 4.10189967 24.4467576 4.71720965 24.4447171 5.19583972 24.2881161 5.55381094 24.0988687 5.60788212 24.5645909 5.72053041 25.1629394 5.94031973 25.8316818 6.44999065 27.3767778 5.97536587 28.4607424 5.95734214 28.504101L5.70551064 29.0437879 6.27425932 29.1973283C6.31180876 29.2070202 6.66176944 29.2967979 7.07531382 29.2967979 7.26856822 29.2967979 7.4473035 29.2753738 7.60901638 29.236606 8.04008383 29.1330555 8.37352276 28.9381969 8.62685625 28.716303 8.78105924 29.2003889 9.04590787 29.7472172 9.50551289 30.231303 10.2870417 31.0500152 11.4110213 31.4626869 12.8794543 31.4626869L13.7691255 31.4504444 13.2769776 30.685293 13.2769776 30.685293 13.2769776 30.685293z"/>
      <path fill="#1A1918" d="M4.73273009 11.4830505C5.10822438 11.0897626 5.50324437 10.9719293 5.84469386 10.9719293 6.36888389 10.9719293 6.76590652 11.2555454 6.76590652 11.2555454 5.34904138 12.0247778 5.05665649 13.2587121 4.24759146 13.5367172 4.11391549 13.5851768 3.97523293 13.6055808 3.83705103 13.6055808 3.24176741 13.6055808 2.66550883 13.2133131 2.46874982 12.7654444 2.46874982 12.7654444 3.56018657 12.697601 4.73273009 11.4830505M3.83705103 14.0988485C4.03230807 14.0988485 4.22305916 14.0692627 4.40329642 14.0065202 4.91146537 13.8346162 5.23439046 13.4239848 5.57533928 12.9954999 5.92429864 12.5578333 6.31581403 12.0630354 6.99570903 11.6942323L7.69512974 11.3121666 7.04577494 10.8469546C6.99170376 10.8122677 6.5045625 10.4771313 5.84469386 10.4771313 5.30298075 10.4771313 4.80031906 10.7025959 4.38577335 11.1336313 3.37644469 12.1834192 2.47225443 12.2675858 2.4397116 12.2686061L1.73578495 12.3109444 2.02466523 12.9689748C2.31554815 13.6249646 3.07805189 14.0988485 3.83705103 14.0988485M7.01623606 19.8466666C6.94013587 17.9817374 7.41025473 16.470308 8.14572289 15.2241313 7.73568312 16.5218283 7.79125627 18.1107929 9.18809505 19.5946768 9.18809505 19.5946768 6.41043859 16.2045454 10.2940509 12.7292273 11.8465947 11.4065353 13.5458315 10.5898636 14.4204829 10.0114091 11.2598222 11.0622172 9.71629036 9.90530808 9.71629036 9.90530808 10.7246177 10.7969646 12.0323392 10.7816616 12.8429062 10.6531162 12.6236175 10.7622778 12.3933143 10.8760303 12.1484921 11.0112071 9.48198192 12.4864192 7.08732964 14.9139899 6.67678921 18.2755556L6.67678921 18.2500505C6.05747395 21.5509142 4.67865891 22.398192 4.67865891 22.398192 5.7756029 21.8467728 6.4665124 20.383803 6.63473385 19.8568687 6.81797507 22.7583233 8.20730395 24.7711818 9.8319426 26.7095656 10.6750524 27.7144647 10.9719433 28.6913081 10.9719433 28.6913081 10.9719433 28.6913081 10.8072265 27.5843889 10.0752629 26.6835505 8.56177057 24.8283131 7.12187511 22.5175555 7.01623606 19.8466666M19.4075477 13.0454899L19.4075477 13.7121919C19.633345 13.4321465 20.0684178 13.4892778 20.0684178 13.4892778L20.0684178 14.4503081C20.0684178 14.4503081 20.0538986 14.9231717 19.8886812 15.1277222L20.8324234 15.1277222C20.6697093 14.9231717 20.6531875 14.4503081 20.6531875 14.4503081L20.6531875 13.4892778C20.6531875 13.4892778 21.0897622 13.4321465 21.3140575 13.7121919L21.3140575 13.0454899 19.4075477 13.0454899M19.0020139 9.09220707C19.3039114 9.33603535 19.4781407 9.37684344 19.483648 9.38041414L19.6018034 9.43601515 19.6018034 8.80859091 18.4928437 8.33368687C18.4928437 8.33368687 18.5023562 8.69738889 19.0020139 9.09220707M21.6384846 9.09220707C22.1396442 8.69738889 22.1491568 8.33368687 22.1491568 8.33368687L21.0401969 8.80859091 21.0401969 9.43601515 21.1573511 9.38041414C21.1633591 9.37684344 21.3375885 9.33603535 21.6384846 9.09220707"/>
      <path fill="#1A1918" d="M20.3197485,7.42060606 L17.6487324,6.34531313 C17.8760317,5.79746465 18.9234104,5.33123232 20.3197485,5.32970202 C21.7180893,5.33123232 22.765468,5.79746465 22.9917659,6.34531313 L20.3197485,7.42060606 L20.3197485,7.42060606 L20.3197485,7.42060606 Z M22.3113703,10.7888031 L20.5160069,11.752894 L20.5160069,7.84960101 L22.9527146,7.00691415 L22.3113703,10.7888031 L22.3113703,10.7888031 L22.3113703,10.7888031 Z M23.423334,11.8248182 L24.2444149,12.3104343 L24.2559301,12.3104343 L24.4622016,12.4333687 C23.9985913,12.5639545 23.6446254,12.8001313 23.3472339,13.1102728 C23.3362194,13.1199647 23.3267068,13.1311869 23.314691,13.1429192 C23.2466015,13.2168838 23.1790124,13.2964596 23.1139268,13.3790959 C23.1024116,13.394399 23.0893945,13.4107222 23.0758767,13.4290859 C23.0127937,13.5122324 22.9527146,13.5979293 22.8951388,13.6861768 C22.8856263,13.7014798 22.8746117,13.7167828 22.8645985,13.7315757 C22.7970096,13.8351263 22.7314232,13.9453081 22.6668382,14.0595707 C22.0820685,15.0858939 21.1493406,15.6990353 20.3197485,15.7005656 C19.4911579,15.6990353 18.5579293,15.0858939 17.9741609,14.0595707 C17.9105771,13.9483687 17.8464928,13.8407374 17.7789038,13.7361667 C17.765386,13.7167828 17.7533702,13.6963788 17.7408537,13.6795454 C17.6837786,13.5943586 17.6257022,13.5107021 17.5676257,13.4321465 C17.552606,13.4107222 17.5390881,13.394399 17.5240684,13.3760354 C17.4609853,13.2964596 17.395399,13.2179041 17.329312,13.1454697 C17.3152935,13.1337373 17.3057811,13.1199647 17.2937653,13.1082323 C16.9948717,12.7975808 16.6419072,12.5639545 16.1777962,12.4333687 L16.3860704,12.3104343 L16.3955828,12.3104343 L17.2181657,11.8248182 L18.0617762,11.3325708 L20.3157433,12.5828283 L20.3197485,12.5777273 L20.3262571,12.5828283 L22.5797235,11.3325708 L23.423334,11.8248182 L23.423334,11.8248182 L23.423334,11.8248182 Z M26.6620975,15.2970758 C26.4783556,15.7913636 26.3261553,16.3264596 26.3261553,16.858495 L26.3276573,20.2935152 C25.62323,20.1731314 25.5401205,19.4003283 25.5371166,19.3666616 L25.5240994,19.2095505 L25.3723998,19.1957777 C25.0664971,19.1656818 24.8632295,19.0340758 24.6920041,18.8647222 C24.3465494,18.5127525 24.3460488,17.9424596 24.3465494,17.9373586 C24.3415428,17.9664344 23.9665492,18.5020404 24.4021225,19.0876364 C24.5853637,19.333505 24.8512137,19.4855152 25.1946658,19.5451969 C25.2752719,19.9736818 25.5886845,20.5791717 26.3276573,20.6715 L26.3276573,22.352793 L24.2489208,22.352793 C23.2906595,21.8090253 23.6966939,20.8530959 23.7152183,20.8117778 L23.7963251,20.6306919 L23.6130838,20.5597879 C22.574717,20.1675201 22.861094,19.1126313 22.8746117,19.0672323 L22.9166671,18.9131818 L22.7749806,18.8453384 C21.9183529,18.4403182 22.0340052,17.3502323 22.0455203,17.3043233 C21.7816731,17.5226465 21.6870485,17.9664344 21.8682871,18.4020606 C21.7701579,18.5168333 21.6384846,18.6545606 21.4937941,18.8070808 C20.6061255,18.5765151 20.5785892,17.7455606 20.5785892,17.707303 L20.5765866,17.5792677 L20.4599331,17.5333586 C20.113477,17.4027727 19.875664,17.2063838 19.7580091,16.9431717 C19.6268365,16.6513939 19.6728971,16.3458434 19.7089446,16.1984242 C19.811079,16.222399 19.9117114,16.2382121 20.0083386,16.2468839 C20.1084705,16.2570858 20.2106049,16.2637172 20.3137406,16.2637172 L20.3277591,16.2637172 C20.4303942,16.2637172 20.532028,16.2570858 20.6321598,16.2468839 C21.1853881,16.1907728 21.8042027,15.9489849 22.4495522,15.2970758 L26.6620975,15.2970758 L26.6620975,15.2970758 L26.6620975,15.2970758 Z M24.0646783,30.2665 L24.2969841,29.034096 C24.3089999,28.9616616 24.3240198,28.8769849 24.3340329,28.8060808 C24.4001199,28.8341364 24.4687101,28.8565808 24.5438091,28.8708636 C24.6309237,28.8876969 24.7105285,28.8963687 24.7831241,28.8963687 C25.1375907,28.8963687 25.3443628,28.7066111 25.4815434,28.544399 L25.6592774,28.3332172 L25.5140863,28.1011212 C25.5010692,28.0781667 25.1786447,27.5593939 24.9313192,27.2043636 C24.8822545,27.1344798 24.836194,27.0651061 24.789132,26.9901213 C24.5072609,26.5606161 24.154797,26.0224596 23.4473657,26.0224596 L23.3842827,26.02399 C23.2681297,26.0316414 23.167998,26.0551061 23.0868912,26.0862223 C22.8645985,25.9806313 22.6352967,25.9255404 22.396983,25.9255404 C22.1040975,25.9255404 21.8587745,26.0076666 21.6945584,26.0642879 C21.6474964,26.0785708 21.605441,26.0933637 21.5723975,26.0999949 L20.2506576,25.9673687 C20.2341359,25.9637979 20.1805653,25.9316616 20.1144783,25.8525959 L20.1144783,25.8459647 L20.4003547,25.7291515 C20.3197485,24.7584293 19.4055451,24.1616111 18.8953735,23.9591011 C18.8733445,23.8621818 18.827284,23.7652626 18.7471785,23.686197 L18.4633048,23.4117627 L18.2134759,23.716803 L18.0908145,23.8718738 L16.2398779,23.0975404 L17.4439629,24.6375353 L16.9688375,25.3710606 C16.7951087,25.5587778 16.9868612,25.7480253 16.9868612,25.7480253 L17.4780078,26.0923434 L17.9866774,25.8990152 C18.0042005,25.8990152 18.0197208,25.903096 18.0372439,25.9051363 C18.012211,25.9836919 17.9801688,26.2928131 17.9591411,26.3790202 L17.0759786,26.2025253 L16.1482573,26.7360909 C15.6711292,27.0931616 15.6060435,27.6833484 15.7832768,28.0878586 L15.885912,28.316894 L16.0326051,28.6408081 L16.3570321,28.504101 C16.3615381,28.5025707 16.366044,28.5010404 16.3690479,28.4984899 C16.2523943,28.8785151 16.299957,29.2396667 16.5077305,29.4763535 L16.7049902,29.7288536 L16.9673355,30.0665404 L17.2552144,29.751298 C17.3393252,29.665601 17.6146877,29.3518889 17.6987984,29.0835757 L17.7613807,28.8785151 L17.6211963,28.720894 L17.5976652,28.6923283 L17.7558736,28.4265657 L18.9083907,28.7035505 L19.1682328,28.7642526 L19.305914,28.5321566 L19.3810128,28.4061616 C19.3955319,28.3791263 19.3990366,28.3750455 19.4521064,28.3750455 C19.4931605,28.3750455 19.5337139,28.3791263 19.5777718,28.3893283 C20.0128446,28.4729849 20.4138725,28.514303 20.7703418,28.514303 C21.1152958,28.514303 21.322068,28.5010404 21.5678916,28.4178939 C21.5678916,28.4178939 22.1867062,29.1340758 22.2082345,29.1616212 L21.828735,30.3532172 L21.8122132,30.4251415 C21.0942681,30.4843131 20.7448081,30.6449949 20.3222518,31.0745 C19.7089446,30.4547273 19.2743724,30.3894344 17.6257022,30.3894344 C15.6521042,30.3894344 14.3143432,29.2105909 14.3143432,27.327298 L14.3143432,22.7236363 L26.3276573,22.7236363 L26.3301606,27.327298 C26.3301606,28.8535202 25.4505026,29.9191212 24.0646783,30.2665 L24.0646783,30.2665 L24.0646783,30.2665 Z M16.6654381,27.6634546 L16.7280205,27.8226061 C16.6864658,27.9618637 16.2178489,28.1587626 16.2178489,28.1587626 L16.1167157,27.9327879 C16.0090741,27.6920202 16.0326051,27.2859798 16.3585341,27.0375606 L17.1185346,26.5662272 L17.9245956,26.7401717 C17.9095759,27.0008333 18.0622768,27.195692 18.0622768,27.195692 L17.2181657,27.0304192 L16.7130007,27.3859596 C16.6268873,27.4471717 16.6208794,27.5593939 16.6654381,27.6634546 L16.6654381,27.6634546 L16.6654381,27.6634546 Z M23.9380115,28.9647222 L23.6786702,30.3414849 C23.5129521,30.3654596 23.3387227,30.377702 23.1579848,30.3848434 L23.4313446,29.0616414 C23.5129521,28.6683535 22.4760871,28.5459293 21.9639129,27.7726162 C21.714084,28.0587828 21.2434645,28.1444798 20.7703418,28.1444798 C20.3387737,28.1444798 19.9072055,28.074596 19.6448602,28.0215454 C19.5782725,28.0108334 19.5146888,28.0031818 19.4521064,28.0031818 C19.3009074,28.0031818 19.1627255,28.0511313 19.0670996,28.2138535 L18.9920007,28.3434192 L17.5796415,28.0047121 L17.2281789,28.5974495 C17.1791143,28.6938586 17.175109,28.7744545 17.2552144,28.8642324 L17.3503397,28.9703333 C17.2847533,29.1799848 16.9908664,29.4972677 16.9908664,29.4972677 L16.7810903,29.2299748 C16.6148715,29.0407273 16.6419072,28.6938586 16.8151351,28.3730051 L17.3753726,27.4094242 L18.5719478,27.5854091 L18.3862033,27.1538637 C18.1363744,26.5825506 18.517376,25.8566768 18.5579293,25.438394 C18.5439109,25.564899 18.4297607,25.5934647 18.2975866,25.5934647 C18.1769278,25.5934647 18.0422506,25.57 17.9526325,25.57 C17.9170857,25.57 17.8870462,25.5735707 17.8710251,25.5858132 L17.5465981,25.7862828 L17.2912619,25.5557172 C17.2602211,25.5118485 17.2507085,25.4077879 17.3253067,25.3302525 L17.9170857,24.6538585 L17.2181657,23.8218838 L18.1969541,24.322803 L18.4963483,23.9534899 C18.5784563,24.0356162 18.5424089,24.2498586 18.5424089,24.2498586 C18.847811,24.2575101 19.7049393,24.7400657 19.7504992,25.8673888 C19.7530025,25.9020757 19.7530025,25.9403334 19.7530025,25.9775707 C19.7530025,25.9775707 19.761013,25.9918536 19.7760329,26.014808 C19.836112,26.0999949 20.0038327,26.317298 20.2156115,26.337192 L21.5688929,26.473899 L21.5744002,26.473899 C21.7225952,26.473899 22.0179841,26.2963838 22.396983,26.2963838 C22.6037552,26.2963838 22.8330571,26.3499445 23.0778793,26.5070556 C23.0778793,26.5070556 23.2015421,26.4075858 23.4008044,26.3973839 C23.4158242,26.3953435 23.4333472,26.3953435 23.4473657,26.3953435 C24.0541645,26.3953435 24.3064967,26.9544142 24.6324258,27.4186061 C24.877248,27.7726162 25.204679,28.297 25.204679,28.297 C25.0840201,28.4428889 24.9718726,28.5245051 24.7831241,28.5245051 C24.7315562,28.5245051 24.6729791,28.5204243 24.6088947,28.5071616 C23.9575373,28.3847374 23.8639141,27.0212374 23.4924251,26.913606 C23.4723987,26.9079949 23.4523723,26.9059545 23.4333472,26.9059545 C23.3136897,26.9059545 23.2616212,27.014096 23.2616212,27.014096 C23.4313446,27.479308 23.3322141,27.6670253 23.5149547,28.0251161 C23.6511339,28.2908787 23.8939536,28.509202 23.9935848,28.6127525 C23.9935848,28.6127525 23.9665492,28.8142424 23.9380115,28.9647222 L23.9380115,28.9647222 L23.9380115,28.9647222 Z M22.6918712,30.3940252 C22.5096312,30.3940252 22.3419105,30.3965758 22.1912122,30.402697 L22.5877341,29.1447879 C22.6498158,28.9703333 22.3364033,28.746399 22.2067325,28.5500101 C22.4019896,28.6749849 22.9081559,28.9489091 23.1514763,29.0580707 C23.1269439,29.0988788 22.6918712,30.3940252 22.6918712,30.3940252 L22.6918712,30.3940252 L22.6918712,30.3940252 Z M16.7976121,19.0585606 L16.8541866,16.8717576 L17.3358205,16.3524748 L17.6382186,16.9977525 L17.0419337,19.0968182 L16.7976121,19.0585606 L16.7976121,19.0585606 L16.7976121,19.0585606 Z M17.1440681,19.7359747 C17.2231723,19.9043081 17.3648588,20.0165303 17.4639893,20.080293 C17.4609853,20.2384243 17.4459656,20.4827626 17.4054122,20.6990455 C17.395399,20.747505 17.3833832,20.7918839 17.3703661,20.8362626 C17.3633568,20.8643181 17.3553463,20.8872727 17.349839,20.9056363 C17.2021446,20.9056363 16.913765,20.8872727 16.6769533,20.7995354 C16.4151086,20.7010859 16.0245945,20.211899 16.1147131,19.6722121 C16.227862,19.6018182 16.4902074,19.4513384 16.736031,19.4513384 C16.9247795,19.4513384 17.0539496,19.5421364 17.1440681,19.7359747 L17.1440681,19.7359747 L17.1440681,19.7359747 Z M22.722912,20.3236111 C22.3524244,20.6016161 21.3981682,21.3116767 21.0517121,21.5580556 L17.7198261,20.9479748 C17.7278367,20.9173687 17.7358472,20.8872727 17.7428564,20.8576869 C17.7864138,20.6811919 17.831473,20.4409344 17.8334757,20.1578283 L20.6341625,20.2037373 L20.687733,20.1481364 C20.730289,20.1047778 21.6174568,19.2314848 22.0695519,18.7290354 C22.1771937,18.8667627 22.3113703,18.9978586 22.488103,19.1126313 C22.4280239,19.4472576 22.4535575,19.9226717 22.722912,20.3236111 L22.722912,20.3236111 L22.722912,20.3236111 Z M18.1919476,15.2970758 C18.5924748,15.702606 18.9844908,15.954596 19.3569812,16.0933434 C19.3089179,16.2892222 19.2453343,16.6932222 19.4245702,17.0956919 C19.5712632,17.4201161 19.8371132,17.6700657 20.2216194,17.8368686 C20.2636747,18.2383182 20.513003,18.8417677 21.2019098,19.1075303 C20.8995118,19.4176717 20.6061255,19.7099596 20.4874693,19.8277929 L17.6927905,19.782904 C17.6297074,19.7507676 17.5210644,19.6778232 17.4730011,19.5752929 C17.4674939,19.5605 17.458482,19.5528485 17.4524741,19.5385657 L17.9085745,19.6135505 C17.9185877,19.6150808 17.9281002,19.6150808 17.9376128,19.6150808 C18.0257287,19.6150808 18.1023296,19.5528485 18.1168487,19.4605202 C18.1318685,19.3579899 18.0647802,19.2631111 17.9661504,19.247298 L17.4054122,19.1570101 L18.0277314,16.9666363 L17.437955,15.702606 L16.4932114,16.7202576 L16.4351349,18.9978586 L15.8002992,18.8948182 C15.7021701,18.8754343 15.6085468,18.9483787 15.5910238,19.0498889 C15.576004,19.1498687 15.6430923,19.2452576 15.7427235,19.2631111 L16.0090741,19.3044293 C15.9139489,19.3595202 15.8508658,19.4033889 15.8433559,19.4095101 L15.7897854,19.4477677 L15.7747657,19.5156111 C15.6205626,20.1547677 15.969522,20.7612778 16.3470189,21.0326515 L16.3335012,21.1132474 C16.3179807,21.2116969 16.3400097,21.3075959 16.3980862,21.3876818 C16.4531587,21.469808 16.5367687,21.5187778 16.631894,21.5361212 C16.6514196,21.5396919 16.6724474,21.5412223 16.6904711,21.5412223 C16.8541866,21.5412223 16.9968743,21.4259394 17.0369271,21.2576061 C17.1771117,21.2744394 17.3057811,21.2780101 17.393897,21.2780101 L17.4689958,21.2780101 L21.1353221,21.9533838 L21.1979045,21.9110455 C21.4897888,21.7029242 22.6037552,20.8760505 22.9687356,20.6021262 C23.0693681,20.6903737 23.1815157,20.7699495 23.3171944,20.8362626 C23.1985382,21.2397525 23.1915289,21.8620758 23.6586438,22.352793 L14.3143432,22.352793 L14.3143432,16.858495 C14.3143432,16.3264596 14.1616421,15.7913636 13.9809042,15.2970758 L18.1919476,15.2970758 L18.1919476,15.2970758 L18.1919476,15.2970758 Z M17.6867825,7.00691415 L20.1249922,7.84960101 L20.1249922,11.752894 L18.3296288,10.7888031 L17.6867825,7.00691415 L17.6867825,7.00691415 L17.6867825,7.00691415 Z M23.6356136,6.53609091 C23.6356136,5.58373232 22.0620421,4.72676263 20.3257565,4.72676263 L20.3157433,4.72676263 C18.578957,4.72676263 17.0053856,5.58373232 17.0053856,6.53609091 L17.0399311,6.77022728 L17.7333438,10.8260404 L17.0369271,11.2382021 L15.2345545,12.3104343 L15.241063,12.3104343 C15.241063,12.3104343 14.8355292,12.5226364 14.6477821,12.6532222 C13.9613785,13.1388384 13.8156867,13.8473687 14.2142113,14.1401667 C14.3123405,13.5622222 14.7604304,12.9587727 15.6000356,12.9587727 C16.2043311,12.9587727 16.6654381,13.2765657 17.0369271,13.753 C17.1330537,13.8733838 17.223673,14.0019293 17.3082844,14.1401667 C17.4124214,14.3146213 17.5175598,14.4676515 17.6211963,14.6150707 L12.9785848,14.6150707 C13.3200342,15.3139091 13.6444613,16.0540657 13.6444613,16.858495 L13.6444613,27.327298 C13.6444613,29.8614798 15.556979,31.0709292 17.6257022,31.0709292 C19.2248073,31.0709292 19.4400906,30.9964546 20.3222518,31.8921919 C21.2004079,30.9964546 21.416192,31.0709292 23.0162983,31.0709292 C25.0865235,31.0709292 26.9965378,29.8614798 26.9965378,27.327298 L26.9965378,16.858495 C26.9965378,16.0540657 27.3204642,15.3139091 27.6634157,14.6150707 L23.0193022,14.6150707 C23.1229386,14.4676515 23.2275764,14.3146213 23.3322141,14.1401667 C23.4178269,14.0019293 23.5079454,13.8733838 23.6020694,13.753 C23.977063,13.2745253 24.4366681,12.9587727 25.0414641,12.9587727 C25.8800681,12.9587727 26.3276573,13.5622222 26.4272884,14.1401667 C26.8258131,13.8473687 26.6816232,13.1388384 25.991715,12.6532222 C25.8064712,12.5226364 25.4004367,12.3104343 25.4004367,12.3104343 L25.4069452,12.3104343 L23.6020694,11.2382021 L22.9081559,10.8260404 L23.6020694,6.77022728 L23.6356136,6.53609091 L23.6356136,6.53609091 L23.6356136,6.53609091 Z"/>
    </g>
  </g>
</svg>
