<svg xmlns="http://www.w3.org/2000/svg" width="267" height="74" viewBox="0 0 267 74">
  <g fill="none" fill-rule="evenodd">
    <path fill="#1A1919" d="M204.062 41.213L204.062 49.666 210.727 49.666C212.324 49.666 213.51 49.287 214.285 48.528 215.06 47.768 215.448 46.733 215.448 45.422 215.448 44.066 214.997 43.024 214.094 42.3 213.192 41.575 212.046 41.213 210.657 41.213L204.062 41.213zM204.062 31.966L204.062 38.832 210.639 38.832C211.862 38.832 212.814 38.496 213.494 37.824 214.175 37.153 214.516 36.327 214.516 35.348 214.516 34.323 214.205 33.503 213.581 32.888 212.958 32.273 212.024 31.966 210.777 31.966L204.062 31.966zM218.07 45.378C218.07 47.52 217.426 49.168 216.138 50.319 214.85 51.471 213.021 52.047 210.652 52.047L201.611 52.047 201.611 29.585 210.81 29.585C212.7 29.585 214.228 30.061 215.393 31.013 216.556 31.967 217.139 33.338 217.139 35.13 217.139 36.163 216.848 37.116 216.267 37.988 215.686 38.861 214.884 39.47 213.861 39.814L213.861 39.917C214.459 40.055 215.017 40.286 215.534 40.608 216.052 40.931 216.501 41.334 216.88 41.818 217.259 42.302 217.553 42.843 217.76 43.443 217.967 44.042 218.07 44.686 218.07 45.378L218.07 45.378zM231.216 44.835C230.529 44.445 229.841 44.134 229.154 43.904 228.467 43.674 227.641 43.559 226.68 43.559 225.58 43.559 224.652 43.853 223.896 44.439 223.141 45.025 222.762 45.871 222.762 46.975 222.762 48.079 223.083 48.919 223.724 49.494 224.366 50.069 225.294 50.357 226.508 50.357 227.401 50.311 228.255 50.069 229.068 49.632 229.881 49.195 230.597 48.665 231.216 48.044L231.216 44.835zM227.593 34.899C229.548 34.899 231.049 35.352 232.096 36.262 233.143 37.17 233.666 38.533 233.666 40.35L233.666 52.047 231.216 52.047 231.216 50.391 231.147 50.391C230.25 51.196 229.358 51.725 228.473 51.978 227.587 52.231 226.742 52.358 225.937 52.358 225.27 52.358 224.602 52.26 223.936 52.065 223.268 51.87 222.665 51.561 222.124 51.137 221.583 50.713 221.146 50.168 220.813 49.503 220.479 48.838 220.313 48.024 220.313 47.062 220.313 46.236 220.468 45.491 220.778 44.826 221.089 44.161 221.526 43.593 222.09 43.123 222.653 42.653 223.32 42.292 224.091 42.04 224.861 41.788 225.707 41.662 226.627 41.662 227.363 41.662 228.105 41.735 228.853 41.881 229.6 42.028 230.388 42.327 231.216 42.779L231.216 40.692C231.216 39.392 230.89 38.448 230.236 37.856 229.584 37.265 228.605 36.968 227.299 36.968 226.474 36.968 225.707 37.072 224.997 37.279 224.286 37.486 223.576 37.762 222.866 38.107L222.038 36.188C222.843 35.803 223.694 35.493 224.591 35.255 225.488 35.017 226.489 34.899 227.593 34.899L227.593 34.899zM250.642 52.047L248.192 52.047 248.192 41.938C248.192 40.35 247.881 39.137 247.261 38.297 246.639 37.457 245.627 37.037 244.224 37.037 243.189 37.037 242.303 37.377 241.567 38.055 240.831 38.734 240.336 39.557 240.083 40.522 239.968 40.983 239.911 41.477 239.911 42.006L239.911 52.047 237.461 52.047 237.461 35.209 239.911 35.209 239.911 37.589 239.98 37.624C240.599 36.658 241.366 35.963 242.284 35.537 243.201 35.111 244.084 34.899 244.933 34.899 246.881 34.899 248.32 35.468 249.249 36.606 250.177 37.745 250.642 39.396 250.642 41.557L250.642 52.047"/>
    <polyline fill="#1A1919" points="259.061 43.007 266.686 35.243 263.891 35.243 256.646 42.696 256.646 28.17 254.196 29.274 254.196 52.047 256.646 52.047 256.646 43.455 263.961 52.047 266.894 52.047 259.061 43.007"/>
    <polyline fill="#1A1919" points="88.765 31.939 95.328 31.939 95.328 52.038 100.01 52.038 100.01 31.939 106.35 31.939 106.35 28.018 88.765 28.018 88.765 31.939"/>
    <polyline fill="#1A1919" points="152.696 35.266 147.558 35.266 141.521 42.422 141.521 28.533 137.052 30.153 137.052 52.038 141.521 52.038 141.521 43.838 147.417 52.038 152.731 52.038 146.099 43.015 152.696 35.266"/>
    <path fill="#1A1919" d="M164.937 45.666C164.771 46.288 164.531 46.832 164.225 47.302 163.912 47.775 163.528 48.143 163.066 48.404 162.601 48.669 162.074 48.801 161.479 48.801 160.266 48.801 159.34 48.345 158.698 47.441 158.055 46.535 157.733 45.254 157.733 43.598 157.733 42.131 158.045 40.912 158.66 39.95 159.283 38.984 160.182 38.503 161.372 38.503 162.632 38.503 163.582 38.98 164.222 39.932 164.866 40.886 165.184 42.131 165.184 43.67 165.184 44.381 165.102 45.045 164.937 45.666M167.408 37.228C166.689 36.471 165.82 35.89 164.805 35.489 163.792 35.087 162.683 34.884 161.479 34.884 160.274 34.884 159.165 35.087 158.151 35.489 157.134 35.89 156.266 36.463 155.531 37.21 154.803 37.957 154.234 38.877 153.831 39.965 153.433 41.054 153.23 42.291 153.23 43.67 153.23 45.001 153.425 46.206 153.816 47.285 154.204 48.366 154.752 49.284 155.462 50.042 156.17 50.799 157.024 51.383 158.028 51.798 159.03 52.21 160.158 52.417 161.408 52.417 162.61 52.417 163.719 52.215 164.736 51.815 165.751 51.415 166.622 50.831 167.355 50.076 168.087 49.315 168.66 48.392 169.072 47.302 169.485 46.213 169.694 44.976 169.694 43.598 169.694 42.27 169.491 41.061 169.088 39.984 168.689 38.905 168.128 37.986 167.408 37.228M110.858 28.017C110.093 28.017 109.454 28.274 108.937 28.776 108.429 29.286 108.167 29.896 108.167 30.614 108.167 31.308 108.429 31.904 108.937 32.417 109.454 32.921 110.093 33.174 110.858 33.174 111.575 33.174 112.196 32.921 112.722 32.417 113.249 31.904 113.512 31.308 113.512 30.614 113.512 29.896 113.249 29.286 112.722 28.776 112.196 28.274 111.575 28.017 110.858 28.017"/>
    <polygon fill="#1A1919" points="108.586 52.038 113.091 52.038 113.091 35.224 108.586 35.224"/>
    <path fill="#1A1919" d="M127.025 35.068C123.75 34.826 121.898 36.616 121.898 36.616L121.898 35.232 117.393 35.232 117.393 52.038 121.898 52.038 121.898 42.022C121.898 40.321 123.32 38.94 125.074 38.94 126.827 38.94 128.249 40.321 128.249 42.022L128.249 52.038 132.752 52.038 132.752 42.092C132.752 36.821 129.692 35.265 127.025 35.068M173.978 34.884L173.978 35.195 171.277 35.195 171.277 38.641 173.978 38.641 173.978 52.038 178.482 52.038C178.482 52.038 178.482 43.974 178.484 38.641L181.174 38.641 181.174 35.195 178.486 35.195 178.486 34.844C178.486 32.524 179.572 31.383 181.699 31.718L182.4 28.24C175.549 27.423 173.978 31.069 173.978 34.884M185.6 34.884L185.6 35.195 182.901 35.195 182.901 38.641 185.6 38.641 185.6 52.038 190.107 52.038C190.107 52.038 190.107 43.974 190.108 38.641L192.799 38.641 192.799 35.195 190.11 35.195 190.11 34.844C190.11 32.524 191.196 31.383 193.321 31.718L194.024 28.24C187.172 27.423 185.6 31.069 185.6 34.884"/>
    <path fill="#D0D5D6" d="M19.579,57.357 L18.679,58.884 C18.358,57.878 17.776,56.834 17.401,56.096 C16.681,57.582 15.54,57.612 14.443,57.62 C14.685,54.059 10.214,50.478 12.179,46.416 C12.571,45.603 12.317,44.609 11.47,44.183 C8.47,42.659 9.859,48.981 6.861,49.171 C7.435,48.454 7.652,46.953 7.738,46.823 C7.1,46.989 5.572,47.959 4.886,46.716 C6.638,45.762 7.142,44.327 7.417,42.886 C7.766,41.063 7.926,40.219 8.281,39.469 C8.65,38.668 9.242,37.974 10.508,36.332 C10.208,36.378 6.833,37.088 6.077,36.734 C11.91,33.152 10.595,28.596 19.493,24.535 C17.161,22.803 14.774,21.422 16.485,18.111 C18.922,21.039 23.554,20.026 26.055,18.665 C23.583,18.17 20.399,15.994 19.641,13.57 C20.574,13.426 21.78,14.436 22.475,14.907 C22.809,14.013 22.942,12.972 24.026,12.746 C22.581,15.843 25.438,17.453 28.163,17.466 C28.584,17.466 30.347,17.291 30.347,17.291 C30.067,16.711 28.927,15.129 29.756,14.488 C30.422,15.114 31.216,15.613 31.941,16.168 C37.239,20.268 29.422,24.07 26.224,25.795 C21.205,28.507 22.548,31.732 24.645,32.557 C24.636,32.924 24.411,33.085 24.063,33.198 C22.597,33.688 21.22,32.642 20.051,31.971 C20.122,33.995 19.984,35.94 22.22,37.054 L20.678,37.618 C22.004,38.624 22.407,39.158 24.004,39.366 C23.258,39.727 22.333,39.721 21.541,39.795 C21.741,40.356 21.906,41.114 22.325,41.617 C19.057,42.004 17.75,40.139 16.74,40.216 C14.585,40.376 14.719,44.433 20.023,44.439 L19.473,45.346 C19.473,45.346 20.479,45.933 21.398,46.046 C21.046,46.331 20.705,46.716 20.409,47.01 L21.256,47.739 C19.092,48.128 18.478,45.825 17.075,46.936 C14.933,48.633 19.655,52.216 24.183,51.681 C23.802,52.168 22.74,52.884 22.279,53.257 C25.97,56.743 24.149,60.024 25.667,62.428 C22.487,62.217 20.13,59.882 19.579,57.357 M23.727,53.437 C24.751,52.623 25.597,52.217 25.557,50.254 C24.02,51.038 19.658,50.997 17.837,48.488 C17.321,47.776 17.871,47.417 18.37,47.978 C19.616,49.392 21.926,48.751 22.769,48.342 C22.636,47.858 22.261,47.224 21.946,46.953 C22.261,46.641 23.153,46.181 23.337,45.385 C22.858,45.126 21.008,44.941 21.008,44.941 C21.306,44.657 21.676,44.256 21.455,43.197 C19.565,43.778 17.23,42.99 16.699,42.289 C16.177,41.602 16.711,40.957 17.147,41.41 C18.089,42.401 22.732,43.534 24.46,41.813 C23.818,41.637 23.111,41.063 22.982,40.709 C24.58,40.549 25.856,39.605 25.96,38.429 C25.076,38.429 23.407,38.365 22.839,37.937 C23.606,37.654 24.088,37.376 24.33,36.519 C21.407,36.342 21.176,34.171 21.161,33.811 C23.063,34.909 26.414,34.423 25.548,31.718 C23.968,31.634 22.37,29.071 26.725,26.714 C30.682,24.574 35.185,22.264 34.789,18.46 C34.529,16.029 30.521,14.367 30.013,13.135 C28.341,13.931 28.002,14.855 28.757,16.403 C28.757,16.403 25.033,16.774 24.739,14.481 C24.61,13.452 25.297,12.489 26.034,11.755 C25.617,11.755 22.809,11.004 21.963,13.291 C20.387,12.217 19.043,12.256 17.982,13.389 C19.674,14.395 20.723,17.838 23.519,18.855 C21.529,19.935 18.312,19.481 16.434,16.168 C14.658,18.845 13.636,21.495 17.444,24.324 C10.511,27.481 10.561,33.51 4.531,36.384 C5.144,38.027 6.434,38.027 8.076,37.77 C5.468,41.159 7.69,44.703 3.564,46.153 C3.949,47.534 4.724,48.635 6.248,48.232 C5.814,48.908 5.529,48.893 4.855,49.636 C7.111,51.057 9.787,50.027 10.393,45.47 C10.502,44.657 11.623,45.165 11.234,45.963 C8.662,51.282 15.166,55.282 12.865,59.184 C14.896,59.099 16.439,58.942 17.288,58.255 C17.701,59.074 17.948,59.885 17.86,60.684 C18.98,60.457 19.389,59.791 19.466,59.035 C20.201,61.174 22.826,63.463 27.029,63.463 C24.8,60.29 26.875,57.067 23.727,53.437"/>
    <path fill="#D0D5D6" d="M13.759 44.638C14.524 45.437 15.454 45.519 17.216 45.407 15.28 45.174 14.194 44.703 13.52 43.418 13.419 42.756 13.354 42.047 13.326 41.288 13.266 39.252 13.936 36.826 15.344 34.171 15.334 35.837 16.656 38.456 19.601 38.892 16.951 37.734 15.396 35.126 16.243 32.604 16.795 31.721 17.418 30.811 18.113 29.887 18.463 29.44 18.802 29.01 19.135 28.609 18.778 29.897 20.336 31.227 21.378 31.449 20.812 30.898 19.601 29.107 22.399 26.114 21.617 26.482 20.754 27.005 20.1 27.518 25.186 22.022 29.364 21.869 31.285 19.105 28.503 21.006 21.14 22.032 17.832 21.134 19.658 22.355 24.059 22.243 25.134 22.016 21.545 25.505 13.71 29.107 12.354 32.314 14.264 30.22 15.497 29.836 17.149 29.296 15.848 31.238 14.676 32.947 13.868 34.928 11.784 39.455 8.996 39.512 8.813 43.247 9.764 40.353 11.693 39.62 13.031 37.719 12.794 38.933 12.685 40.277 12.727 41.832 12.774 43.521 13.112 45.005 13.649 46.332 13.513 48.179 13.678 51.331 15.794 53.412 14.356 51.591 14.047 48.633 14.175 47.479 15.831 50.676 20.556 55.09 22.839 58.058 20.556 54.242 14.958 49.783 13.759 44.638M66.04 29.296C67.686 29.838 68.926 30.22 70.833 32.314 69.479 29.107 61.638 25.504 58.049 22.015 59.129 22.242 63.528 22.355 65.354 21.134 62.049 22.032 54.683 21.006 51.9 19.105 53.823 21.869 57.999 22.023 63.086 27.518 62.434 27.005 61.569 26.482 60.786 26.114 63.582 29.107 62.374 30.895 61.807 31.449 62.85 31.227 64.406 29.899 64.051 28.609 64.385 29.01 64.727 29.44 65.073 29.887 65.773 30.811 66.391 31.721 66.942 32.604 67.79 35.126 66.23 37.734 63.588 38.892 66.533 38.457 67.855 35.837 67.84 34.171 69.248 36.826 69.923 39.252 69.859 41.288 69.834 42.047 69.765 42.756 69.667 43.418 68.99 44.703 67.904 45.175 65.975 45.407 67.733 45.519 68.657 45.437 69.431 44.638 68.228 49.783 62.631 54.24 60.347 58.058 62.631 55.09 67.35 50.676 69.011 47.479 69.14 48.633 68.83 51.591 67.396 53.412 69.508 51.331 69.673 48.179 69.538 46.331 70.073 45.003 70.407 43.521 70.458 41.832 70.508 40.277 70.391 38.933 70.155 37.719 71.493 39.62 73.422 40.353 74.374 43.247 74.194 39.512 71.405 39.455 69.317 34.928 68.512 32.947 67.343 31.238 66.04 29.296"/>
    <path fill="#D0D5D6" d="M75.457 46.823C75.537 46.953 75.749 48.454 76.324 49.172 73.324 48.981 74.717 42.659 71.716 44.183 70.869 44.609 70.616 45.603 71.01 46.416 72.973 50.478 68.5 54.059 68.751 57.62 67.646 57.612 66.498 57.582 65.782 56.096 65.412 56.834 64.825 57.878 64.507 58.884L63.609 57.357C63.053 59.882 60.697 62.218 57.52 62.428 59.029 60.024 57.217 56.743 60.907 53.257 60.445 52.887 59.386 52.168 59.003 51.681 63.534 52.216 68.256 48.633 66.11 46.936 64.709 45.825 64.091 48.128 61.932 47.739L62.778 47.01C62.483 46.714 62.137 46.332 61.788 46.046 62.71 45.933 63.713 45.346 63.713 45.346L63.163 44.439C68.469 44.433 68.595 40.376 66.449 40.216 65.44 40.139 64.127 42.006 60.862 41.618 61.275 41.114 61.444 40.354 61.647 39.795 60.861 39.721 59.927 39.727 59.184 39.366 60.781 39.157 61.182 38.624 62.508 37.618L60.971 37.054C63.203 35.94 63.067 33.994 63.133 31.971 61.969 32.644 60.586 33.688 59.126 33.198 58.778 33.085 58.551 32.924 58.542 32.557 60.639 31.732 61.975 28.507 56.963 25.795 53.767 24.07 45.946 20.268 51.246 16.167 51.97 15.613 52.76 15.114 53.427 14.488 54.258 15.129 53.122 16.711 52.837 17.291 52.837 17.291 54.599 17.468 55.017 17.468 57.749 17.453 60.611 15.841 59.163 12.746 60.247 12.972 60.375 14.013 60.706 14.907 61.403 14.436 62.611 13.426 63.546 13.57 62.787 15.994 59.607 18.17 57.133 18.665 59.631 20.026 64.264 21.039 66.7 18.111 68.411 21.422 66.028 22.803 63.692 24.537 72.589 28.596 71.277 33.15 77.112 36.734 76.358 37.088 72.976 36.376 72.674 36.332 73.947 37.974 74.54 38.668 74.909 39.469 75.262 40.219 75.418 41.061 75.767 42.886 76.046 44.327 76.55 45.762 78.299 46.714 77.614 47.959 76.087 46.989 75.457 46.823M75.11 37.77C76.751 38.025 78.042 38.025 78.655 36.382 72.624 33.51 72.674 27.481 65.74 24.324 69.551 21.495 68.524 18.845 66.755 16.167 64.879 19.481 61.651 19.935 59.671 18.855 62.463 17.838 63.515 14.395 65.205 13.389 64.148 12.256 62.795 12.217 61.225 13.291 60.371 11.002 57.571 11.755 57.15 11.755 57.883 12.488 58.578 13.452 58.447 14.481 58.157 16.774 54.431 16.405 54.431 16.405 55.181 14.855 54.848 13.931 53.176 13.135 52.663 14.368 48.66 16.029 48.403 18.459 48.002 22.264 52.506 24.574 56.463 26.714 60.818 29.071 59.219 31.634 57.642 31.718 56.767 34.423 60.121 34.909 62.025 33.811 62.016 34.171 61.776 36.342 58.853 36.519 59.099 37.376 59.58 37.654 60.348 37.939 59.775 38.365 58.11 38.429 57.225 38.429 57.332 39.605 58.608 40.547 60.206 40.706 60.078 41.061 59.369 41.637 58.728 41.813 60.455 43.534 65.095 42.401 66.04 41.41 66.472 40.957 67.003 41.602 66.489 42.288 65.954 42.99 63.621 43.778 61.731 43.197 61.514 44.256 61.88 44.657 62.175 44.941 62.175 44.941 60.326 45.126 59.848 45.385 60.028 46.181 60.926 46.641 61.24 46.953 60.926 47.224 60.552 47.858 60.418 48.342 61.265 48.751 63.576 49.391 64.813 47.978 65.318 47.417 65.866 47.775 65.354 48.488 63.528 50.997 59.169 51.037 57.629 50.254 57.586 52.217 58.434 52.623 59.459 53.438 56.31 57.067 58.389 60.29 56.16 63.463 60.357 63.463 62.985 61.174 63.722 59.035 63.803 59.791 64.206 60.457 65.326 60.684 65.24 59.885 65.489 59.074 65.895 58.255 66.747 58.942 68.296 59.099 70.319 59.184 68.022 55.282 74.527 51.282 71.949 45.963 71.566 45.164 72.686 44.657 72.794 45.47 73.397 50.027 76.076 51.057 78.334 49.636 77.653 48.893 77.374 48.908 76.941 48.232 78.46 48.635 79.236 47.534 79.626 46.153 75.498 44.703 77.719 41.158 75.11 37.77M33.122 54.365L34.362 53.424C34.582 53.256 34.723 53.15 34.977 53.183L36.724 53.412C36.819 53.832 37.098 54.242 37.098 54.242L35.24 53.85C34.977 53.819 34.9 53.832 34.652 54.009L33.773 54.674C33.599 54.812 33.594 55.026 33.692 55.239L33.835 55.546 33.219 56.011 32.985 55.568C32.746 55.095 32.73 54.665 33.122 54.365M35.961 51.081L35.637 51.252C35.415 51.381 35.301 51.439 35.108 51.196L34.967 51.02C34.899 50.937 34.875 50.728 35.019 50.572L36.402 48.957 35.126 47.911 36.751 48.51 37.345 47.769C37.519 47.919 37.458 48.347 37.458 48.347 38.116 48.347 40.027 49.296 40.1 51.675 40.1 51.675 40.531 52.314 41.082 52.348L43.897 52.518C44.362 52.518 45.529 51.629 47.029 52.47 47.408 52.24 47.814 52.058 48.231 52.012 49.551 51.914 50.524 52.835 51.249 53.761 51.778 54.432 52.503 55.46 52.503 55.46 52.192 55.83 51.883 55.955 51.626 55.861 51.234 55.663 51.11 55.347 50.986 54.912 50.789 54.221 50.028 53.63 50.028 53.63 50.285 54.095 50.34 54.621 50.463 55.103 49.364 54.016 49.155 52.684 48.387 52.503 48.045 52.418 47.652 52.562 47.282 52.99 47.671 53.888 47.652 54.933 48.048 55.629 48.35 56.152 48.412 56.198 48.549 56.313 48.874 56.546 48.688 56.963 48.639 57.269L48.222 59.883 47.521 59.883 47.983 57.324C48.124 56.546 45.936 56.546 44.816 55.06 43.861 56.174 41.184 55.895 40.027 55.721 39.56 55.653 39.105 55.681 38.847 56.142 38.698 56.402 38.444 56.324 38.291 56.286L36.18 55.83C35.809 55.744 35.649 55.818 35.484 56.158L35.06 57.033C34.967 57.238 34.971 57.386 35.139 57.55L35.341 57.765C35.221 58.187 34.839 58.505 34.839 58.505L34.377 57.987C34.154 57.725 34.143 57.343 34.321 56.972L35.004 55.548C35.084 55.392 35.228 55.219 35.518 55.219L38.131 55.176 37.33 53.874C36.733 52.895 37.722 51.154 37.575 50.331 37.501 51.435 36.169 50.93 35.961 51.081M46.833 57.104L45.706 59.883 45.005 59.883 46.131 57.192C46.248 56.846 46.027 56.682 45.746 56.301 46.163 56.538 46.463 56.69 46.971 56.887 46.925 56.963 46.873 57.008 46.833 57.104M33.085 56.789L34.353 55.714 34.16 55.326C34.022 55.053 34.096 55.032 34.244 54.925L34.91 54.426C35.066 54.298 35.228 54.313 35.421 54.359L37.43 54.832 35.31 54.832C34.817 54.864 34.674 55.053 34.501 55.414L34.353 55.714 33.807 56.834C33.621 57.22 33.526 57.733 34.012 58.316L34.398 58.772 33.617 60.356 34.276 60.356 34.815 59.255C34.858 59.216 35.658 58.49 35.825 57.733 35.597 57.548 35.432 57.416 35.559 57.152L35.805 56.629C35.883 56.454 35.912 56.382 36.145 56.43L38.257 56.887C38.52 56.957 38.906 57.073 39.187 56.65 39.478 56.207 39.516 56.256 40.186 56.324L41.263 56.437C42.735 56.577 44.204 56.207 44.778 55.754 44.977 56.212 45.375 56.562 45.562 56.917 45.63 57.048 45.517 57.235 45.425 57.467L44.216 60.356 46.08 60.356 47.136 57.716C47.234 57.467 47.375 57.265 47.487 57.167L46.881 60.356 48.688 60.356 49.17 57.196C49.275 56.498 49.213 56.269 48.877 55.983 48.121 55.347 48.139 54.009 47.895 53.196 48.025 53.123 48.172 53.085 48.35 53.106 48.745 53.146 49.04 54.151 49.505 54.797 50.429 56.099 51.698 57.536 53.146 55.512 53.005 55.282 52.85 55.069 52.677 54.87L52.273 54.398C52.038 54.135 50.915 52.853 50.45 52.39 49.387 51.323 47.757 51.484 47.108 52.002 45.636 51.233 44.084 52.042 43.717 52.012L41.183 51.859C41.069 51.852 40.892 51.812 40.77 51.616L41.239 51.461C40.798 49.627 39.69 48.09 37.755 47.828 37.755 47.828 37.642 47.248 37.348 47.136L36.77 47.818C36.607 47.84 36.428 47.889 36.283 47.953L33.813 47.035 35.668 48.908C35.668 48.908 34.705 50.27 34.432 50.548 34.251 50.802 34.269 51.002 34.471 51.247L34.832 51.72C35.019 51.962 35.221 51.955 35.518 51.802L35.925 51.591C36.099 51.442 36.697 51.735 36.95 51.502 36.786 52.035 36.708 52.547 36.668 52.956L35.004 52.755C34.639 52.708 34.475 52.755 34.251 52.929L32.832 54.022C32.368 54.379 32.223 54.994 32.512 55.591L33.085 56.789M38.503 20.837C39.181 21.305 40.379 21.805 40.379 21.805L40.379 21.007 37.742 19.997C37.742 19.997 37.742 20.32 38.503 20.837M40.379 19.874L40.379 19.084 37.385 18.013C37.385 18.013 37.742 18.393 38.503 18.915 39.181 19.381 40.379 19.874 40.379 19.874M40.379 18.072L40.379 17.272 37.101 16.066C37.101 16.066 37.742 16.586 38.503 17.104 39.181 17.572 40.379 18.072 40.379 18.072"/>
    <path fill="#D0D5D6" d="M49.587 28.933L52.941 28.933C52.8 28.448 52.278 27.957 51.301 27.957 50.374 27.957 49.82 28.491 49.587 28.933M46.08 16.066L42.808 17.272 42.808 18.072C42.808 18.072 44.008 17.573 44.681 17.104 45.444 16.586 46.08 16.066 46.08 16.066M45.444 19.997L42.808 21.007 42.808 21.805C42.808 21.805 44.005 21.305 44.682 20.837 45.444 20.32 45.444 19.997 45.444 19.997M45.799 18.013L42.808 19.084 42.808 19.874C42.808 19.874 44.008 19.381 44.682 18.915 45.444 18.393 45.799 18.013 45.799 18.013M31.876 27.957C30.9 27.957 30.377 28.448 30.241 28.933L33.594 28.933C33.357 28.491 32.807 27.957 31.876 27.957"/>
    <path fill="#D0D5D6" d="M41.593,15.671 L36.209,13.544 C36.665,12.461 38.777,11.538 41.593,11.538 C44.409,11.538 46.518,12.461 46.974,13.544 L41.593,15.671 Z M45.602,22.318 L41.97,24.226 L41.97,16.516 L46.902,14.84 L45.602,22.318 Z M49.846,25.533 C48.483,25.77 47.316,27.436 46.356,28.933 L46.248,29.107 L45.226,29.107 L45.225,29.284 C45.116,30.441 44.019,32.014 41.591,32.014 C40.47,32.014 39.626,31.671 39.046,31.203 C38.541,30.794 38.227,30.288 38.073,29.807 C38.015,29.628 37.979,29.455 37.963,29.284 L37.955,29.107 L36.939,29.107 L36.83,28.933 C35.866,27.436 34.697,25.77 33.342,25.533 L37.045,23.385 L41.593,25.857 L46.137,23.385 L49.846,25.533 Z M54.839,31.203 C54.452,32.216 54.137,33.311 54.137,34.407 L54.137,46.187 L52.767,46.187 C52.146,45.585 51.62,43.574 51.62,43.574 C51.28,44.301 51.669,45.762 52.035,46.187 L50.27,46.187 C49.834,45.597 49.455,43.505 49.455,43.505 C48.928,44.106 49.262,45.735 49.589,46.187 L48.418,46.187 C48.342,45.351 48.581,44.439 48.581,44.439 C47.971,44.326 47.317,44.002 47.32,43.319 C47.629,43.611 47.754,43.607 48.185,43.599 L48.684,43.206 C47.029,43.258 46.955,41.446 48.262,40.596 C46.955,40.638 45.975,39.861 46.454,38.468 C45.52,37.986 45.192,36.41 45.881,35.718 C45.382,35.176 45.299,34.117 45.618,33.391 C44.959,33.391 44.216,33.126 43.802,32.676 C43.77,32.691 43.733,32.702 43.698,32.713 C44.523,32.376 45.22,31.854 45.694,31.203 L54.839,31.203 Z M54.14,54.603 C54.14,57.061 53.005,58.925 51.118,59.962 L51.796,58.585 L51.141,58.585 L50.273,60.347 C49.375,60.688 48.353,60.874 47.224,60.874 C43.778,60.874 42.867,61.015 41.596,62.285 C40.316,61.015 39.407,60.874 35.968,60.874 C34.845,60.874 33.829,60.69 32.93,60.356 L32.956,60.356 L33.823,58.585 L33.168,58.585 L32.406,60.133 C32.225,60.047 32.05,59.955 31.877,59.854 L32.506,58.585 L31.857,58.585 L31.39,59.531 C29.914,58.443 29.046,56.748 29.046,54.603 L29.046,46.879 L54.14,46.879 L54.14,54.603 Z M37.058,40.497 L38.117,40.627 C38.196,41.208 38.044,42.191 37.666,42.738 L36.642,42.441 C36.914,41.79 36.984,41.189 37.058,40.497 L37.058,40.497 Z M35.536,39.721 C35.536,39.721 36.506,39.674 36.78,39.778 C36.984,39.862 36.846,40.201 36.586,40.165 C36.31,40.131 35.536,39.721 35.536,39.721 L35.536,39.721 Z M35.47,35.865 L34.6,39.048 L34.897,33.917 L36.249,32.761 L36.936,34.27 L35.199,39.252 L35.656,35.898 C35.701,35.663 35.509,35.638 35.47,35.865 L35.47,35.865 Z M34.801,41.168 C34.343,41.354 33.877,41.104 34.021,40.807 C34.232,41.002 34.824,40.907 34.824,40.907 L34.801,41.168 Z M33.943,41.593 C34.153,41.798 34.792,41.721 34.792,41.721 L34.817,41.847 C34.538,42.218 33.765,42.052 33.943,41.593 L33.943,41.593 Z M32.941,39.546 C32.697,39.383 32.807,39.028 33.078,39.028 C33.373,39.035 33.768,39.371 34.16,39.539 C34.16,39.539 33.137,39.675 32.941,39.546 L32.941,39.546 Z M33.911,42.364 C33.911,42.364 34.205,42.49 34.575,42.518 C34.532,42.72 34.377,42.918 34.125,42.861 C33.917,42.815 33.823,42.555 33.911,42.364 L33.911,42.364 Z M34.599,40.443 C34.107,40.602 33.89,40.248 33.914,39.947 C34.875,39.593 35.303,39.821 35.586,40.002 C35.846,40.165 36.059,40.627 36.409,40.919 C36.35,41.312 36.228,41.884 36.087,42.267 C35.104,42.013 35.052,41.147 35.421,40.617 C35.213,40.376 34.995,40.315 34.599,40.443 L34.599,40.443 Z M38.866,40.725 L39.92,40.85 C40.023,41.432 39.827,42.659 39.429,43.247 L38.355,42.937 C38.784,42.373 38.942,41.371 38.866,40.725 L38.866,40.725 Z M40.678,40.947 L41.548,41.057 C41.685,41.777 41.596,43.026 41.136,43.739 L40.122,43.443 C40.567,42.842 40.773,41.602 40.678,40.947 L40.678,40.947 Z M42.236,41.14 L42.255,41.14 C42.481,41.174 42.719,41.137 42.936,41.046 C43.405,41.721 43.772,43.247 43.209,44.203 C42.89,44.205 42.576,44.151 42.284,44.069 L42.05,43.999 C42.526,43.258 42.454,41.957 42.236,41.14 L42.236,41.14 Z M43.564,40.627 L44.179,40.024 C44.81,40.571 45.633,41.798 45.375,42.961 L44.703,43.574 C44.567,43.709 44.421,43.81 44.277,43.899 C44.694,42.858 44.16,41.262 43.564,40.627 L43.564,40.627 Z M47.182,40.973 C47.047,41.152 46.936,41.364 46.866,41.591 L46.117,42.281 C46.267,41.184 45.532,39.888 44.859,39.36 L45.658,38.579 L45.814,38.738 C45.548,39.438 46.068,40.807 47.182,40.973 L47.182,40.973 Z M45.192,35.672 C44.798,36.424 44.838,37.291 45.3,38.077 L44.993,38.379 C43.65,38.214 43.12,36.21 43.12,36.21 C43.095,36.385 43.077,36.568 43.08,36.743 C42.297,36.454 41.799,35.758 41.84,34.803 C42.137,34.97 42.471,35.086 42.826,35.149 L42.916,34.561 C41.978,34.398 41.43,33.811 41.219,33.119 C41.177,33.113 41.136,33.106 41.094,33.098 C41.259,33.113 41.425,33.126 41.596,33.126 C42.151,33.126 42.68,33.04 43.176,32.895 C43.566,33.45 44.258,33.847 44.953,33.925 C44.843,34.382 44.896,34.959 45.192,35.672 L45.192,35.672 Z M37.49,31.203 C38.138,32.09 39.19,32.746 40.434,33.005 C40.541,33.473 40.792,33.983 41.288,34.398 C41.083,35.775 41.675,37.061 43.157,37.404 C43.311,38.104 43.748,38.635 44.477,38.888 L43.447,40.078 C43.055,40.535 42.541,40.682 42.114,40.627 L37.511,40.104 C37.709,39.592 37.18,38.999 35.724,39.253 L37.534,34.197 L36.428,31.848 L34.337,33.633 L34.183,38.94 L33.296,38.502 C32.124,38 31.784,40.11 32.895,40.119 L33.335,40.124 C33.308,40.344 33.373,40.58 33.544,40.654 C33.335,40.743 33.274,41.137 33.537,41.275 C33.268,41.401 33.236,41.801 33.449,41.976 C33.216,42.364 33.182,43.212 33.988,43.424 C34.645,43.599 35.06,42.886 35.199,42.474 L42.358,44.691 C43.374,44.982 44.094,44.821 44.936,44.081 L46.805,42.447 C46.572,43.515 46.955,44.479 47.768,44.797 C47.768,44.797 47.65,45.753 47.689,46.187 L29.046,46.187 L29.046,34.407 C29.046,33.311 28.73,32.216 28.351,31.203 L37.49,31.203 Z M36.281,14.84 L41.208,16.516 L41.208,24.226 L37.58,22.318 L36.281,14.84 Z M48.252,13.923 C48.252,12.036 45.084,10.347 41.591,10.347 C38.095,10.347 34.927,12.036 34.927,13.923 L35.001,14.381 L36.391,22.39 L29.788,26.24 C29.083,26.653 28.203,27.791 28.091,28.933 L29.296,28.933 C29.495,27.792 30.399,26.524 32.087,26.6 C33.612,26.683 34.512,27.611 35.41,28.933 L35.641,29.284 L35.974,29.807 L26.26,29.807 C26.971,31.238 27.653,32.758 27.653,34.407 L27.653,54.603 C27.653,59.799 31.646,62.272 35.968,62.272 C39.304,62.272 39.754,62.122 41.596,63.962 C43.432,62.122 43.879,62.272 47.224,62.272 C51.545,62.272 55.537,59.799 55.537,54.603 L55.537,34.407 C55.537,32.758 56.212,31.238 56.925,29.807 L47.206,29.807 L47.543,29.284 L47.775,28.933 C48.666,27.611 49.571,26.683 51.096,26.6 C52.776,26.524 53.685,27.792 53.883,28.933 L55.087,28.933 C54.979,27.791 54.094,26.653 53.394,26.24 L46.79,22.39 L48.183,14.381 L48.252,13.923 L48.252,13.923 Z"/>
    <path fill="#D0D5D6" d="M53.569 38.817L53.577 38.226C51.768 38.184 51.349 36.044 51.349 36.044 50.821 37.618 52.204 38.79 53.569 38.817M51.28 42.435L51.096 41.875C49.553 42.27 48.757 39.822 48.757 39.822 48.259 41.602 49.985 42.861 51.28 42.435M52.353 40.165C50.508 40.458 49.749 38.31 49.749 38.31 49.545 39.479 50.303 40.664 51.522 40.791 51.248 42.316 52.666 43.099 53.893 42.555L53.716 42.025C52.65 42.378 51.65 41.325 52.353 40.165M51.248 34.035L51.263 33.446C48.827 32.941 49.033 31.265 49.033 31.265 48.506 32.844 49.887 34.01 51.248 34.035"/>
    <polyline fill="#D0D5D6" points="35.809 58.585 34.934 60.356 35.592 60.356 36.464 58.585 35.809 58.585"/>
    <polyline fill="#D0D5D6" points="37.124 58.585 36.253 60.356 36.914 60.356 37.779 58.585 37.124 58.585"/>
    <polyline fill="#D0D5D6" points="42.4 58.585 41.532 60.356 42.184 60.356 43.056 58.585 42.4 58.585"/>
    <polyline fill="#D0D5D6" points="43.724 58.585 42.847 60.356 43.506 60.356 44.374 58.585 43.724 58.585"/>
    <polyline fill="#D0D5D6" points="41.083 58.585 40.209 60.356 40.867 60.356 41.738 58.585 41.083 58.585"/>
    <polyline fill="#D0D5D6" points="48.788 60.356 49.443 60.356 50.315 58.585 49.658 58.585 48.788 60.356"/>
    <polyline fill="#D0D5D6" points="38.444 58.585 37.575 60.356 38.232 60.356 39.102 58.585 38.444 58.585"/>
    <polyline fill="#D0D5D6" points="39.76 58.585 38.89 60.356 39.551 60.356 40.42 58.585 39.76 58.585"/>
    <path fill="#D0D5D6" d="M36.776 49.074C36.656 49.074 36.552 49.193 36.552 49.345 36.552 49.49 36.656 49.609 36.776 49.609 36.902 49.609 37.006 49.49 37.006 49.345 37.006 49.193 36.902 49.074 36.776 49.074M36.51 8.189L37.545 5.988 39.472 7.01 41.594 4.914 43.72 7.01 45.642 5.988 46.671 8.189 47.947 7.991C47.622 8.606 47.374 9.143 47.145 9.896 45.749 9.08 43.672 8.452 41.594 8.452 39.512 8.452 37.441 9.08 36.042 9.896 35.809 9.143 35.567 8.606 35.236 7.991L36.51 8.189zM41.596 9.153C44.299 9.153 46.465 10.049 47.661 11.013 47.661 11.013 48.019 8.865 49.229 6.98L47.052 7.225 45.912 4.801 43.72 5.94 41.596 3.831 39.472 5.94 37.275 4.801 36.134 7.225 33.958 6.98C35.172 8.865 35.525 11.013 35.525 11.013 36.72 10.049 38.888 9.153 41.596 9.153L41.596 9.153z"/>
    <path fill="#D0D5D6" d="M43.818 4.814C44.136 4.841 44.415 4.603 44.442 4.287 44.473 3.974 44.011 3.128 44.011 3.128 44.011 3.128 43.319 3.873 43.297 4.192 43.268 4.505 43.505 4.783 43.818 4.814M47.387 6.11C47.671 6.261 48.014 6.147 48.166 5.866 48.317 5.591 48.219 4.635 48.219 4.635 48.219 4.635 47.297 5.048 47.147 5.33 47.003 5.609 47.108 5.957 47.387 6.11M39.365 4.814C39.686 4.783 39.92 4.505 39.891 4.192 39.863 3.873 39.178 3.128 39.178 3.128 39.178 3.128 38.717 3.974 38.747 4.287 38.771 4.603 39.054 4.841 39.365 4.814M35.799 6.11C36.081 5.957 36.188 5.609 36.036 5.33 35.888 5.048 34.967 4.635 34.967 4.635 34.967 4.635 34.872 5.591 35.025 5.866 35.172 6.147 35.518 6.261 35.799 6.11M75.292 26.16C75.527 26.683 75.993 28.501 74.878 29.887 73.609 27.348 71.861 25.175 70.45 24.237 70.14 24.038 70.619 23.681 71.488 23.567 74.123 23.069 77.208 24.185 78.675 24.574 77.992 25.088 77.435 25.315 76.739 25.403 77.806 26.297 78.581 27.054 79.135 27.897 78.097 28.155 77.518 27.5 75.292 26.16M78.611 25.729C79.372 25.459 79.96 24.731 80.252 24.063 78.318 23.782 73.177 21.625 68.953 23.383 70.535 21.879 71.955 21.686 72.088 19.525 72.747 19.997 73.856 20.263 74.479 19.137 74.045 17.848 72.942 18.892 72.79 18.537 72.573 18.047 74.178 18.692 74.522 17.019 73.274 16.59 72.901 17.609 72.679 17.373 72.473 17.147 73.472 16.719 72.736 15.371 71.436 16.13 72.114 16.987 71.84 17.08 71.506 17.214 71.768 16.167 70.334 16.216 70.193 17.756 71.684 17.807 71.436 18.052 71.144 18.352 70.755 17.165 69.67 17.766 69.69 19.011 70.695 19.693 71.738 19.4 71.57 21.766 69.401 21.325 67.784 23.989 71.205 25.743 72.752 28.804 74.858 30.916 75.554 30.426 76.744 28.229 76.744 28.229 79.022 29.995 80.626 28.237 80.626 28.237 79.841 27.434 79.812 26.824 78.611 25.729M40.959 67.693L39.478 67.637 39.307 68.232 39.493 68.24C39.554 68.24 39.554 68.125 39.607 68.062 39.638 68.039 39.906 67.995 40.119 68.017L40.74 68.064C40.373 68.825 39.417 69.542 39.429 70.046 39.444 70.315 39.716 70.371 39.877 70.361 40.176 70.352 40.272 70.14 40.35 69.817 40.529 69.067 40.893 68.494 41.155 67.637L40.971 67.644 40.959 67.693M41.97 68.577L41.995 68.121 43.283 68.121 43.216 67.611C42.863 67.622 42.346 67.738 41.869 67.741L41.782 68.737C42.379 68.711 42.768 68.971 42.768 69.597 42.768 69.829 42.615 70.266 42.346 70.298 42.284 70.307 42.202 70.285 42.163 70.254 42.033 70.157 42.203 70.052 42.203 69.89 42.203 69.685 41.991 69.611 41.851 69.636 41.629 69.649 41.548 69.792 41.548 69.969 41.548 70.337 42.092 70.438 42.328 70.438 42.856 70.438 43.467 70.144 43.467 69.545 43.467 68.758 42.587 68.593 41.97 68.577M45.058 68.984C44.601 68.984 44.535 68.269 44.535 67.923 44.535 67.824 44.626 67.687 44.726 67.687 45.144 67.687 45.26 68.659 45.293 68.933 45.225 68.959 45.144 68.984 45.058 68.984M44.767 67.551C44.308 67.551 43.928 67.895 43.928 68.365 43.928 69.107 44.724 69.351 45.315 69.069 45.388 69.645 45.271 70.059 45.052 70.073 44.865 70.073 44.892 69.933 44.865 69.816 44.816 69.59 44.641 69.53 44.457 69.59 44.265 69.645 44.235 69.817 44.268 69.943 44.354 70.236 44.715 70.243 44.887 70.221 45.648 70.134 45.964 69.572 45.964 68.947 45.964 68.222 45.55 67.551 44.767 67.551M38.435 67.399C38.367 67.482 38.05 67.88 37.366 68.388L37.422 68.491C37.498 68.449 37.618 68.393 37.825 68.269L37.422 69.675C37.401 69.752 37.308 69.761 37.262 69.752L37.021 69.716 36.977 69.883 38.285 70.117 38.324 69.954 38.099 69.902C38.033 69.883 37.99 69.837 38.003 69.761L38.598 67.424 38.435 67.399"/>
    <path fill="#D0D5D6" d="M48.342 69.061L47.182 65.285C49.652 64.776 51.374 64.25 52.687 63.742L52.687 66.098 54.725 66.919C53.003 67.704 50.867 68.483 48.342 69.061M41.596 71.267C39.288 71.267 37.04 70.922 35.114 70.45L36.339 66.495C37.152 66.682 39.181 66.931 41.596 66.931 44.011 66.931 46.033 66.682 46.851 66.495L48.078 70.45C46.146 70.922 43.894 71.267 41.596 71.267M28.457 66.919L30.5 66.098 30.5 63.742C31.812 64.25 33.535 64.776 36.005 65.285L34.848 69.061C32.327 68.483 30.187 67.704 28.457 66.919M53.318 65.606L53.318 62.72C51.086 63.742 48.247 64.572 44.595 64.902L44.428 65.933C44.74 65.976 45.131 66.015 45.658 66.047 44.301 66.235 42.555 66.325 41.596 66.325 40.635 66.325 38.89 66.235 37.534 66.047 38.056 66.015 38.447 65.976 38.759 65.933L38.594 64.902C34.94 64.572 32.096 63.742 29.869 62.72L29.869 65.606 26.842 66.85C29.083 68.017 31.665 68.968 34.645 69.737L34.294 70.946C36.004 71.445 38.732 71.955 41.596 71.955 44.457 71.955 47.187 71.445 48.893 70.946L48.54 69.737C51.521 68.968 54.105 68.017 56.347 66.85L53.318 65.606M4.051 27.897C4.604 27.054 5.374 26.297 6.45 25.406 5.747 25.315 5.196 25.088 4.509 24.574 5.978 24.185 9.07 23.069 11.701 23.567 12.565 23.681 13.054 24.038 12.737 24.237 11.322 25.175 9.575 27.348 8.304 29.885 7.194 28.501 7.66 26.683 7.895 26.16 5.672 27.5 5.091 28.155 4.051 27.897M6.442 28.229C6.442 28.229 7.632 30.426 8.326 30.916 10.434 28.804 11.983 25.743 15.402 23.989 13.784 21.325 11.611 21.771 11.454 19.402 12.489 19.693 13.498 19.008 13.519 17.766 12.43 17.171 12.044 18.355 11.75 18.052 11.506 17.802 12.996 17.756 12.853 16.217 11.417 16.173 11.683 17.214 11.344 17.08 11.075 16.984 11.75 16.128 10.447 15.371 9.715 16.725 10.716 17.146 10.508 17.373 10.288 17.609 9.911 16.59 8.667 17.019 9.003 18.692 10.613 18.047 10.395 18.537 10.243 18.892 9.143 17.85 8.711 19.139 9.329 20.263 10.441 19.997 11.095 19.527 11.231 21.695 12.65 21.874 14.236 23.383 10.012 21.625 4.87 23.781 2.93 24.064 3.225 24.731 3.813 25.459 4.572 25.724 3.377 26.829 3.349 27.436 2.561 28.235 2.561 28.235 4.162 29.995 6.442 28.229M39.741 26.621L39.741 27.892C40.182 27.365 41.027 27.467 41.027 27.467L41.027 29.297C41.027 29.297 40.999 30.2 40.68 30.591L42.512 30.591C42.193 30.2 42.163 29.297 42.163 29.297L42.163 27.467C42.163 27.467 43.009 27.365 43.447 27.892L43.447 26.621 39.741 26.621"/>
    <path fill="#FFFFFE" d="M81.722,27.167 C81.5,26.938 81.366,26.731 81.182,26.442 C81.087,26.294 80.983,26.138 80.865,25.967 C81.184,25.596 81.457,25.168 81.661,24.699 L82.48,22.833 L80.465,22.543 C80.124,22.493 79.576,22.349 78.937,22.181 C77.7,21.857 76.116,21.441 74.384,21.26 C74.976,21 75.476,20.534 75.827,19.902 L76.158,19.305 C76.158,19.305 76.07,18.468 75.744,18.205 C75.87,17.946 75.963,17.66 76.029,17.348 L76.302,16.012 L75.014,15.571 C74.815,15.501 74.613,15.452 74.416,15.42 C74.343,15.175 74.235,14.916 74.088,14.644 L73.323,13.242 L71.943,14.05 C71.6,14.252 71.31,14.481 71.075,14.739 C70.869,14.701 70.649,14.682 70.417,14.682 C70.417,14.682 69.632,14.594 68.76,14.909 L67.647,13.756 L66.331,12.35 C65.101,11.032 63.433,10.643 61.731,11.29 C61.082,10.643 60.069,10.105 58.498,10.105 C57.966,10.105 57.499,10.169 57.222,10.206 C57.222,10.206 55.058,10.6 53.843,11.755 L52.366,11.053 C51.377,12.609 49.685,13.104 49.685,13.104 C49.571,12.649 49.372,12.223 49.091,11.836 L49.188,11.286 C49.188,11.27 49.519,9.411 50.532,7.837 L52.292,5.097 L49.798,5.377 C49.804,5.129 49.793,4.838 49.758,4.491 L49.535,2.358 L47.58,3.24 C47.363,3.338 47.182,3.433 47.014,3.524 L46.628,2.701 L45.733,3.166 C45.643,2.944 45.528,2.695 45.37,2.407 L44.338,0.516 L42.873,2.095 C42.723,2.258 42.597,2.407 42.486,2.551 L41.597,1.667 L40.703,2.555 C40.592,2.411 40.469,2.262 40.319,2.101 L38.851,0.507 L37.816,2.408 C37.658,2.698 37.545,2.944 37.455,3.166 L36.562,2.702 L36.174,3.524 C36.005,3.433 35.822,3.338 35.607,3.238 L33.645,2.356 L33.428,4.496 C33.392,4.841 33.383,5.131 33.389,5.377 L30.891,5.097 L32.657,7.839 C33.673,9.411 33.997,11.267 33.998,11.281 L34.091,11.831 C33.807,12.223 33.609,12.649 33.495,13.104 C33.495,13.104 31.898,12.421 30.829,11.051 L29.323,11.769 C27.604,10.609 26.539,10.157 24.687,10.105 C23.115,10.062 22.102,10.643 21.455,11.289 C19.751,10.644 18.087,11.035 16.861,12.35 C16.861,12.35 16.054,13.226 15.543,13.756 C15.032,14.288 14.281,14.727 14.281,14.727 C14.281,14.727 13.211,14.487 12.112,14.741 C11.877,14.482 11.585,14.252 11.236,14.047 L9.853,13.242 L9.092,14.652 C8.947,14.921 8.841,15.176 8.77,15.42 C8.572,15.452 8.372,15.501 8.171,15.571 L6.892,16.012 L7.16,17.34 C7.224,17.66 7.317,17.946 7.445,18.206 C7.371,18.347 7.305,18.499 7.25,18.659 L7.034,19.304 L7.363,19.901 C7.711,20.532 8.21,21 8.803,21.26 C7.071,21.441 5.486,21.857 4.246,22.182 C3.61,22.35 3.059,22.494 2.719,22.545 L0.694,22.837 L1.155,23.879 L1.523,24.708 C1.732,25.172 2.004,25.6 2.324,25.968 C2.205,26.138 1.692,26.937 1.468,27.166 L0.446,28.208 L1.428,29.291 C1.55,29.424 2.65,30.577 4.431,30.579 C4.917,30.579 5.401,30.494 5.88,30.325 C6.355,31.068 6.916,31.819 7.433,32.189 C6.487,33.302 5.409,34.266 3.876,34.996 L2.594,35.607 L3.143,37.071 C3.503,37.954 4.2,38.925 5.551,39.296 C5.262,40.159 5.122,40.981 5,41.709 C4.711,43.443 4.589,44.161 3.062,44.697 L1.691,45.177 L2.083,46.575 C2.401,47.714 2.873,48.468 3.389,48.963 L2.478,49.966 C2.478,49.966 4.641,51.586 6.76,51.784 C6.79,51.788 8.599,51.903 9.41,50.869 C9.735,52.041 10.249,53.122 10.714,54.104 C11.672,56.118 12.182,57.312 11.54,58.399 L10.093,60.855 L12.941,60.736 C14.184,60.684 15.34,60.61 16.338,60.362 C16.338,60.417 16.335,60.467 16.329,60.518 L16.096,62.627 L18.591,62.101 C18.855,62.022 19.099,61.92 19.325,61.798 C20.871,63.604 23.494,65.015 27.032,65.015 L27.239,65.015 L23.172,66.685 L26.132,68.226 C28.082,69.241 30.249,70.092 32.72,70.812 L32.375,71.996 L33.862,72.431 C34.72,72.684 37.82,73.505 41.596,73.505 C45.372,73.505 48.469,72.682 49.329,72.431 L50.812,71.996 L50.468,70.814 C52.942,70.092 55.11,69.241 57.06,68.226 L60.022,66.685 L55.952,65.015 L56.157,65.015 C59.692,65.015 62.316,63.604 63.861,61.798 C64.085,61.917 64.332,62.022 64.593,62.101 L67.087,62.627 L66.859,60.52 C66.854,60.47 66.851,60.418 66.851,60.363 C67.848,60.61 69.005,60.684 70.247,60.736 L73.091,60.855 L71.649,58.401 C71.006,57.312 71.517,56.119 72.473,54.105 C72.939,53.125 73.452,52.042 73.778,50.869 C74.327,51.288 74.915,51.537 75.504,51.668 C75.504,51.668 75.96,51.805 76.397,51.816 C77.657,51.854 78.283,51.497 79.149,50.952 L80.719,49.964 L79.8,48.96 C80.315,48.465 80.787,47.712 81.106,46.579 L81.502,45.177 L80.127,44.697 C78.599,44.161 78.48,43.443 78.188,41.71 C78.064,40.981 77.929,40.159 77.637,39.296 C78.987,38.924 79.683,37.952 80.043,37.071 L80.591,35.605 L79.311,34.996 C77.776,34.266 76.699,33.302 75.752,32.189 C76.271,31.818 76.832,31.066 77.31,30.325 C77.786,30.494 78.268,30.577 78.756,30.579 C80.537,30.579 81.64,29.425 81.76,29.293 L82.742,28.211 L81.722,27.167"/>
    <path fill="#FFE52B" d="M41.596,62.288 C40.317,61.017 39.407,60.877 35.962,60.877 C31.848,60.877 29.051,58.465 29.051,54.607 L29.051,46.887 L54.138,46.887 L54.138,54.607 C54.138,58.465 51.347,60.877 47.224,60.877 C43.778,60.877 42.867,61.017 41.596,62.288 M29.051,46.194 L29.051,34.417 C29.051,33.32 28.734,32.225 28.354,31.215 L37.492,31.215 C38.331,32.366 39.852,33.138 41.596,33.138 C43.334,33.138 44.855,32.366 45.695,31.215 L54.835,31.215 C54.447,32.225 54.135,33.32 54.135,34.417 L54.135,46.194 L29.051,46.194"/>
    <path fill="#FFFFFE" d="M30.503 63.745L30.503 66.098 28.463 66.919C30.19 67.704 32.33 68.483 34.849 69.06L36.008 65.288C33.537 64.777 31.815 64.25 30.503 63.745M41.596 66.931C39.182 66.931 37.152 66.682 36.341 66.493L35.117 70.45C37.04 70.922 39.291 71.267 41.596 71.267 43.894 71.267 46.144 70.922 48.076 70.45L46.848 66.493C46.033 66.682 44.011 66.931 41.596 66.931M52.684 63.745C51.372 64.25 49.652 64.777 47.181 65.288L48.342 69.06C50.864 68.483 53 67.704 54.723 66.919L52.684 66.098 52.684 63.745M22.407 26.126C19.607 29.119 20.819 30.909 21.385 31.461 20.342 31.237 18.787 29.909 19.141 28.623 18.809 29.021 18.471 29.452 18.12 29.897 17.425 30.823 16.803 31.732 16.252 32.613 15.403 35.136 16.96 37.743 19.607 38.898 16.663 38.466 15.343 35.847 15.352 34.181 13.945 36.837 13.275 39.261 13.336 41.297 13.363 42.053 13.428 42.762 13.527 43.427 14.203 44.71 15.289 45.181 17.222 45.415 15.463 45.526 14.535 45.444 13.768 44.644 14.967 49.789 20.562 54.245 22.842 58.061 20.562 55.095 15.839 50.68 14.184 47.485 14.056 48.639 14.364 51.597 15.802 53.416 13.686 51.337 13.522 48.183 13.658 46.339 13.122 45.011 12.783 43.527 12.737 41.839 12.694 40.286 12.804 38.941 13.04 37.729 11.704 39.629 9.774 40.362 8.823 43.253 9.008 39.522 11.794 39.464 13.877 34.938 14.685 32.957 15.856 31.249 17.156 29.308 15.506 29.848 14.272 30.233 12.364 32.324 13.719 29.119 21.551 25.517 25.138 22.029 24.063 22.257 19.663 22.368 17.838 21.149 21.147 22.046 28.509 21.021 31.289 19.12 29.369 21.881 25.192 22.037 20.106 27.528 20.761 27.019 21.624 26.496 22.407 26.126M26.229 25.808C29.427 24.082 37.241 20.283 31.944 16.185 31.221 15.629 30.428 15.129 29.759 14.505 28.932 15.143 30.07 16.725 30.353 17.305 30.353 17.305 28.59 17.483 28.167 17.483 25.443 17.471 22.585 15.858 24.032 12.764 22.948 12.988 22.814 14.029 22.483 14.924 21.788 14.453 20.58 13.443 19.649 13.585 20.406 16.006 23.591 18.187 26.061 18.682 23.561 20.042 18.931 21.054 16.494 18.126 14.783 21.434 17.167 22.818 19.5 24.551 10.609 28.608 11.92 33.16 6.087 36.743 6.845 37.098 10.218 36.385 10.518 36.342 9.251 37.985 8.66 38.679 8.29 39.476 7.937 40.226 7.776 41.071 7.426 42.894 7.151 44.335 6.649 45.77 4.898 46.723 5.584 47.965 7.109 46.995 7.747 46.829 7.66 46.959 7.447 48.458 6.873 49.178 9.869 48.985 8.482 42.668 11.481 44.189 12.326 44.615 12.58 45.609 12.189 46.423 10.221 50.484 14.695 54.064 14.451 57.623 15.551 57.614 16.69 57.585 17.41 56.099 17.783 56.84 18.365 57.881 18.688 58.887L19.585 57.361C20.136 59.885 22.491 62.22 25.673 62.428 24.155 60.027 25.973 56.746 22.287 53.26 22.745 52.89 23.808 52.174 24.188 51.687 19.662 52.219 14.94 48.639 17.083 46.94 18.486 45.83 19.098 48.134 21.262 47.747L20.416 47.016C20.714 46.723 21.052 46.339 21.404 46.052 20.486 45.94 19.481 45.352 19.481 45.352L20.029 44.446C14.728 44.44 14.592 40.385 16.746 40.223 17.759 40.149 19.066 42.013 22.33 41.626 21.912 41.122 21.746 40.364 21.548 39.802 22.337 39.729 23.264 39.736 24.008 39.374 22.414 39.167 22.01 38.634 20.685 37.628L22.227 37.064C19.992 35.95 20.128 34.006 20.059 31.981 21.227 32.654 22.603 33.697 24.069 33.211 24.418 33.094 24.642 32.933 24.65 32.569 22.554 31.745 21.213 28.519 26.229 25.808M70.147 37.729C70.382 38.941 70.501 40.287 70.45 41.839 70.4 43.527 70.064 45.011 69.529 46.339 69.666 48.183 69.501 51.337 67.387 53.416 68.821 51.595 69.131 48.639 69.005 47.485 67.343 50.68 62.625 55.095 60.342 58.061 62.625 54.245 68.222 49.787 69.422 44.644 68.65 45.444 67.728 45.526 65.967 45.416 67.898 45.181 68.981 44.71 69.658 43.427 69.759 42.762 69.825 42.053 69.851 41.296 69.915 39.261 69.241 36.837 67.834 34.181 67.848 35.847 66.527 38.466 63.58 38.9 66.223 37.743 67.782 35.136 66.934 32.613 66.385 31.732 65.767 30.823 65.067 29.897 64.72 29.452 64.38 29.022 64.045 28.623 64.399 29.909 62.844 31.237 61.801 31.461 62.368 30.909 63.576 29.119 60.781 26.126 61.565 26.496 62.429 27.019 63.081 27.528 57.996 22.037 53.823 21.882 51.895 19.12 54.68 21.021 62.043 22.047 65.348 21.149 63.524 22.368 59.123 22.257 58.046 22.029 61.632 25.517 69.471 29.119 70.823 32.323 68.917 30.233 67.677 29.848 66.034 29.309 67.334 31.25 68.503 32.957 69.308 34.937 71.396 39.464 74.183 39.521 74.366 43.255 73.414 40.36 71.485 39.629 70.147 37.729M75.759 42.894C75.409 41.07 75.252 40.226 74.898 39.478 74.532 38.679 73.939 37.985 72.665 36.342 72.967 36.385 76.347 37.098 77.102 36.743 71.269 33.16 72.58 28.608 63.686 24.551 66.022 22.818 68.403 21.435 66.695 18.124 64.258 21.054 59.625 20.042 57.128 18.682 59.603 18.187 62.783 16.008 63.54 13.585 62.605 13.443 61.398 14.453 60.703 14.922 60.372 14.029 60.243 12.987 59.159 12.761 60.607 15.858 57.746 17.471 55.014 17.483 54.597 17.483 52.835 17.305 52.835 17.305 53.118 16.725 54.254 15.143 53.424 14.505 52.757 15.129 51.968 15.629 51.243 16.185 45.943 20.283 53.765 24.084 56.96 25.808 61.969 28.519 60.635 31.743 58.539 32.569 58.545 32.933 58.772 33.094 59.121 33.211 60.58 33.697 61.961 32.654 63.126 31.981 63.059 34.004 63.199 35.95 60.963 37.064L62.501 37.628C61.174 38.634 60.775 39.167 59.181 39.374 59.921 39.736 60.855 39.729 61.641 39.803 61.439 40.363 61.268 41.122 60.856 41.626 64.123 42.013 65.434 40.149 66.441 40.223 68.587 40.385 68.461 44.44 63.157 44.446L63.707 45.354C63.707 45.354 62.704 45.94 61.782 46.052 62.132 46.339 62.477 46.722 62.772 47.016L61.926 47.747C64.085 48.134 64.703 45.83 66.104 46.94 68.247 48.639 63.527 52.219 58.998 51.687 59.38 52.173 60.44 52.89 60.902 53.262 57.213 56.746 59.025 60.027 57.516 62.431 60.69 62.22 63.046 59.885 63.604 57.361L64.5 58.887C64.821 57.881 65.409 56.84 65.776 56.099 66.492 57.585 67.638 57.615 68.742 57.623 68.492 54.064 72.964 50.484 71.001 46.423 70.609 45.611 70.862 44.615 71.707 44.189 74.709 42.668 73.316 48.985 76.315 49.178 75.741 48.458 75.527 46.959 75.446 46.829 76.08 46.995 77.602 47.968 78.289 46.722 76.541 45.77 76.038 44.333 75.759 42.894"/>
    <path fill="#FFFFFE" d="M45.694 31.215C44.855 32.366 43.332 33.138 41.596 33.138 41.192 33.138 40.8 33.094 40.431 33.021 40.534 33.496 40.779 33.985 41.285 34.408 41.079 35.785 41.675 37.074 43.153 37.413 43.311 38.114 43.744 38.646 44.476 38.897L43.447 40.087C43.05 40.543 42.532 40.688 42.114 40.636L37.513 40.112C37.712 39.601 37.18 39.01 35.723 39.264L37.529 34.205 36.428 31.858 34.34 33.643 34.186 38.949 33.287 38.511C32.128 38.007 31.787 40.119 32.89 40.128L33.335 40.133C33.305 40.35 33.375 40.59 33.547 40.667 33.339 40.751 33.275 41.144 33.537 41.282 33.274 41.409 33.236 41.81 33.449 41.983 33.222 42.374 33.179 43.218 33.984 43.432 34.648 43.605 35.063 42.894 35.199 42.481L42.359 44.699C43.366 44.99 44.094 44.826 44.935 44.088L46.804 42.454C46.569 43.522 46.952 44.486 47.765 44.804 47.765 44.804 47.635 45.783 47.686 46.19L50.19 46.194 54.135 46.194 54.135 34.419C54.135 33.321 54.447 32.225 54.835 31.215L45.694 31.215M34.97 51.029L35.109 51.204C35.304 51.444 35.417 51.387 35.64 51.259L35.965 51.087C36.169 50.934 37.501 51.441 37.577 50.334 37.724 51.161 36.74 52.901 37.332 53.874L38.131 55.184 35.519 55.221C35.233 55.221 35.084 55.393 35.005 55.551L34.322 56.968C34.146 57.34 34.157 57.73 34.382 57.988L34.844 58.508C34.844 58.508 35.222 58.186 35.344 57.767L35.139 57.556C34.97 57.392 34.97 57.241 35.063 57.037L35.484 56.164C35.647 55.821 35.811 55.748 36.182 55.834L38.293 56.29C38.449 56.327 38.698 56.403 38.848 56.145 39.105 55.686 39.564 55.656 40.027 55.726 41.186 55.9 43.861 56.177 44.816 55.063 45.936 56.55 48.126 56.55 47.981 57.328L47.519 59.885 48.216 59.885 48.639 57.272C48.687 56.968 48.874 56.549 48.546 56.315 48.412 56.21 48.35 56.158 48.045 55.634 47.647 54.937 47.668 53.894 47.283 52.997 47.647 52.568 48.041 52.422 48.385 52.501 49.156 52.69 49.366 54.021 50.462 55.108 50.337 54.625 50.285 54.095 50.025 53.636 50.025 53.636 50.786 54.226 50.982 54.916 51.107 55.35 51.234 55.665 51.623 55.865 51.882 55.959 52.189 55.834 52.498 55.464 52.498 55.464 51.775 54.437 51.246 53.765 50.521 52.841 49.551 51.916 48.229 52.023 47.814 52.058 47.411 52.247 47.029 52.474 45.529 51.634 44.363 52.523 43.898 52.523L41.088 52.356C40.534 52.321 40.099 51.68 40.099 51.68 40.027 49.302 38.117 48.354 37.458 48.354 37.458 48.354 37.52 47.925 37.346 47.776L36.758 48.513 35.129 47.919 36.406 48.965 35.02 50.576C34.878 50.735 34.9 50.943 34.97 51.029"/>
    <path fill="#FFFFFE" d="M33.125 54.37C32.733 54.674 32.749 55.099 32.987 55.573L33.223 56.013 33.837 55.545 33.698 55.243C33.599 55.031 33.602 54.815 33.776 54.679L34.655 54.015C34.902 53.835 34.979 53.816 35.243 53.854L37.101 54.245C37.101 54.245 36.821 53.835 36.725 53.418L34.976 53.187C34.728 53.155 34.579 53.262 34.362 53.425L33.125 54.37M45.005 59.885L45.706 59.885 46.832 57.107C46.872 57.012 46.925 56.968 46.968 56.889 46.462 56.69 46.166 56.547 45.744 56.305 46.027 56.684 46.248 56.847 46.131 57.196L45.005 59.885M42.808 21.022L45.441 20.012C45.441 20.012 45.441 20.335 44.682 20.85 44.007 21.318 42.808 21.817 42.808 21.817L42.808 21.022zM42.808 19.097L45.799 18.029C45.799 18.029 45.441 18.408 44.682 18.929 44.007 19.393 42.808 19.892 42.808 19.892L42.808 19.097zM42.808 17.288L46.08 16.082C46.08 16.082 45.441 16.6 44.682 17.12 44.007 17.588 42.808 18.086 42.808 18.086L42.808 17.288zM45.6 22.332L46.9 14.855 41.973 16.529 41.973 24.241 45.6 22.332 45.6 22.332z"/>
    <path fill="#FFFFFE" d="M36.831,28.947 L36.941,29.119 L37.955,29.119 L37.966,29.296 C37.979,29.465 38.016,29.64 38.073,29.817 C38.23,30.301 38.542,30.806 39.046,31.215 C39.628,31.684 40.47,32.026 41.591,32.026 C44.019,32.026 45.116,30.454 45.222,29.296 L45.228,29.119 L46.247,29.119 L46.355,28.947 C47.313,27.448 48.482,25.783 49.843,25.547 L46.137,23.397 L41.593,25.869 L37.046,23.397 L33.345,25.547 C34.7,25.783 35.868,27.448 36.831,28.947"/>
    <path fill="#FFFFFE" d="M40.379 19.097L40.379 19.892C40.379 19.892 39.182 19.395 38.508 18.929 37.743 18.407 37.388 18.029 37.388 18.029L40.379 19.097zM40.379 17.288L40.379 18.086C40.379 18.086 39.182 17.588 38.508 17.12 37.743 16.599 37.103 16.082 37.103 16.082L40.379 17.288zM40.379 21.818C40.379 21.818 39.182 21.318 38.508 20.852 37.743 20.336 37.743 20.012 37.743 20.012L40.379 21.022 40.379 21.818zM41.208 24.241L41.208 16.529 36.286 14.854 37.581 22.332 41.208 24.241 41.208 24.241zM41.594 11.556C38.778 11.556 36.668 12.479 36.21 13.56L41.594 15.687 46.974 13.56C46.517 12.479 44.409 11.556 41.594 11.556M41.596 8.47C43.671 8.47 45.747 9.098 47.145 9.914 47.372 9.162 47.617 8.626 47.947 8.011L46.671 8.207 45.642 6.006 43.717 7.029 41.596 4.932 39.472 7.029 37.548 6.006 36.51 8.207 35.237 8.011C35.57 8.626 35.811 9.162 36.044 9.914 37.444 9.098 39.514 8.47 41.596 8.47M76.728 25.418C77.425 25.328 77.983 25.098 78.665 24.587 77.195 24.196 74.113 23.083 71.482 23.582 70.612 23.696 70.131 24.049 70.441 24.25 71.854 25.187 73.6 27.36 74.869 29.897 75.984 28.513 75.516 26.693 75.283 26.172 77.508 27.513 78.089 28.165 79.123 27.91 78.573 27.066 77.795 26.307 76.728 25.418M8.315 29.897C9.585 27.36 11.332 25.187 12.748 24.25 13.063 24.049 12.575 23.696 11.711 23.582 9.077 23.083 5.989 24.196 4.519 24.587 5.208 25.098 5.759 25.328 6.46 25.418 5.389 26.309 4.614 27.066 4.064 27.91 5.103 28.165 5.682 27.513 7.904 26.171 7.674 26.695 7.204 28.513 8.315 29.897"/>
    <path fill="#1A1919" d="M19.585,57.361 L18.688,58.887 C18.365,57.881 17.783,56.84 17.41,56.099 C16.69,57.585 15.551,57.615 14.451,57.623 C14.695,54.064 10.221,50.484 12.189,46.423 C12.581,45.611 12.326,44.615 11.481,44.189 C8.482,42.668 9.869,48.985 6.873,49.178 C7.447,48.458 7.66,46.959 7.747,46.829 C7.109,46.995 5.584,47.968 4.898,46.723 C6.649,45.77 7.151,44.335 7.427,42.894 C7.776,41.071 7.937,40.226 8.29,39.478 C8.66,38.679 9.251,37.985 10.518,36.342 C10.218,36.385 6.845,37.098 6.086,36.743 C11.92,33.16 10.607,28.608 19.5,24.551 C17.168,22.818 14.784,21.435 16.494,18.126 C18.931,21.054 23.561,20.042 26.061,18.682 C23.591,18.187 20.406,16.008 19.65,13.585 C20.58,13.443 21.788,14.453 22.481,14.924 C22.815,14.028 22.948,12.988 24.032,12.764 C22.585,15.858 25.443,17.471 28.167,17.483 C28.59,17.483 30.353,17.305 30.353,17.305 C30.07,16.725 28.932,15.143 29.759,14.505 C30.428,15.129 31.221,15.629 31.944,16.185 C37.241,20.283 29.425,24.084 26.227,25.808 C21.213,28.519 22.554,31.745 24.65,32.569 C24.642,32.933 24.418,33.094 24.069,33.211 C22.603,33.697 21.227,32.653 20.059,31.981 C20.128,34.006 19.99,35.95 22.227,37.064 L20.685,37.625 C22.01,38.634 22.414,39.167 24.008,39.374 C23.264,39.736 22.339,39.729 21.548,39.803 C21.747,40.364 21.912,41.122 22.33,41.626 C19.066,42.013 17.759,40.149 16.746,40.223 C14.592,40.385 14.728,44.44 20.029,44.446 L19.479,45.354 C19.479,45.354 20.483,45.94 21.404,46.052 C21.052,46.337 20.714,46.723 20.416,47.016 L21.263,47.747 C19.098,48.134 18.486,45.83 17.083,46.94 C14.94,48.639 19.662,52.219 24.188,51.687 C23.808,52.174 22.745,52.89 22.287,53.262 C25.973,56.746 24.155,60.027 25.672,62.431 C22.491,62.218 20.137,59.885 19.585,57.361 M23.732,53.441 C24.757,52.629 25.605,52.223 25.562,50.258 C24.024,51.044 19.665,51.002 17.844,48.495 C17.329,47.781 17.88,47.423 18.376,47.984 C19.622,49.398 21.933,48.758 22.775,48.35 C22.642,47.862 22.267,47.23 21.952,46.959 C22.267,46.649 23.16,46.187 23.341,45.392 C22.864,45.134 21.015,44.948 21.015,44.948 C21.312,44.661 21.682,44.263 21.461,43.204 C19.571,43.785 17.238,42.996 16.706,42.297 C16.185,41.609 16.717,40.965 17.156,41.42 C18.096,42.408 22.738,43.542 24.464,41.822 C23.824,41.645 23.115,41.071 22.989,40.716 C24.586,40.556 25.86,39.613 25.966,38.438 C25.082,38.438 23.412,38.374 22.844,37.946 C23.61,37.663 24.094,37.386 24.336,36.528 C21.415,36.351 21.183,34.181 21.167,33.822 C23.069,34.919 26.42,34.43 25.554,31.729 C23.971,31.644 22.376,29.083 26.729,26.731 C30.688,24.587 35.187,22.277 34.789,18.476 C34.53,16.042 30.524,14.383 30.016,13.152 C28.344,13.948 28.008,14.872 28.763,16.419 C28.763,16.419 25.037,16.789 24.743,14.497 C24.616,13.469 25.302,12.507 26.04,11.773 C25.621,11.773 22.815,11.022 21.969,13.308 C20.396,12.234 19.051,12.274 17.991,13.407 C19.681,14.41 20.728,17.854 23.524,18.87 C21.535,19.948 18.319,19.497 16.443,16.185 C14.667,18.86 13.645,21.51 17.453,24.338 C10.521,27.493 10.572,33.521 4.543,36.394 C5.155,38.035 6.444,38.035 8.087,37.778 C5.48,41.165 7.702,44.71 3.574,46.159 C3.962,47.54 4.737,48.644 6.258,48.24 C5.826,48.914 5.541,48.901 4.867,49.642 C7.123,51.063 9.798,50.034 10.404,45.476 C10.511,44.661 11.632,45.171 11.245,45.97 C8.673,51.286 15.176,55.286 12.875,59.187 C14.904,59.102 16.449,58.943 17.294,58.26 C17.709,59.077 17.957,59.888 17.868,60.687 C18.989,60.46 19.396,59.797 19.473,59.035 C20.209,61.178 22.833,63.466 27.032,63.466 C24.804,60.292 26.879,57.069 23.732,53.441"/>
    <path fill="#1A1919" d="M13.768 44.644C14.535 45.444 15.463 45.526 17.222 45.416 15.289 45.181 14.203 44.71 13.526 43.427 13.428 42.762 13.363 42.053 13.336 41.297 13.275 39.261 13.945 36.837 15.352 34.181 15.343 35.846 16.662 38.465 19.607 38.9 16.96 37.743 15.403 35.136 16.252 32.613 16.803 31.732 17.425 30.823 18.12 29.897 18.469 29.452 18.809 29.022 19.141 28.623 18.787 29.908 20.342 31.237 21.382 31.46 20.819 30.909 19.607 29.119 22.405 26.126 21.624 26.496 20.761 27.019 20.106 27.528 25.189 22.037 29.369 21.882 31.289 19.12 28.509 21.021 21.147 22.047 17.838 21.149 19.663 22.368 24.063 22.257 25.138 22.029 21.551 25.517 13.719 29.119 12.363 32.324 14.27 30.231 15.506 29.848 17.156 29.309 15.856 31.25 14.685 32.957 13.877 34.938 11.794 39.464 9.008 39.522 8.823 43.255 9.774 40.362 11.702 39.628 13.04 37.729 12.804 38.941 12.694 40.287 12.736 41.839 12.783 43.527 13.122 45.011 13.658 46.339 13.522 48.183 13.686 51.337 15.802 53.416 14.364 51.597 14.056 48.639 14.184 47.485 15.839 50.68 20.562 55.095 22.844 58.061 20.562 54.245 14.967 49.789 13.768 44.644M66.036 29.309C67.678 29.848 68.917 30.231 70.824 32.324 69.473 29.119 61.632 25.517 58.046 22.029 59.123 22.255 63.524 22.368 65.348 21.149 62.043 22.047 54.68 21.021 51.897 19.12 53.82 21.882 57.996 22.037 63.081 27.528 62.429 27.019 61.565 26.496 60.781 26.126 63.576 29.119 62.368 30.909 61.801 31.461 62.844 31.237 64.399 29.908 64.045 28.623 64.38 29.022 64.72 29.452 65.067 29.897 65.767 30.823 66.385 31.732 66.934 32.613 67.782 35.136 66.223 37.743 63.582 38.9 66.527 38.466 67.848 35.846 67.833 34.181 69.241 36.837 69.915 39.261 69.851 41.297 69.825 42.053 69.759 42.762 69.66 43.427 68.981 44.71 67.895 45.181 65.966 45.416 67.728 45.526 68.65 45.444 69.422 44.644 68.222 49.789 62.627 54.245 60.342 58.061 62.627 55.095 67.343 50.68 69.005 47.485 69.133 48.639 68.822 51.597 67.387 53.416 69.503 51.337 69.666 48.183 69.529 46.337 70.064 45.011 70.4 43.527 70.45 41.839 70.501 40.287 70.382 38.941 70.147 37.729 71.485 39.629 73.413 40.362 74.366 43.255 74.183 39.522 71.396 39.464 69.308 34.938 68.503 32.957 67.335 31.25 66.036 29.309"/>
    <path fill="#1A1919" d="M75.446 46.829C75.527 46.959 75.741 48.458 76.315 49.178 73.316 48.985 74.707 42.668 71.707 44.189 70.862 44.615 70.609 45.611 71.001 46.423 72.962 50.484 68.492 54.064 68.743 57.623 67.638 57.615 66.492 57.585 65.777 56.099 65.409 56.84 64.821 57.881 64.5 58.885L63.603 57.361C63.046 59.885 60.69 62.22 57.516 62.431 59.025 60.027 57.211 56.746 60.904 53.262 60.439 52.89 59.38 52.173 58.998 51.687 63.527 52.219 68.247 48.639 66.104 46.94 64.702 45.83 64.085 48.134 61.926 47.747L62.772 47.016C62.477 46.723 62.132 46.339 61.782 46.052 62.704 45.94 63.707 45.354 63.707 45.354L63.157 44.446C68.46 44.44 68.587 40.385 66.441 40.223 65.434 40.149 64.123 42.013 60.856 41.626 61.268 41.122 61.439 40.364 61.641 39.803 60.855 39.729 59.921 39.736 59.179 39.374 60.775 39.167 61.174 38.634 62.501 37.628L60.965 37.064C63.199 35.95 63.059 34.006 63.127 31.981 61.961 32.654 60.58 33.697 59.121 33.211 58.772 33.094 58.545 32.933 58.538 32.569 60.635 31.745 61.97 28.519 56.96 25.808 53.765 24.084 45.943 20.283 51.243 16.185 51.968 15.629 52.755 15.129 53.422 14.505 54.254 15.143 53.118 16.725 52.835 17.305 52.835 17.305 54.597 17.483 55.014 17.483 57.746 17.471 60.607 15.858 59.159 12.761 60.243 12.987 60.372 14.029 60.703 14.922 61.398 14.453 62.605 13.443 63.54 13.585 62.781 16.008 59.601 18.187 57.128 18.682 59.625 20.042 64.259 21.054 66.695 18.126 68.403 21.435 66.022 22.818 63.686 24.551 72.58 28.606 71.267 33.16 77.102 36.743 76.347 37.098 72.967 36.385 72.665 36.342 73.939 37.985 74.532 38.679 74.898 39.478 75.252 40.226 75.409 41.07 75.759 42.894 76.038 44.335 76.541 45.77 78.289 46.723 77.602 47.968 76.08 46.995 75.446 46.829M75.1 37.777C76.741 38.034 78.032 38.034 78.644 36.394 72.613 33.521 72.665 27.493 65.734 24.338 69.544 21.51 68.516 18.86 66.747 16.185 64.873 19.497 61.647 19.948 59.667 18.87 62.456 17.854 63.509 14.41 65.199 13.406 64.142 12.272 62.792 12.234 61.217 13.306 60.366 11.022 57.565 11.773 57.144 11.773 57.88 12.507 58.575 13.468 58.443 14.497 58.153 16.789 54.426 16.419 54.426 16.419 55.178 14.872 54.844 13.948 53.171 13.152 52.66 14.383 48.66 16.042 48.4 18.475 47.999 22.277 52.503 24.587 56.458 26.731 60.81 29.083 59.214 31.644 57.638 31.729 56.763 34.432 60.114 34.919 62.021 33.822 62.012 34.181 61.77 36.351 58.848 36.529 59.095 37.386 59.577 37.663 60.342 37.946 59.771 38.374 58.104 38.438 57.222 38.438 57.326 39.613 58.603 40.556 60.201 40.716 60.074 41.07 59.364 41.645 58.725 41.822 60.451 43.542 65.091 42.408 66.036 41.42 66.468 40.965 66.995 41.609 66.481 42.295 65.947 42.996 63.616 43.785 61.725 43.204 61.508 44.262 61.872 44.663 62.171 44.948 62.171 44.948 60.322 45.132 59.843 45.392 60.023 46.187 60.92 46.649 61.235 46.959 60.92 47.23 60.546 47.862 60.411 48.35 61.259 48.758 63.569 49.397 64.809 47.984 65.311 47.423 65.859 47.781 65.346 48.494 63.524 51.002 59.163 51.043 57.624 50.258 57.581 52.223 58.431 52.627 59.454 53.441 56.302 57.069 58.385 60.292 56.157 63.466 60.353 63.466 62.977 61.175 63.714 59.035 63.797 59.797 64.2 60.46 65.318 60.687 65.232 59.886 65.482 59.077 65.889 58.26 66.738 58.943 68.287 59.102 70.312 59.187 68.016 55.286 74.517 51.286 71.938 45.97 71.557 45.171 72.677 44.663 72.785 45.476 73.388 50.034 76.066 51.063 78.324 49.642 77.645 48.901 77.364 48.914 76.93 48.24 78.45 48.644 79.224 47.54 79.614 46.159 75.489 44.71 77.711 41.165 75.1 37.777M33.125 54.37L34.362 53.429C34.584 53.262 34.728 53.155 34.979 53.187L36.725 53.418C36.821 53.835 37.101 54.245 37.101 54.245L35.243 53.854C34.979 53.823 34.902 53.835 34.655 54.013L33.776 54.679C33.6 54.815 33.596 55.031 33.695 55.243L33.837 55.549 33.223 56.014 32.987 55.573C32.749 55.099 32.733 54.671 33.125 54.37M35.962 51.087L35.64 51.258C35.417 51.387 35.304 51.444 35.109 51.203L34.97 51.026C34.9 50.943 34.878 50.735 35.02 50.576L36.403 48.965 35.129 47.919 36.752 48.517 37.346 47.776C37.52 47.925 37.459 48.353 37.459 48.353 38.117 48.353 40.027 49.302 40.1 51.681 40.1 51.681 40.534 52.32 41.083 52.353L43.897 52.523C44.363 52.523 45.529 51.634 47.029 52.474 47.407 52.247 47.814 52.064 48.229 52.017 49.551 51.919 50.521 52.841 51.246 53.767 51.775 54.437 52.5 55.464 52.5 55.464 52.188 55.834 51.882 55.959 51.623 55.865 51.234 55.665 51.107 55.35 50.982 54.916 50.784 54.226 50.025 53.636 50.025 53.636 50.284 54.099 50.337 54.625 50.462 55.108 49.361 54.021 49.155 52.69 48.385 52.507 48.044 52.422 47.647 52.568 47.28 52.994 47.668 53.894 47.647 54.937 48.045 55.634 48.348 56.155 48.411 56.203 48.546 56.315 48.871 56.549 48.687 56.968 48.638 57.272L48.221 59.886 47.519 59.886 47.981 57.328C48.123 56.549 45.936 56.549 44.816 55.063 43.861 56.179 41.186 55.9 40.027 55.726 39.561 55.656 39.105 55.686 38.848 56.146 38.698 56.403 38.446 56.326 38.293 56.29L36.182 55.834C35.811 55.748 35.65 55.821 35.485 56.162L35.063 57.036C34.97 57.241 34.976 57.391 35.144 57.556L35.343 57.77C35.222 58.189 34.842 58.508 34.842 58.508L34.382 57.989C34.157 57.728 34.146 57.348 34.322 56.978L35.005 55.551C35.087 55.393 35.233 55.221 35.519 55.221L38.131 55.181 37.332 53.878C36.736 52.901 37.724 51.16 37.577 50.337 37.502 51.441 36.169 50.937 35.962 51.087M46.832 57.107L45.704 59.886 45.005 59.886 46.131 57.195C46.248 56.847 46.027 56.685 45.744 56.305 46.163 56.541 46.462 56.696 46.968 56.889 46.925 56.968 46.872 57.012 46.832 57.107M33.088 56.792L34.356 55.717 34.163 55.332C34.025 55.056 34.099 55.04 34.245 54.93L34.915 54.431C35.069 54.304 35.233 54.319 35.421 54.364L37.433 54.836 35.311 54.836C34.821 54.869 34.679 55.056 34.502 55.42L34.356 55.717 33.811 56.838C33.626 57.223 33.529 57.738 34.016 58.318L34.401 58.777 33.62 60.357 34.278 60.357 34.818 59.261C34.861 59.221 35.659 58.493 35.828 57.738 35.598 57.55 35.433 57.419 35.561 57.156L35.806 56.632C35.886 56.458 35.914 56.387 36.148 56.433L38.257 56.889C38.52 56.962 38.906 57.077 39.188 56.653 39.476 56.212 39.516 56.259 40.186 56.326L41.263 56.44C42.735 56.58 44.204 56.212 44.778 55.758 44.977 56.216 45.375 56.564 45.562 56.92 45.63 57.052 45.516 57.238 45.425 57.47L44.216 60.357 46.08 60.357 47.135 57.722C47.233 57.47 47.375 57.269 47.484 57.168L46.879 60.357 48.688 60.357 49.168 57.202C49.274 56.501 49.211 56.274 48.874 55.986 48.12 55.35 48.137 54.013 47.894 53.202 48.022 53.128 48.17 53.091 48.348 53.112 48.743 53.147 49.039 54.154 49.504 54.802 50.429 56.103 51.693 57.539 53.14 55.516 53 55.286 52.849 55.075 52.674 54.875L52.27 54.401C52.035 54.14 50.915 52.858 50.447 52.396 49.387 51.326 47.756 51.49 47.107 52.008 45.636 51.237 44.084 52.047 43.717 52.017L41.184 51.864C41.069 51.856 40.893 51.818 40.77 51.62L41.241 51.466C40.8 49.633 39.693 48.097 37.758 47.834 37.758 47.834 37.645 47.255 37.349 47.144L36.772 47.824C36.608 47.846 36.431 47.897 36.286 47.96L33.816 47.041 35.671 48.914C35.671 48.914 34.708 50.276 34.435 50.555 34.252 50.809 34.27 51.008 34.474 51.252L34.833 51.724C35.02 51.969 35.222 51.959 35.519 51.808L35.926 51.597C36.103 51.448 36.697 51.741 36.953 51.507 36.789 52.041 36.708 52.553 36.671 52.96L35.005 52.761C34.642 52.712 34.477 52.761 34.255 52.933L32.835 54.027C32.372 54.383 32.228 54.996 32.513 55.594L33.088 56.792M38.508 20.852C39.182 21.318 40.379 21.818 40.379 21.818L40.379 21.022 37.743 20.012C37.743 20.012 37.743 20.336 38.508 20.852M40.379 19.892L40.379 19.097 37.388 18.029C37.388 18.029 37.743 18.408 38.508 18.929 39.182 19.393 40.379 19.892 40.379 19.892M40.379 18.086L40.379 17.288 37.103 16.082C37.103 16.082 37.743 16.6 38.508 17.12 39.182 17.588 40.379 18.086 40.379 18.086"/>
    <path fill="#1A1919" d="M49.586 28.947L52.936 28.947C52.798 28.46 52.277 27.969 51.298 27.969 50.374 27.969 49.817 28.505 49.586 28.947M46.08 16.082L42.808 17.288 42.808 18.086C42.808 18.086 44.007 17.588 44.682 17.12 45.444 16.6 46.08 16.082 46.08 16.082M45.443 20.012L42.808 21.022 42.808 21.818C42.808 21.818 44.007 21.318 44.682 20.852 45.443 20.336 45.443 20.012 45.443 20.012M45.799 18.029L42.808 19.097 42.808 19.892C42.808 19.892 44.008 19.395 44.682 18.929 45.443 18.408 45.799 18.029 45.799 18.029M31.88 27.969C30.903 27.969 30.383 28.46 30.243 28.947L33.597 28.947C33.358 28.504 32.81 27.969 31.88 27.969"/>
    <path fill="#1A1919" d="M41.594,15.687 L36.21,13.56 C36.668,12.479 38.778,11.556 41.594,11.556 C44.409,11.556 46.517,12.479 46.974,13.56 L41.594,15.687 Z M45.6,22.332 L41.973,24.241 L41.973,16.529 L46.902,14.855 L45.6,22.332 Z M49.843,25.547 C48.482,25.783 47.313,27.448 46.355,28.947 L46.248,29.119 L45.226,29.119 L45.222,29.296 C45.116,30.454 44.019,32.026 41.591,32.026 C40.472,32.026 39.628,31.683 39.046,31.215 C38.542,30.806 38.229,30.301 38.073,29.817 C38.016,29.642 37.979,29.465 37.964,29.296 L37.955,29.119 L36.941,29.119 L36.831,28.947 C35.868,27.448 34.7,25.783 33.345,25.547 L37.046,23.397 L41.594,25.869 L46.137,23.397 L49.843,25.547 Z M54.836,31.215 C54.447,32.225 54.135,33.321 54.135,34.419 L54.135,46.194 L52.766,46.194 C52.143,45.591 51.618,43.585 51.618,43.585 C51.277,44.308 51.668,45.77 52.032,46.194 L50.269,46.194 C49.831,45.603 49.453,43.512 49.453,43.512 C48.926,44.113 49.26,45.741 49.587,46.194 L48.415,46.194 C48.342,45.358 48.581,44.446 48.581,44.446 C47.968,44.333 47.316,44.011 47.317,43.329 C47.628,43.619 47.754,43.614 48.183,43.605 L48.681,43.213 C47.029,43.267 46.952,41.453 48.262,40.605 C46.952,40.647 45.975,39.868 46.452,38.478 C45.52,37.997 45.192,36.421 45.88,35.727 C45.382,35.187 45.299,34.126 45.618,33.401 C44.959,33.401 44.216,33.138 43.802,32.688 C43.77,32.703 43.732,32.713 43.698,32.725 C44.523,32.388 45.222,31.865 45.694,31.215 L54.836,31.215 Z M54.138,54.607 C54.138,57.063 53.003,58.93 51.115,59.964 L51.793,58.588 L51.138,58.588 L50.27,60.35 C49.372,60.691 48.35,60.877 47.224,60.877 C43.778,60.877 42.867,61.017 41.596,62.287 C40.317,61.017 39.408,60.877 35.968,60.877 C34.848,60.877 33.829,60.694 32.935,60.357 L32.957,60.357 L33.826,58.588 L33.173,58.588 L32.411,60.136 C32.228,60.05 32.053,59.958 31.883,59.856 L32.509,58.588 L31.858,58.588 L31.393,59.533 C29.917,58.447 29.051,56.751 29.051,54.607 L29.051,46.885 L54.138,46.885 L54.138,54.607 Z M37.061,40.504 L38.117,40.636 C38.197,41.214 38.046,42.197 37.669,42.745 L36.644,42.45 C36.917,41.801 36.985,41.195 37.061,40.504 L37.061,40.504 Z M35.537,39.73 C35.537,39.73 36.509,39.684 36.783,39.787 C36.985,39.871 36.847,40.211 36.586,40.173 C36.313,40.14 35.537,39.73 35.537,39.73 L35.537,39.73 Z M35.473,35.877 L34.602,39.056 L34.899,33.927 L36.25,32.771 L36.938,34.28 L35.2,39.261 L35.659,35.908 C35.702,35.675 35.512,35.648 35.473,35.877 L35.473,35.877 Z M34.803,41.178 C34.348,41.36 33.88,41.112 34.024,40.817 C34.235,41.009 34.826,40.915 34.826,40.915 L34.803,41.178 Z M33.945,41.602 C34.157,41.805 34.795,41.728 34.795,41.728 L34.818,41.856 C34.539,42.227 33.768,42.059 33.945,41.602 L33.945,41.602 Z M32.944,39.553 C32.7,39.39 32.81,39.037 33.081,39.037 C33.376,39.044 33.773,39.38 34.163,39.547 C34.163,39.547 33.14,39.686 32.944,39.553 L32.944,39.553 Z M33.914,42.374 C33.914,42.374 34.206,42.496 34.578,42.526 C34.535,42.729 34.377,42.925 34.128,42.869 C33.92,42.823 33.826,42.564 33.914,42.374 L33.914,42.374 Z M34.602,40.452 C34.11,40.611 33.894,40.256 33.915,39.954 C34.878,39.604 35.307,39.83 35.588,40.009 C35.846,40.173 36.062,40.636 36.409,40.926 C36.353,41.321 36.231,41.891 36.09,42.273 C35.106,42.021 35.055,41.153 35.421,40.626 C35.216,40.385 34.998,40.324 34.602,40.452 L34.602,40.452 Z M38.867,40.734 L39.92,40.859 C40.024,41.438 39.827,42.668 39.43,43.255 L38.356,42.944 C38.786,42.381 38.943,41.38 38.867,40.734 L38.867,40.734 Z M40.68,40.956 L41.548,41.064 C41.687,41.786 41.596,43.035 41.136,43.745 L40.125,43.452 C40.567,42.849 40.776,41.609 40.68,40.956 L40.68,40.956 Z M42.236,41.149 L42.255,41.149 C42.481,41.183 42.719,41.144 42.936,41.055 C43.405,41.728 43.773,43.255 43.209,44.208 C42.89,44.214 42.576,44.158 42.284,44.075 L42.05,44.005 C42.526,43.267 42.457,41.964 42.236,41.149 L42.236,41.149 Z M43.564,40.636 L44.182,40.032 C44.809,40.58 45.633,41.805 45.376,42.968 L44.703,43.585 C44.565,43.718 44.421,43.818 44.275,43.907 C44.694,42.869 44.16,41.269 43.564,40.636 L43.564,40.636 Z M47.179,40.981 C47.046,41.161 46.936,41.371 46.866,41.599 L46.117,42.286 C46.267,41.192 45.531,39.895 44.859,39.368 L45.655,38.587 L45.814,38.747 C45.548,39.445 46.068,40.817 47.179,40.981 L47.179,40.981 Z M45.192,35.683 C44.798,36.434 44.838,37.3 45.302,38.086 L44.993,38.389 C43.65,38.221 43.12,36.219 43.12,36.219 C43.093,36.399 43.077,36.575 43.08,36.753 C42.297,36.464 41.801,35.767 41.841,34.814 C42.137,34.979 42.471,35.096 42.824,35.157 L42.916,34.572 C41.978,34.408 41.43,33.822 41.222,33.129 C41.177,33.125 41.137,33.114 41.094,33.111 C41.262,33.125 41.425,33.138 41.596,33.138 C42.153,33.138 42.68,33.052 43.176,32.906 C43.566,33.461 44.258,33.859 44.951,33.936 C44.843,34.39 44.896,34.968 45.192,35.683 L45.192,35.683 Z M37.492,31.215 C38.14,32.101 39.191,32.758 40.436,33.015 C40.541,33.483 40.794,33.995 41.288,34.408 C41.083,35.785 41.675,37.071 43.157,37.413 C43.311,38.114 43.748,38.646 44.476,38.897 L43.447,40.087 C43.055,40.543 42.541,40.688 42.114,40.636 L37.513,40.112 C37.712,39.601 37.182,39.01 35.726,39.264 L37.535,34.205 L36.431,31.858 L34.339,33.643 L34.186,38.949 L33.297,38.511 C32.128,38.007 31.788,40.119 32.898,40.128 L33.339,40.133 C33.311,40.35 33.376,40.59 33.547,40.663 C33.339,40.751 33.275,41.144 33.539,41.284 C33.274,41.409 33.238,41.81 33.452,41.983 C33.219,42.374 33.184,43.218 33.991,43.432 C34.65,43.605 35.063,42.894 35.2,42.481 L42.359,44.699 C43.374,44.99 44.094,44.826 44.935,44.088 L46.804,42.454 C46.569,43.522 46.954,44.486 47.768,44.804 C47.768,44.804 47.65,45.764 47.687,46.194 L29.051,46.194 L29.051,34.419 C29.051,33.321 28.734,32.225 28.357,31.215 L37.492,31.215 Z M36.283,14.855 L41.208,16.529 L41.208,24.241 L37.58,22.332 L36.283,14.855 Z M48.25,13.937 C48.25,12.052 45.084,10.365 41.591,10.365 C38.096,10.365 34.93,12.052 34.93,13.937 L35.003,14.399 L36.393,22.405 L29.79,26.254 C29.088,26.665 28.209,27.803 28.097,28.947 L29.302,28.947 C29.501,27.804 30.404,26.536 32.088,26.615 C33.612,26.695 34.515,27.622 35.412,28.947 L35.643,29.296 L35.975,29.817 L26.266,29.817 C26.979,31.25 27.658,32.77 27.658,34.419 L27.658,54.607 C27.658,59.802 31.647,62.275 35.968,62.275 C39.304,62.275 39.754,62.123 41.596,63.965 C43.432,62.123 43.88,62.275 47.224,62.275 C51.54,62.275 55.533,59.802 55.533,54.607 L55.533,34.419 C55.533,32.77 56.209,31.25 56.922,29.817 L47.206,29.817 L47.54,29.296 L47.772,28.947 C48.665,27.622 49.571,26.695 51.096,26.615 C52.775,26.536 53.682,27.804 53.881,28.947 L55.083,28.947 C54.976,27.803 54.092,26.665 53.391,26.254 L46.789,22.405 L48.182,14.399 L48.25,13.937 L48.25,13.937 Z"/>
    <path fill="#1A1919" d="M53.565 38.824L53.575 38.234C51.763 38.191 51.349 36.055 51.349 36.055 50.818 37.628 52.201 38.8 53.565 38.824M51.277 42.442L51.096 41.884C49.551 42.279 48.752 39.831 48.752 39.831 48.258 41.609 49.982 42.869 51.277 42.442M52.351 40.173C50.505 40.465 49.747 38.318 49.747 38.318 49.543 39.487 50.3 40.673 51.522 40.798 51.246 42.325 52.663 43.106 53.89 42.563L53.713 42.031C52.647 42.389 51.647 41.334 52.351 40.173M51.246 34.046L51.263 33.455C48.827 32.953 49.03 31.276 49.03 31.276 48.504 32.855 49.887 34.021 51.246 34.046"/>
    <polyline fill="#1A1919" points="35.811 58.588 34.939 60.357 35.594 60.357 36.464 58.588 35.811 58.588"/>
    <polyline fill="#1A1919" points="37.125 58.588 36.256 60.357 36.917 60.357 37.78 58.588 37.125 58.588"/>
    <polyline fill="#1A1919" points="42.4 58.588 41.532 60.357 42.186 60.357 43.056 58.588 42.4 58.588"/>
    <polyline fill="#1A1919" points="43.721 58.588 42.847 60.357 43.506 60.357 44.372 58.588 43.721 58.588"/>
    <polyline fill="#1A1919" points="41.083 58.588 40.212 60.357 40.867 60.357 41.738 58.588 41.083 58.588"/>
    <polyline fill="#1A1919" points="48.786 60.357 49.443 60.357 50.313 58.588 49.657 58.588 48.786 60.357"/>
    <polyline fill="#1A1919" points="38.446 58.588 37.577 60.357 38.233 60.357 39.104 58.588 38.446 58.588"/>
    <polyline fill="#1A1919" points="39.76 58.588 38.89 60.357 39.551 60.357 40.42 58.588 39.76 58.588"/>
    <path fill="#1A1919" d="M36.777 49.082C36.659 49.082 36.553 49.199 36.553 49.349 36.553 49.495 36.659 49.615 36.777 49.615 36.902 49.615 37.008 49.495 37.008 49.349 37.008 49.199 36.902 49.082 36.777 49.082M36.51 8.207L37.548 6.007 39.472 7.029 41.596 4.932 43.72 7.029 45.642 6.007 46.668 8.207 47.947 8.011C47.619 8.626 47.372 9.16 47.145 9.914 45.747 9.098 43.671 8.47 41.596 8.47 39.514 8.47 37.443 9.098 36.044 9.914 35.811 9.16 35.568 8.626 35.237 8.011L36.51 8.207zM41.596 9.171C44.299 9.171 46.463 10.066 47.659 11.029 47.659 11.029 48.017 8.883 49.228 6.999L47.049 7.243 45.911 4.819 43.72 5.958 41.596 3.85 39.472 5.958 37.277 4.819 36.137 7.243 33.96 6.999C35.173 8.883 35.527 11.029 35.527 11.029 36.72 10.066 38.89 9.171 41.596 9.171L41.596 9.171z"/>
    <path fill="#1A1919" d="M43.818 4.834C44.134 4.86 44.415 4.621 44.442 4.309 44.473 3.994 44.011 3.149 44.011 3.149 44.011 3.149 43.319 3.893 43.297 4.211 43.267 4.523 43.505 4.802 43.818 4.834M47.387 6.127C47.668 6.279 48.011 6.167 48.163 5.885 48.316 5.608 48.216 4.652 48.216 4.652 48.216 4.652 47.297 5.067 47.145 5.349 47.001 5.627 47.107 5.974 47.387 6.127M39.365 4.834C39.687 4.802 39.92 4.523 39.892 4.211 39.863 3.893 39.178 3.149 39.178 3.149 39.178 3.149 38.717 3.994 38.747 4.309 38.772 4.621 39.054 4.86 39.365 4.834M35.802 6.127C36.082 5.974 36.189 5.627 36.039 5.349 35.891 5.067 34.97 4.652 34.97 4.652 34.97 4.652 34.872 5.608 35.026 5.885 35.173 6.167 35.521 6.279 35.802 6.127M75.282 26.172C75.516 26.695 75.983 28.511 74.869 29.897 73.6 27.36 71.854 25.187 70.441 24.25 70.132 24.049 70.612 23.696 71.482 23.582 74.113 23.083 77.195 24.196 78.665 24.587 77.981 25.098 77.426 25.328 76.728 25.414 77.795 26.309 78.573 27.066 79.123 27.91 78.089 28.165 77.508 27.512 75.282 26.172M78.601 25.741C79.361 25.471 79.949 24.746 80.242 24.075 78.307 23.797 73.169 21.639 68.944 23.396 70.526 21.894 71.947 21.7 72.082 19.54 72.738 20.012 73.847 20.278 74.471 19.152 74.035 17.866 72.936 18.907 72.781 18.554 72.566 18.061 74.169 18.705 74.511 17.034 73.265 16.606 72.892 17.624 72.67 17.388 72.464 17.163 73.461 16.734 72.728 15.387 71.43 16.146 72.105 17.002 71.831 17.098 71.499 17.229 71.76 16.185 70.327 16.232 70.186 17.774 71.674 17.821 71.43 18.067 71.135 18.365 70.746 17.181 69.663 17.781 69.682 19.026 70.689 19.709 71.73 19.415 71.56 21.78 69.393 21.339 67.776 24.002 71.197 25.756 72.745 28.814 74.85 30.929 75.545 30.436 76.733 28.243 76.733 28.243 79.011 30.007 80.613 28.25 80.613 28.25 79.829 27.447 79.801 26.836 78.601 25.741M40.959 67.693L39.476 67.638 39.307 68.231 39.493 68.241C39.555 68.241 39.555 68.125 39.609 68.062 39.638 68.039 39.907 67.995 40.119 68.017L40.74 68.064C40.375 68.825 39.418 69.541 39.43 70.046 39.444 70.315 39.717 70.368 39.88 70.361 40.179 70.35 40.272 70.14 40.35 69.816 40.531 69.067 40.893 68.497 41.155 67.638L40.971 67.644 40.959 67.693M41.973 68.578L41.995 68.121 43.283 68.121 43.215 67.611C42.863 67.623 42.346 67.738 41.872 67.741L41.782 68.737C42.379 68.711 42.768 68.971 42.768 69.596 42.768 69.829 42.615 70.264 42.346 70.297 42.284 70.306 42.202 70.285 42.163 70.254 42.034 70.157 42.203 70.05 42.203 69.89 42.203 69.682 41.991 69.609 41.85 69.635 41.629 69.649 41.55 69.793 41.55 69.969 41.55 70.336 42.095 70.438 42.328 70.438 42.857 70.438 43.467 70.144 43.467 69.545 43.467 68.757 42.585 68.595 41.973 68.578M45.06 68.984C44.601 68.984 44.535 68.269 44.535 67.922 44.535 67.824 44.623 67.686 44.726 67.686 45.144 67.686 45.259 68.659 45.293 68.933 45.225 68.959 45.144 68.984 45.06 68.984M44.767 67.551C44.305 67.551 43.926 67.895 43.926 68.365 43.926 69.107 44.723 69.351 45.314 69.07 45.387 69.646 45.269 70.059 45.051 70.073 44.865 70.073 44.892 69.933 44.865 69.814 44.816 69.59 44.639 69.53 44.457 69.59 44.264 69.646 44.235 69.816 44.268 69.945 44.354 70.236 44.714 70.242 44.887 70.221 45.645 70.135 45.963 69.572 45.963 68.947 45.963 68.223 45.548 67.551 44.767 67.551M38.437 67.399C38.368 67.484 38.05 67.88 37.367 68.39L37.424 68.489C37.499 68.449 37.62 68.393 37.826 68.269L37.424 69.676C37.401 69.752 37.308 69.759 37.263 69.752L37.024 69.718 36.979 69.883 38.287 70.117 38.327 69.951 38.101 69.902C38.034 69.883 37.993 69.835 38.004 69.759L38.6 67.424 38.437 67.399"/>
    <path fill="#1A1919" d="M48.339 69.06L47.179 65.288C49.651 64.777 51.371 64.252 52.684 63.745L52.684 66.098 54.722 66.919C53 67.704 50.864 68.483 48.339 69.06M41.596 71.267C39.291 71.267 37.04 70.922 35.117 70.45L36.341 66.493C37.152 66.682 39.182 66.931 41.596 66.931 44.011 66.931 46.033 66.682 46.848 66.493L48.076 70.45C46.144 70.922 43.894 71.267 41.596 71.267M28.463 66.919L30.503 66.098 30.503 63.745C31.816 64.252 33.537 64.777 36.008 65.288L34.849 69.06C32.33 68.483 30.189 67.704 28.463 66.919M53.315 65.609L53.315 62.722C51.084 63.745 48.244 64.574 44.593 64.902L44.427 65.935C44.737 65.978 45.131 66.016 45.655 66.05 44.302 66.235 42.554 66.325 41.596 66.325 40.636 66.325 38.89 66.235 37.535 66.05 38.058 66.016 38.449 65.978 38.759 65.935L38.594 64.902C34.942 64.574 32.099 63.745 29.874 62.722L29.874 65.609 26.847 66.851C29.088 68.017 31.668 68.968 34.65 69.736L34.297 70.945C36.005 71.445 38.734 71.958 41.596 71.958 44.457 71.958 47.184 71.445 48.892 70.945L48.54 69.736C51.518 68.968 54.104 68.017 56.345 66.851L53.315 65.609M4.061 27.91C4.614 27.066 5.388 26.309 6.462 25.418 5.759 25.328 5.208 25.098 4.519 24.587 5.989 24.196 9.08 23.083 11.711 23.582 12.575 23.696 13.063 24.049 12.746 24.248 11.332 25.187 9.585 27.36 8.315 29.896 7.204 28.511 7.674 26.695 7.904 26.172 5.682 27.513 5.103 28.165 4.061 27.91M6.454 28.243C6.454 28.243 7.644 30.436 8.335 30.928 10.444 28.814 11.993 25.756 15.411 24.002 13.793 21.339 11.622 21.786 11.461 19.415 12.5 19.709 13.505 19.023 13.526 17.781 12.439 17.184 12.051 18.371 11.759 18.067 11.515 17.817 13.003 17.774 12.862 16.234 11.427 16.189 11.69 17.229 11.353 17.098 11.084 17 11.759 16.145 10.456 15.387 9.725 16.74 10.725 17.162 10.518 17.388 10.297 17.624 9.921 16.606 8.676 17.034 9.014 18.705 10.624 18.061 10.405 18.554 10.252 18.907 9.153 17.866 8.721 19.152 9.34 20.278 10.451 20.012 11.102 19.542 11.242 21.709 12.659 21.89 14.245 23.396 10.021 21.639 4.881 23.795 2.94 24.078 3.239 24.746 3.825 25.471 4.586 25.735 3.387 26.84 3.359 27.448 2.575 28.25 2.575 28.25 4.173 30.007 6.454 28.243M39.744 26.632L39.744 27.904C40.182 27.377 41.029 27.481 41.029 27.481L41.029 29.311C41.029 29.311 40.999 30.214 40.68 30.601L42.512 30.601C42.193 30.214 42.163 29.311 42.163 29.311L42.163 27.481C42.163 27.481 43.009 27.377 43.447 27.904L43.447 26.632 39.744 26.632"/>
  </g>
</svg>
