<svg xmlns="http://www.w3.org/2000/svg" width="60" height="60" viewBox="0 0 60 60">
  <g fill="none" transform="translate(.612)">
    <path fill="#0A2972" d="M29.9999999,60 C46.5685425,60 60,46.5685425 60,29.9999999 C60,13.4314575 46.5685425,0 29.9999999,0 C13.4314575,0 -3.41060513e-13,13.4314575 -3.41060513e-13,29.9999999 C-3.41060513e-13,46.5685425 13.4314575,60 29.9999999,60 Z"/>
    <path fill="#FFFFFF" d="M38.5005719,30.3539597 L15.9596707,30.3539597 C15.9596707,30.3539597 16.639375,32.4643392 17.4276107,33.5444612 L37.4829307,33.5444612 C37.4829307,33.5444612 41.3104703,36.4493753 43.1414583,41.5273085 L22.0608361,41.5273085 C18.4235456,38.6549506 15.699621,34.7725281 14.2691351,30.3539597 C14.4504463,29.8128686 14.6517613,29.2816677 14.872229,28.7599453 L38.4899314,28.7599453 C40.3315598,27.5203395 42.1616965,25.5690318 42.1616965,25.5690318 L16.5244594,25.5690318 C16.8645244,25.0225832 17.2262956,24.4913824 17.6097731,23.9758415 L43.5023783,23.9758415 C44.185913,23.173477 45.5593668,20.784928 45.5593668,20.784928 L20.4656377,20.784928 C21.0687317,20.2219953 21.7016185,19.6903824 22.3621702,19.1909136 L46.3293012,19.1909136 C46.9860223,17.6673688 47.4546226,16 47.4546226,16 L21.4207137,16 C16.4461466,19.428697 12.6952174,24.4522326 11,30.3539597 C12.6807466,36.1897504 16.3972011,41.25326 21.408371,44.7141011 L47.3865244,44.7141011 C47.3865244,44.7141011 46.9298414,37.0774203 38.5005719,30.3539597 L38.5005719,30.3539597 L38.5005719,30.3539597 Z"/>
  </g>
</svg>
