<svg xmlns="http://www.w3.org/2000/svg" width="56" height="32" viewBox="0 0 56 32">
  <defs>
    <linearGradient id="a" x1="45.865%" x2="54.492%" y1="97.391%" y2="-.889%">
      <stop stop-color="#1A1E5A" offset="0%"/>
      <stop stop-color="#122D98" offset="100%"/>
    </linearGradient>
  </defs>
  <path fill="url(#a)" fill-rule="evenodd" d="M23.2868817,10.2348387 L18.0160573,22.8098925 L14.5773477,22.8098925 L11.9829391,12.7733333 C11.8245161,12.154552 11.6884588,11.9290323 11.2094624,11.6681004 C10.4285305,11.2431541 9.13691756,10.8461649 8,10.5982796 L8.07641577,10.2255197 L13.6118996,10.2255197 C14.356453,10.2285732 14.9884681,10.7721061 15.1029391,11.5078136 L16.4728315,18.7766308 L19.857491,10.2180645 L23.2868817,10.2348387 Z M36.7602867,18.7039427 C36.7733333,15.3845161 32.1716129,15.2018638 32.2032975,13.7201434 C32.2126165,13.2691039 32.6431541,12.7882437 33.582509,12.6670968 C34.6825522,12.5612047 35.7907746,12.754387 36.7901075,13.2262366 L37.3622939,10.5591398 C36.3890926,10.1932352 35.3584172,10.0038888 34.3187097,10 C31.1036559,10 28.8410036,11.7091039 28.8205018,14.1562724 C28.8,15.9660215 30.4364158,16.9762007 31.6683871,17.5782079 C32.9357706,18.1951254 33.3607168,18.5902509 33.3569892,19.1419355 C33.3569892,19.9862366 32.3449462,20.3571326 31.409319,20.372043 C29.774767,20.3962724 28.8260932,19.9303226 28.0693907,19.5780645 L27.4804301,22.3327599 C28.2408602,22.6812903 29.6443011,22.9850896 31.0980645,23 C34.5162724,23 36.7509677,21.3113978 36.7621505,18.6983513 L36.7602867,18.7039427 Z M45.2536201,22.7987097 L48.2617921,22.7987097 L45.6356989,10.2236559 L42.858638,10.2236559 C42.2491785,10.2194886 41.699495,10.5893967 41.4738351,11.1555556 L36.5925448,22.8080287 L40.0088889,22.8080287 L40.6873118,20.929319 L44.8603584,20.929319 L45.2536201,22.7987097 Z M41.6248029,18.3423656 L43.3376344,13.621362 L44.3142652,18.3535484 L41.6248029,18.3423656 Z M27.9389247,10.2236559 L25.2494624,22.7987097 L21.9915412,22.7987097 L24.6828674,10.2236559 L27.9389247,10.2236559 Z"/>
</svg>
