<svg id="Layer_1" xmlns="http://www.w3.org/2000/svg" width="147" height="28" viewBox="0 0 147.046936 28"><style>.st0{fill:red}.st1{fill:#fff}</style><path class="st1" d="M7.084 14.805l-4.096 9.2H0l4.499-9.837c-1.052-.537-1.903-1.326-2.551-2.367-.65-1.041-.974-2.456-.974-4.247 0-1.253.184-2.355.554-3.307.369-.95.873-1.74 1.51-2.367S4.42.784 5.273.47A7.703 7.703 0 0 1 7.957 0h3.86v24.005H9.233v-9.2h-2.15zM9.233 2.15H7.856c-.515 0-1.019.095-1.51.286s-.93.494-1.31.91c-.38.415-.688.965-.923 1.65-.236.685-.352 1.532-.352 2.543 0 .965.105 1.774.318 2.425.213.651.504 1.18.873 1.583.37.404.806.69 1.31.859a5.005 5.005 0 0 0 1.594.252h1.377V2.149zM24.273 7.084v16.92h-2.586v-7.587h-3.894v7.588h-2.618V7.085h2.618v7.184h3.894V7.084h2.586zm13.463 20.244h-2.35v-3.323h-7.252v3.323h-2.35v-5.472h1.04c.381-.895.683-1.885.907-2.971.223-1.085.397-2.204.52-3.358.123-1.152.201-2.327.236-3.524.033-1.198.05-2.356.05-3.476V7.084h7.856v14.772h1.343v5.472zM33.808 9.232h-2.92v.302c0 .893-.018 1.87-.052 2.93a45.904 45.904 0 0 1-.218 3.231 38.741 38.741 0 0 1-.47 3.231 15.784 15.784 0 0 1-.84 2.93h4.5V9.232zm15.309 13.631a6.386 6.386 0 0 1-1.846 1.007c-.694.246-1.467.37-2.317.37-1.746 0-3.122-.677-4.13-2.031-1.007-1.354-1.51-3.341-1.51-5.96 0-1.364.094-2.618.285-3.76s.492-2.132.907-2.971c.413-.84.945-1.494 1.595-1.964.648-.47 1.42-.705 2.315-.705.694 0 1.332.14 1.915.42.581.28 1.073.733 1.477 1.36.402.626.715 1.437.94 2.433.223.996.335 2.21.335 3.643v1.443h-7.05c0 1.926.263 3.38.79 4.365.525.985 1.314 1.477 2.366 1.477.738 0 1.393-.128 1.964-.386.57-.257 1.024-.509 1.36-.755l.604 2.014zm-4.7-13.865c-.806 0-1.376.453-1.712 1.36-.337.906-.55 2.12-.639 3.642h4.332c0-.716-.034-1.382-.101-1.997a8.08 8.08 0 0 0-.319-1.595c-.146-.448-.347-.795-.604-1.041a1.335 1.335 0 0 0-.958-.37zm9.97 6.58v8.427H51.77V7.085h2.619v7.821l4.062-7.822h2.652l-4.196 7.957 4.801 8.964h-2.853l-4.466-8.427zm13.464 8.661c-1.814 0-3.235-.721-4.264-2.165-1.03-1.444-1.545-3.62-1.545-6.53 0-1.32.13-2.517.387-3.592.256-1.074.637-1.986 1.14-2.736A5.384 5.384 0 0 1 65.45 7.47c.75-.414 1.617-.621 2.602-.621.76 0 1.377.084 1.846.252.471.168.895.375 1.277.62l-.37 2.485a5.724 5.724 0 0 0-1.26-.846 3.358 3.358 0 0 0-1.527-.362c-.94 0-1.712.529-2.316 1.586-.605 1.058-.907 2.666-.907 4.825 0 2.138.253 3.786.755 4.944.504 1.16 1.293 1.738 2.368 1.738.648 0 1.209-.11 1.678-.33.47-.218.862-.467 1.175-.744l.604 1.947a5.767 5.767 0 0 1-1.51.923c-.56.235-1.232.352-2.014.352z"/><g><path class="st1" d="M89.17 24.005H78.896L78.662 28h-1.31v-5.338h.705c.582-.493 1.029-1.367 1.343-2.623.314-1.255.559-2.746.739-4.472.179-1.793.302-3.995.369-6.607.067-2.611.123-5.598.167-8.96h8.393v22.662h1.646V28h-1.31l-.234-3.995zM87.39 1.343h-5.204a350.432 350.432 0 0 1-.201 8.1c-.09 2.324-.202 4.361-.335 6.112-.158 1.82-.376 3.318-.655 4.497-.28 1.179-.644 2.049-1.091 2.61h7.486V1.343zM93.937 15.813c.044 2.338.369 4.12.973 5.346.605 1.226 1.522 1.838 2.753 1.838.56 0 1.052-.09 1.477-.273.425-.182.784-.399 1.075-.65.336-.25.626-.558.873-.923l.503 1.276c-.269.38-.593.705-.973.973-.336.247-.75.465-1.242.655-.494.19-1.075.285-1.746.285-1.791 0-3.111-.772-3.962-2.316-.85-1.545-1.275-3.704-1.275-6.48 0-1.387.123-2.624.369-3.71.246-1.085.587-2.008 1.024-2.77.436-.76.956-1.337 1.56-1.729a3.579 3.579 0 0 1 1.982-.587c.738 0 1.398.19 1.98.57.582.382 1.063.952 1.444 1.713.38.761.649 1.707.806 2.837.156 1.13.168 2.446.033 3.945h-7.654zm3.391-7.722c-.896 0-1.662.551-2.3 1.654-.638 1.102-.991 2.71-1.058 4.826h6.144c.135-2.25-.083-3.891-.654-4.927-.571-1.035-1.282-1.553-2.132-1.553zM111.932 15.914h-5.776v8.09h-1.577V7.085h1.577v7.487h5.776V7.084h1.577v16.92h-1.577v-8.09zM117.234 7.084h1.579v6.278h1.242c1.611 0 2.898.437 3.86 1.31.963.872 1.445 2.193 1.445 3.961 0 1.791-.504 3.134-1.512 4.029-1.007.895-2.305 1.343-3.894 1.343h-2.72V7.085zm1.579 7.52v8.159h1.007c1.186 0 2.148-.32 2.887-.957.74-.638 1.108-1.684 1.108-3.14 0-1.432-.336-2.467-1.007-3.105-.671-.638-1.611-.957-2.82-.957h-1.175zM129.624 8.427v15.578h-1.544V7.085h7.15v1.342h-5.606zM145.536 12.22c0-.447.011-.856.034-1.225.022-.369.055-.733.1-1.09h-.1c-.113.38-.247.743-.403 1.09s-.325.71-.504 1.091l-5.505 11.919h-1.344V7.085h1.478v11.75a20.194 20.194 0 0 1-.134 2.384h.1c.112-.381.246-.756.403-1.125.156-.37.324-.745.504-1.125l5.505-11.885h1.377v16.92h-1.511V12.222z"/></g></svg>