<svg id="Layer_1" xmlns="http://www.w3.org/2000/svg" width="147" height="28" viewBox="0 0 147.125412 28"><style>.st0{fill:red}</style><path class="st0" d="M7.084 14.806l-4.096 9.199H0l4.5-9.838C2.384 13.093.975 11.147.975 7.553.975 2.518 4.163 0 7.958 0h3.86v24.005H9.233v-9.2H7.084zM9.234 2.18H7.856c-2.082 0-4.097 1.377-4.097 5.372 0 3.862 1.847 5.104 4.097 5.104h1.376V2.181z"/><path d="M24.282 7.083v16.922h-2.586v-7.588h-3.894v7.588h-2.619V7.083h2.619v7.186h3.894V7.083h2.586zm13.462 20.246h-2.35v-3.324h-7.252v3.324h-2.35v-5.473h1.04c1.545-3.592 1.713-8.83 1.713-13.328V7.083h7.857v14.773h1.342v5.473zm-3.928-18.13h-2.921V9.5c0 3.56-.167 8.763-1.577 12.355h4.498V9.199zm11.147 15.04c-3.491 0-5.64-2.786-5.64-7.99 0-5.439 1.51-9.4 5.102-9.4 2.82 0 4.667 2.115 4.667 7.856v1.443h-7.05c0 3.827 1.074 5.842 3.156 5.842 1.477 0 2.651-.671 3.324-1.141l.604 2.014c-1.074.84-2.485 1.377-4.163 1.377zM42.076 14h4.33c0-2.886-.47-5.001-1.98-5.001-1.612 0-2.183 1.98-2.35 5.001zm12.32 1.579v8.427h-2.618V7.083h2.619v7.824l4.062-7.824h2.653l-4.198 7.958 4.802 8.964h-2.854l-4.465-8.427zm7.655-.034c0-5.305 2.049-8.695 6.01-8.695 1.51 0 2.384.402 3.122.872l-.369 2.485c-.705-.604-1.713-1.175-2.787-1.175-1.88 0-3.223 2.116-3.223 6.379 0 4.23 1.007 6.647 3.123 6.647 1.275 0 2.249-.503 2.854-1.04l.604 1.948c-.906.772-1.98 1.275-3.525 1.275-3.626 0-5.809-2.921-5.809-8.696zM89.213 24.005H78.94L78.705 28h-1.31v-5.372h.704c1.176-.973 1.747-3.659 2.082-7.084.336-3.558.437-8.863.537-15.544h8.394v22.628h1.646V28h-1.31l-.235-3.995zm-1.78-22.629H82.23c-.101 6.077-.27 10.71-.537 14.168-.302 3.592-.84 5.976-1.747 7.084h7.488V1.376zM97.715 22.965c2.25 0 3.425-1.814 3.425-1.814l.503 1.276s-1.275 1.914-3.96 1.914c-3.594 0-5.239-3.257-5.239-8.797s2.082-8.796 4.936-8.796c2.921 0 4.8 3.055 4.263 9.065H93.99c.067 4.632 1.275 7.152 3.726 7.152zm-3.693-8.394h6.144c.27-4.499-1.075-6.513-2.786-6.513-1.78 0-3.223 2.282-3.358 6.513zM111.99 15.846h-5.775v8.159h-1.578V7.083h1.578v7.488h5.775V7.083h1.578v16.922h-1.578v-8.16zM117.3 7.083h1.578v6.28h1.242c3.224 0 5.305 1.745 5.305 5.27 0 3.592-2.215 5.372-5.406 5.372h-2.718V7.083zm1.578 7.52v8.16h1.007c2.384 0 3.996-1.175 3.996-4.096 0-2.854-1.41-4.064-3.827-4.064h-1.176zM129.694 8.392v15.613h-1.545V7.083h7.152v1.31h-5.607zM145.614 12.221c0-.873.068-1.611.135-2.317h-.101a15.057 15.057 0 0 1-.906 2.182l-5.506 11.919h-1.344V7.083h1.478v11.75c0 .908-.067 1.647-.134 2.385h.1c.235-.773.571-1.51.906-2.249l5.507-11.886h1.376v16.922h-1.511V12.22z"/></svg>